<svg width="96" height="138" viewBox="0 0 96 138" fill="none" xmlns="http://www.w3.org/2000/svg">
<g id="Fiona">
<ellipse id="floor" cx="44.5" cy="115.389" rx="44.5" ry="22.389" fill="#4D4848"/>
<path id="chest" d="M31.2124 26.0561C38.875 28.0096 47.9057 27.9297 53.0737 26.0561C62.4683 22.6502 51.7802 35.5477 53.8521 60.7565C54.3515 66.8326 43.3412 72.7251 41.7378 72.7251C40.1345 72.7251 29.0939 67.0408 29.6236 60.7565C31.673 36.4409 21.6367 23.6149 31.2124 26.0561Z" fill="url(#paint0_linear)"/>
<g id="l-leg">
<g id="l-thigh">
<path id="l-quad-joint" d="M41.9996 69.6058C41.9996 72.291 38.4617 71.0644 35.069 71.0644C29.2411 72.0368 31.4463 63.7713 31.4463 63.7713C31.4463 63.7713 31.6763 61.3403 35.069 61.3403C38.4617 61.3403 41.9996 66.9205 41.9996 69.6058Z" fill="#DDB18B"/>
<path id="l-quads" d="M32.5123 65.4519C34.0015 64.6366 38.049 65.886 40.2175 70.6383C43.4791 77.7863 39.615 89.5732 39.615 89.5732L30.4086 89.7447C30.4086 89.7447 25.9953 69.0196 32.5123 65.4519Z" fill="#E8B890"/>
</g>
<g id="leg">
<path id="l-caft" d="M29.8636 91.9371C31.7722 86.8636 39.5585 86.7886 39.9448 92.3001C40.5709 101.232 39.4873 104.447 38.0977 114.093C37.3046 119.598 29.677 120.531 28.638 115.08C26.3036 102.832 26.3027 101.403 29.8636 91.9371Z" fill="#E8B890"/>
<ellipse id="l-knee" cx="35.1801" cy="90.458" rx="5.11464" ry="2.32227" fill="#DDB18B"/>
<path id="l-shoe" d="M40.5 117.096C40.5 122.537 41.3245 123.532 34.3245 123.532C27.3245 123.532 27.8247 123.564 27.3245 117.096C25.8247 113.613 30.7346 112.121 34.3245 112.121C37.9143 112.121 40.6755 112.089 40.5 117.096Z" fill="black"/>
</g>
</g>
<g id="r-leg">
<g id="quads">
<path id="Ellipse 55" d="M42.9995 69.6058C42.9995 72.291 46.5374 71.0644 49.9301 71.0644C55.7579 72.0368 53.5527 63.7713 53.5527 63.7713C53.5527 63.7713 53.3227 61.3403 49.9301 61.3403C46.5374 61.3403 42.9995 66.9205 42.9995 69.6058Z" fill="#DDB18B"/>
<path id="Rectangle 81" d="M52.4868 65.4523C50.9975 64.6371 46.9501 65.8865 44.7816 70.6388C41.52 77.7868 45.384 89.5737 45.384 89.5737L54.5904 89.7452C54.5904 89.7452 59.0037 69.0201 52.4868 65.4523Z" fill="#E8B890"/>
</g>
<g id="leg_2">
<path id="Rectangle 83" d="M55.1349 91.9378C53.2263 86.8643 45.4401 86.7893 45.0538 92.3008C44.4277 101.233 45.5113 104.448 46.9008 114.093C47.694 119.599 55.3216 120.532 56.3605 115.08C58.6949 102.833 58.6958 101.403 55.1349 91.9378Z" fill="#E8B890"/>
<ellipse id="Ellipse 57" rx="5.11462" ry="2.32227" transform="matrix(-1 0 0 1 49.8195 90.4587)" fill="#DDB18B"/>
<path id="r-shoe" d="M58.4531 118.059C58.4531 123.5 59.2776 124.495 52.2776 124.495C45.2776 124.495 45.7778 124.527 45.2776 118.059C43.7778 114.576 48.6878 113.084 52.2776 113.084C55.8675 113.084 58.6286 113.052 58.4531 118.059Z" fill="black"/>
</g>
</g>
<g id="face">
<g id="hears">
<path id="Vector 13" d="M52.0292 9.94122C50.3938 10.7269 52.3346 12.3376 51.5438 13.7473C51.6626 14.3227 52.4247 17.9242 52.6555 16.779C53.0756 14.6947 52.7162 16.5984 53.0313 14.6034C53.3354 12.6777 52.5302 13.5673 53.4071 10.77C53.69 9.86742 53.5097 9.22997 52.0292 9.94122Z" fill="#F0BF96"/>
<path id="Vector 14" d="M32.882 9.69364C34.6286 10.1466 32.9563 12.0774 33.9631 13.2959C33.9358 13.8768 33.7467 17.5167 33.3373 16.4489C32.5923 14.5054 33.2487 16.2851 32.6218 14.4083C32.0168 12.5969 32.9559 13.3079 31.6453 10.7589C31.2223 9.93638 31.3009 9.28355 32.882 9.69364Z" fill="#F0BF96"/>
</g>
<path id="hair" d="M29.0446 29.4952L30.8388 47.4096L31.3282 29.4952L32.1128 41.7136L35 33.6514L35.5 37.5L36 44L38.5 32.5L39.5 38.5L41 29.5C41 29.5 42.5397 57.36 43.5 31C44.022 16.6725 46.1708 57.3389 47.5 29L49.5 35.5L49 45.5C49 45.5 52 38.1349 53.5 36.3175C55 34.5 57.1257 47.4096 57.1257 47.4096C57.1257 47.4096 59 24.0254 56.7304 11.2475C55.3153 3.2802 53.0786 1.09241 44.5 0.14391C40 -0.353637 32.0479 -0.0376263 29.9999 9.09952C27.1565 21.785 29.0446 29.4952 29.0446 29.4952Z" fill="url(#paint1_linear)"/>
<path id="neck" d="M36.9906 20.0157C36.9906 15.8262 48.3609 15.0139 48.3609 20.0157C48.3609 25.0175 49.2516 31.8056 49.2516 31.8056L42.8482 30.9124L34.9995 31.8056C34.9995 31.8056 36.9906 24.2052 36.9906 20.0157Z" fill="#DBAC85"/>
<path id="surface" d="M52 15.2949C50.1962 22.2017 48.2722 24.1574 42.6203 26.0134C35.8861 24.0249 34.2025 21.4696 33 15.1081C34 7.5 32.7018 3.99997 42.6203 4C53.4946 4.00003 50 7.5 52 15.2949Z" fill="url(#paint2_radial)"/>
<ellipse id="nose" rx="1.92269" ry="1.01249" transform="matrix(0.999918 0.0128001 -0.0272719 0.999628 42.7006 16.7726)" fill="url(#paint3_linear)"/>
<path id="l-eyebrow" fill-rule="evenodd" clip-rule="evenodd" d="M34.8801 10.3892C35.5477 9.68787 36.6851 9.2907 38.1914 9.68209C39.1711 9.85251 40.1922 10.3351 40.8717 10.9594C40.509 10.0241 39.5257 9.25092 38.2696 9.03244C36.7977 8.77641 35.4211 9.36384 34.8801 10.3892Z" fill="black"/>
<g id="l-eye">
<path id="Eyeball" d="M40 13.5C40.1341 14.2589 38.7609 13.8342 37.2794 13.8342C35.7979 13.8342 35.2676 13.0493 35.2676 12.3787C35.6699 11.9234 35.8041 11.4058 37.2794 11.4058C39.6936 11.4058 40 12.8294 40 13.5Z" fill="white"/>
<path id="Eye-outer-rim" d="M38.8885 12.6056C38.8885 13.2343 38.288 13.744 37.5473 13.744C36.8065 13.744 36.2061 13.2343 36.2061 12.6056C36.2061 11.9769 36.8065 11.4673 37.5473 11.4673C38.288 11.4673 38.8885 11.9769 38.8885 12.6056Z" fill="#0B1A37"/>
<g id="Eye-inner-rim">
<path d="M38.7555 12.6203C38.7555 13.2071 38.2151 13.6828 37.5484 13.6828C36.8817 13.6828 36.3413 13.2071 36.3413 12.6203C36.3413 12.0335 36.8817 11.5579 37.5484 11.5579C38.2151 11.5579 38.7555 12.0335 38.7555 12.6203Z" fill="#159DD7"/>
<path d="M38.7555 12.6203C38.7555 13.2071 38.2151 13.6828 37.5484 13.6828C36.8817 13.6828 36.3413 13.2071 36.3413 12.6203C36.3413 12.0335 36.8817 11.5579 37.5484 11.5579C38.2151 11.5579 38.7555 12.0335 38.7555 12.6203Z" fill="url(#paint4_linear)" fill-opacity="0.22"/>
</g>
<path id="Pupil" d="M38.4871 12.6199C38.4871 12.3849 38.3934 12.1589 38.2256 11.9894C38.0579 11.8198 37.829 11.7197 37.5869 11.71C37.3448 11.7003 37.1082 11.7818 36.9266 11.9374C36.745 12.093 36.6325 12.3107 36.6126 12.545C36.5926 12.7792 36.6668 13.0119 36.8196 13.1943C36.9725 13.3766 37.1921 13.4947 37.4325 13.5236C37.673 13.5526 37.9157 13.4903 38.1098 13.3497C38.304 13.2091 38.4346 13.0011 38.4744 12.7693L37.5482 12.6199H38.4871Z" fill="#3A3A3A"/>
<g id="spec" style="mix-blend-mode:overlay">
<path d="M37.6799 13.6821L37.5457 13.6063L37.4116 13.4545V13.3027L37.6799 13.2268L37.814 13.3027L37.8984 13.3525L37.9481 13.4545V13.5304L37.814 13.6063L37.6799 13.6821Z" fill="white"/>
</g>
<g id="spec_2" style="mix-blend-mode:overlay">
<path d="M37.8161 12.2407L37.682 12.1648L37.5479 12.0131V11.8613L37.8161 11.7854L37.9502 11.8613L38.0346 11.9111L38.0843 12.0131V12.089L37.9502 12.1648L37.8161 12.2407Z" fill="white"/>
</g>
<g id="spec_3" style="mix-blend-mode:overlay">
<path d="M36.8776 12.4683L36.7435 12.3924L36.6094 12.2406V12.0888L36.8776 12.0129L37.0117 12.0888L37.0962 12.1387L37.1459 12.2406V12.3165L37.0117 12.3924L36.8776 12.4683Z" fill="white"/>
</g>
<g id="spec_4" style="mix-blend-mode:overlay">
<path d="M37.8161 12.3921L37.682 12.3162L37.5479 12.1644V12.0127L37.8161 11.9368L37.9502 12.0127L38.0346 12.0625L38.0843 12.1644V12.2403L37.9502 12.3162L37.8161 12.3921Z" fill="white"/>
</g>
<path id="Eye-gloss" d="M36.3397 12.6955C36.3397 12.9231 37.0283 11.9366 37.5468 11.9366C38.0653 11.9366 38.7539 12.9889 38.7539 12.6955C38.7539 12.4021 38.6198 11.633 37.5468 11.5571C36.4738 11.633 36.3397 12.4021 36.3397 12.6955Z" fill="url(#paint5_linear)"/>
</g>
<g id="r-eye">
<path id="Eyeball_2" d="M45 13.5C44.8659 14.2589 46.2391 13.8342 47.7206 13.8342C49.2021 13.8342 49.7324 13.0493 49.7324 12.3787C49.3301 11.9234 49.1959 11.4058 47.7206 11.4058C45.3064 11.4058 45 12.8294 45 13.5Z" fill="white"/>
<path id="Eye-outer-rim_2" d="M46.1115 12.6056C46.1115 13.2343 46.712 13.744 47.4527 13.744C48.1935 13.744 48.7939 13.2343 48.7939 12.6056C48.7939 11.9769 48.1935 11.4673 47.4527 11.4673C46.712 11.4673 46.1115 11.9769 46.1115 12.6056Z" fill="#0B1A37"/>
<g id="Eye-inner-rim_2">
<path d="M46.2445 12.6203C46.2445 13.2071 46.7849 13.6828 47.4516 13.6828C48.1183 13.6828 48.6587 13.2071 48.6587 12.6203C48.6587 12.0335 48.1183 11.5579 47.4516 11.5579C46.7849 11.5579 46.2445 12.0335 46.2445 12.6203Z" fill="#159DD7"/>
<path d="M46.2445 12.6203C46.2445 13.2071 46.7849 13.6828 47.4516 13.6828C48.1183 13.6828 48.6587 13.2071 48.6587 12.6203C48.6587 12.0335 48.1183 11.5579 47.4516 11.5579C46.7849 11.5579 46.2445 12.0335 46.2445 12.6203Z" fill="url(#paint6_linear)" fill-opacity="0.22"/>
</g>
<path id="Pupil_2" d="M48.3904 12.6199C48.3904 12.3849 48.2967 12.1589 48.1289 11.9894C47.9612 11.8198 47.7323 11.7197 47.4902 11.71C47.2481 11.7003 47.0115 11.7818 46.8299 11.9374C46.6483 12.093 46.5358 12.3107 46.5159 12.545C46.4959 12.7792 46.5701 13.0119 46.723 13.1943C46.8758 13.3766 47.0954 13.4947 47.3358 13.5236C47.5763 13.5526 47.819 13.4903 48.0132 13.3497C48.2073 13.2091 48.3379 13.0011 48.3777 12.7693L47.4515 12.6199H48.3904Z" fill="#3A3A3A"/>
<g id="spec_5" style="mix-blend-mode:overlay">
<path d="M47.3201 13.6821L47.4543 13.6063L47.5884 13.4545V13.3027L47.3201 13.2268L47.186 13.3027L47.1016 13.3525L47.0519 13.4545V13.5304L47.186 13.6063L47.3201 13.6821Z" fill="white"/>
</g>
<g id="spec_6" style="mix-blend-mode:overlay">
<path d="M47.1839 12.2407L47.318 12.1648L47.4521 12.0131V11.8613L47.1839 11.7854L47.0498 11.8613L46.9654 11.9111L46.9157 12.0131V12.089L47.0498 12.1648L47.1839 12.2407Z" fill="white"/>
</g>
<g id="spec_7" style="mix-blend-mode:overlay">
<path d="M48.1224 12.4683L48.2565 12.3924L48.3906 12.2406V12.0888L48.1224 12.0129L47.9883 12.0888L47.9038 12.1387L47.8541 12.2406V12.3165L47.9883 12.3924L48.1224 12.4683Z" fill="white"/>
</g>
<g id="spec_8" style="mix-blend-mode:overlay">
<path d="M47.1839 12.3921L47.318 12.3162L47.4521 12.1644V12.0127L47.1839 11.9368L47.0498 12.0127L46.9654 12.0625L46.9157 12.1644V12.2403L47.0498 12.3162L47.1839 12.3921Z" fill="white"/>
</g>
<path id="Eye-gloss_2" d="M48.6603 12.6955C48.6603 12.9231 47.9717 11.9366 47.4532 11.9366C46.9347 11.9366 46.2461 12.9889 46.2461 12.6955C46.2461 12.4021 46.3802 11.633 47.4532 11.5571C48.5262 11.633 48.6603 12.4021 48.6603 12.6955Z" fill="url(#paint7_linear)"/>
</g>
<path id="r-eyebrow" fill-rule="evenodd" clip-rule="evenodd" d="M50 11.0786C49.4428 10.2144 48.2788 9.61975 46.9333 9.61975C45.6872 9.61975 44.597 10.1296 44 10.8913C44.3539 9.80188 45.5513 9.00022 46.9741 9.00022C48.4772 9.00022 49.7289 9.895 50 11.0786Z" fill="black"/>
<g id="mouth">
<path id="outer-lip" d="M46.0378 20.8454C46.2204 20.8454 44.5852 22.3663 42.568 22.3663C40.5508 22.3663 38.8242 20.8454 38.8242 20.8454C38.8242 20.8454 40.3682 19.4197 42.3854 19.4197C44.4025 19.4197 45.8552 20.8454 46.0378 20.8454Z" fill="#DB0F0F"/>
<path id="Vector 15" d="M41.0004 21.0397C41.0004 21.0397 42.5005 21.5375 44.0004 21.0398" stroke="#D66D6D" stroke-width="0.2"/>
<g id="mask-lips">
<mask id="mask0" mask-type="alpha" maskUnits="userSpaceOnUse" x="40" y="20" width="6" height="2">
<path id="flap" d="M40.209 20.9812C40.2256 20.9775 40.2432 20.9736 40.2617 20.9695C40.4124 20.9364 40.6277 20.892 40.886 20.8467C41.4022 20.7561 42.0889 20.6623 42.7734 20.6487C43.4537 20.6882 44.1486 20.7827 44.6854 20.8728C44.954 20.9179 45.1827 20.9618 45.3499 20.997C45.4234 21.0125 45.4849 21.0262 45.5325 21.0376C45.5149 21.0441 45.495 21.0511 45.4728 21.0585C45.3466 21.1004 45.1543 21.1532 44.9154 21.2056C44.4377 21.3105 43.7772 21.4134 43.0925 21.4269C42.4096 21.4404 41.6436 21.3161 41.0466 21.1877C40.7484 21.1236 40.4932 21.0586 40.3125 21.0097C40.2746 20.9995 40.24 20.9899 40.209 20.9812Z" fill="url(#paint8_linear)" stroke="#C59D7A" stroke-width="0.1"/>
</mask>
<g mask="url(#mask0)">
<path id="inner-lip" d="M45.6664 21.0747C45.7942 21.0827 44.1657 21.5791 42.7545 21.4907C41.3434 21.4022 40.0073 20.9791 40.0073 20.9791C40.0073 20.9791 41.4392 20.5858 42.8503 20.6743C44.2614 20.7628 45.5386 21.0667 45.6664 21.0747Z" fill="url(#paint9_linear)"/>
<path id="Ellipse 50" d="M44.6881 21.334C44.6881 21.4554 43.4957 21.5098 42.5879 21.5098C41.6802 21.5098 40.9443 21.4114 40.9443 21.29C40.9443 21.1687 41.6802 21.29 42.5879 21.29C43.4957 21.29 44.6881 21.2126 44.6881 21.334Z" fill="white"/>
<path id="Ellipse 49" d="M44.7639 20.9259C44.5287 20.9305 43.8322 20.985 42.7404 20.9696C40.7132 20.9411 40.8135 20.8356 40.6959 20.8379C40.5782 20.8402 41.5942 20.6298 42.686 20.6451C43.7779 20.6605 44.9992 20.9213 44.7639 20.9259Z" fill="white"/>
</g>
</g>
</g>
</g>
<g id="l-arm-hand">
<g id="l-hand">
<g id="hand">
<g id="index">
<ellipse id="joint-03" rx="0.657652" ry="0.254737" transform="matrix(0.984424 -0.191912 0.240918 0.965657 22.3787 65.4169)" fill="#DDB18B"/>
<path id="inner" d="M21.8285 65.5665C22.0061 65.6309 22.7625 65.2642 23.0369 65.3918C23.3112 65.5195 23.6569 67.8807 23.5911 67.8681C23.5252 67.8555 22.4998 68.1149 22.3827 68.0428C22.2657 67.9707 21.651 65.5021 21.8285 65.5665Z" fill="#FFC99A"/>
<ellipse id="joint-02" rx="0.657652" ry="0.254737" transform="matrix(0.984424 -0.191912 0.240918 0.965657 23.0086 67.8734)" fill="#FFC99A"/>
<path id="mid" d="M22.3541 68.0015C22.4422 67.8462 23.4294 67.6167 23.6084 67.7591C23.7874 67.9015 24.1841 70.2212 24.1411 70.2099C24.0981 70.1987 23.0129 70.4722 22.9678 70.4614C22.9227 70.4507 22.266 68.1569 22.3541 68.0015Z" fill="#FFC99A"/>
<ellipse id="joint-01" rx="0.657652" ry="0.254737" transform="matrix(0.984424 -0.191912 0.240918 0.965657 23.6199 70.3356)" fill="#FFC99A"/>
<path id="outer" d="M23.0067 70.5338C22.986 70.4596 24.0115 69.8761 24.2765 70.3666C24.5415 70.8571 24.8179 72.8869 24.6248 72.8079C24.4317 72.729 23.9205 73.0039 23.8531 72.8531C23.1828 71.353 23.2055 71.2446 23.0067 70.5338Z" fill="#FFC99A"/>
<path id="Ellipse 64" d="M24.5889 72.3868C24.6906 72.7944 24.5991 73.1587 24.3846 73.2005C24.1701 73.2423 23.9137 72.9458 23.812 72.5383C23.7104 72.1307 23.8018 71.7664 24.0164 71.7246C24.2309 71.6827 24.4872 71.9792 24.5889 72.3868Z" fill="#DDB18B"/>
</g>
<g id="middle">
<ellipse id="joint-03_2" rx="0.654367" ry="0.282609" transform="matrix(0.994181 -0.13194 0.181461 0.978622 20.6223 65.8775)" fill="#DDB18B"/>
<path id="inner_2" d="M20.067 66.0014C20.241 66.0862 21.01 65.7386 21.2777 65.9007C21.5454 66.0628 21.7885 68.6993 21.7234 68.6803C21.6584 68.6613 20.6262 68.8697 20.5127 68.7811C20.3992 68.6925 19.893 65.9167 20.067 66.0014Z" fill="#FFC99A"/>
<ellipse id="joint-02_2" rx="0.654367" ry="0.282609" transform="matrix(0.994181 -0.13194 0.181461 0.978622 21.1408 68.6431)" fill="#FFC99A"/>
<path id="mid_2" d="M20.4846 68.7301C20.5787 68.5658 21.5722 68.3933 21.7449 68.5651C21.9176 68.737 22.2197 71.3301 22.1773 71.3142C22.1349 71.2983 21.0419 71.5113 20.9974 71.4958C20.9529 71.4802 20.3905 68.8944 20.4846 68.7301Z" fill="#FFC99A"/>
<ellipse id="joint-01_2" rx="0.654367" ry="0.282609" transform="matrix(0.994181 -0.13194 0.181461 0.978622 21.6535 71.4082)" fill="#FFC99A"/>
<path id="outer_2" d="M21.0329 71.5773C21.0152 71.4938 22.0612 70.9336 22.3056 71.4967C22.5501 72.0599 22.7439 74.3232 22.5546 74.2202C22.3652 74.1172 21.8445 74.3789 21.7833 74.2069C21.1754 72.4961 21.2025 72.3783 21.0329 71.5773Z" fill="#FFC99A"/>
<path id="Ellipse 64_2" d="M22.5341 73.7556C22.6191 74.2139 22.5132 74.6085 22.2976 74.6371C22.0821 74.6658 21.8384 74.3175 21.7535 73.8592C21.6685 73.401 21.7744 73.0063 21.9899 72.9777C22.2055 72.9491 22.4492 73.2974 22.5341 73.7556Z" fill="#DDB18B"/>
</g>
<g id="pinky">
<ellipse id="joint-03_3" rx="0.653956" ry="0.2097" transform="matrix(0.99809 0.0948251 -0.0453269 0.994573 17.8952 65.4793)" fill="#DDB18B"/>
<path id="inner_3" d="M17.3293 65.4645C17.4807 65.5584 18.3053 65.4547 18.5313 65.6221C18.7574 65.7895 18.4259 67.731 18.3666 67.705C18.3073 67.679 17.2561 67.6325 17.1646 67.5473C17.073 67.462 17.1779 65.3705 17.3293 65.4645Z" fill="#FFC99A"/>
<ellipse id="joint-02_3" rx="0.653956" ry="0.2097" transform="matrix(0.99809 0.0948251 -0.0453269 0.994573 17.8043 67.566)" fill="#FFC99A"/>
<path id="mid_3" d="M17.1475 67.5031C17.2746 67.4029 18.2801 67.4684 18.4115 67.6248C18.5429 67.7813 18.2795 69.7027 18.2416 69.6832C18.2037 69.6636 17.0925 69.6083 17.0525 69.5887C17.0124 69.569 17.0205 67.6032 17.1475 67.5031Z" fill="#FFC99A"/>
<ellipse id="joint-01_3" rx="0.653956" ry="0.2097" transform="matrix(0.99809 0.0948251 -0.0453269 0.994573 17.7086 69.6519)" fill="#FFC99A"/>
<path id="outer_3" d="M17.0686 69.6547C17.0694 69.5913 18.2095 69.3881 18.3266 69.8395C18.4437 70.2909 18.1458 71.9546 17.9834 71.8445C17.821 71.7343 17.2571 71.8231 17.2345 71.6878C17.0099 70.3423 17.0617 70.2628 17.0686 69.6547Z" fill="#FFC99A"/>
<path id="Ellipse 64_3" d="M18.0648 71.506C18.049 71.8516 17.8609 72.115 17.6447 72.0945C17.4284 72.0739 17.2658 71.7772 17.2815 71.4316C17.2973 71.086 17.4854 70.8226 17.7017 70.8431C17.918 70.8637 18.0805 71.1605 18.0648 71.506Z" fill="#DDB18B"/>
</g>
<g id="ring">
<ellipse id="joint-03_4" rx="0.654783" ry="0.254642" transform="matrix(1.00154 -0.0501759 0.100036 0.990353 19.2828 66.1566)" fill="#DDB18B"/>
<path id="inner_4" d="M18.7158 66.2289C18.8812 66.3172 19.6791 66.0579 19.9308 66.2222C20.1824 66.3865 20.1811 68.7736 20.1181 68.752C20.0551 68.7304 19.0079 68.8462 18.9031 68.7587C18.7982 68.6712 18.5503 66.1407 18.7158 66.2289Z" fill="#FFC99A"/>
<ellipse id="joint-02_4" rx="0.654783" ry="0.254642" transform="matrix(1.00154 -0.0501759 0.100036 0.990353 19.5392 68.6788)" fill="#FFC99A"/>
<path id="mid_4" d="M18.8796 68.7116C18.9885 68.5704 19.9937 68.4836 20.1498 68.65C20.3059 68.8163 20.3668 71.1686 20.326 71.1514C20.2852 71.1341 19.1772 71.2505 19.1343 71.2334C19.0914 71.2164 18.7707 68.8528 18.8796 68.7116Z" fill="#FFC99A"/>
<ellipse id="joint-01_4" rx="0.654783" ry="0.254642" transform="matrix(1.00154 -0.0501759 0.100036 0.990353 19.7945 71.1998)" fill="#FFC99A"/>
<path id="outer_4" d="M19.1652 71.308C19.1553 71.2316 20.2488 70.8 20.4401 71.3231C20.6314 71.8462 20.6149 73.8945 20.4359 73.7888C20.2569 73.6832 19.7141 73.8827 19.6692 73.7238C19.2222 72.1438 19.26 72.0398 19.1652 71.308Z" fill="#FFC99A"/>
<path id="Ellipse 64_4" d="M20.4552 73.3712C20.4974 73.789 20.3554 74.1366 20.1381 74.1475C19.9208 74.1583 19.7104 73.8284 19.6682 73.4106C19.626 72.9928 19.768 72.6452 19.9853 72.6343C20.2026 72.6235 20.413 72.9533 20.4552 73.3712Z" fill="#DDB18B"/>
</g>
<g id="finger">
<path id="inner_5" d="M21.8778 62.3778L22.5659 61.1227C22.5659 61.1227 24.6865 61.5679 25.409 62.5722C26.1314 63.5765 23.9582 63.5587 23.9582 63.5587L21.8778 62.3778Z" fill="#F5C296"/>
<ellipse id="joint-02_5" rx="1.07972" ry="0.700055" transform="matrix(0.744518 -0.678935 0.802106 0.579071 21.8673 61.7915)" fill="#DDB18B"/>
<ellipse id="joint-01_5" rx="0.829866" ry="0.318958" transform="matrix(1.03172 -0.332682 0.408085 0.813282 24.7329 63.0026)" fill="#FFC99A"/>
<path id="outer_5" d="M23.9831 63.3444C24.2421 63.2038 25.5904 62.726 25.5904 62.726L26.8242 65.7921C26.8242 65.7921 26.1504 66.3572 25.685 66.2108C25.2196 66.0643 23.724 63.4849 23.9831 63.3444Z" fill="#F5C296"/>
<path id="nail" d="M26.7093 65.5567C26.9249 65.9865 26.8339 66.4206 26.506 66.5263C26.1781 66.6321 25.7375 66.3694 25.5218 65.9396C25.3062 65.5098 25.3972 65.0757 25.7251 64.9699C26.053 64.8642 26.4936 65.1269 26.7093 65.5567Z" fill="#DDB18B"/>
</g>
<path id="palm" d="M23.9922 64.1317C22.8189 66.9515 22.5834 67.6621 20.0007 66.9206C16.9323 67.1812 16.7918 67.242 16.7529 64.4742C16.0286 61.7733 17.2618 58.4719 19.9229 59.6499C22.1925 58.6448 23.9756 61.2043 23.9922 64.1317Z" fill="#FFC99A"/>
</g>
<path id="forarm" d="M22.2707 46.377C21.9288 45.9953 16.8026 45.1238 16.0253 45.431C15.2479 45.7381 16.9963 60.6486 16.9963 60.6486C16.9963 60.6486 21.3667 61.7981 22.3428 59.0612C23.3189 56.3243 22.6126 46.7587 22.2707 46.377Z" fill="url(#paint10_radial)"/>
</g>
<path id="l-elbow" d="M16.5559 47.9891C15.4995 45.917 15.4996 43.4293 17.9314 42.2211C19.9136 40.7436 24.5942 38.5657 25.4313 39.7334C26.2685 40.9011 26.4314 42.2211 20.5879 48.4499C18.8911 50.2587 17.2104 49.2727 16.5559 47.9891Z" fill="url(#paint11_radial)"/>
<path id="l-shoulder" d="M35.2946 30.9233C34.8484 32.2361 32.8719 37.7733 29.5674 35.9002C26.6489 34.9926 23.8438 30.6652 24.967 27.9456C25.4133 26.6329 29.133 24.7066 32.0514 25.6142C34.9699 26.5218 35.1498 28.9196 35.2946 30.9233Z" fill="#EFC49E"/>
<path id="l-tricepts" d="M24.6809 29.2586C26.2688 29.435 32.1651 31.9833 33.584 32.4282C35.003 32.873 23.2974 45.0201 22.7518 44.9191C22.2062 44.8182 18.2731 43.6649 17 43.4292C15.7269 43.1936 23.0929 29.0822 24.6809 29.2586Z" fill="url(#paint12_radial)"/>
<path id="r-shoulder-wrapper" d="M25.0003 43.9263L28.0002 39.9458L30.5003 38.9509C32.5 37.4583 45.0098 37.9682 39.9999 31.9854C37.5002 29.0002 37.9999 29.4977 37.9999 29.4977C37.9999 29.4977 35.6849 23.5271 29.5002 23.5273C25.5002 23.5275 19 31.4879 17 37.9558L25.0003 43.9263Z" fill="#001236"/>
</g>
<g id="r-arm-hand">
<g id="r-hand">
<g id="hand_2">
<g id="index_2">
<ellipse id="joint-03_5" rx="0.656728" ry="0.255023" transform="matrix(-0.99094 0.163987 0.114535 0.987297 68.9175 63.6109)" fill="#DDB18B"/>
<path id="inner_6" d="M69.4853 63.5592C69.3417 63.6814 68.504 63.6019 68.2921 63.8172C68.0802 64.0325 68.5885 66.3644 68.6457 66.3296C68.7029 66.2948 69.7546 66.1799 69.8389 66.0716C69.9231 65.9633 69.6288 63.4369 69.4853 63.5592Z" fill="#FFC99A"/>
<ellipse id="joint-02_6" rx="0.656728" ry="0.255023" transform="matrix(-0.99094 0.163987 0.114535 0.987297 69.1929 66.1312)" fill="#FFC99A"/>
<path id="mid_5" d="M69.8514 66.0229C69.7142 65.9081 68.7088 66.0377 68.5913 66.2335C68.4739 66.4293 68.9198 68.7401 68.9561 68.7146C68.9924 68.689 70.105 68.5665 70.1435 68.5407C70.1819 68.5149 69.9886 66.1376 69.8514 66.0229Z" fill="#FFC99A"/>
<ellipse id="joint-01_6" rx="0.656728" ry="0.255023" transform="matrix(-0.99094 0.163987 0.114535 0.987297 69.4883 68.6507)" fill="#FFC99A"/>
<path id="outer_6" d="M70.1321 68.6226C70.1253 68.5459 68.9593 68.3573 68.8839 68.9091C68.8086 69.4609 69.2651 71.4583 69.4181 71.317C69.5711 71.1756 70.1468 71.2548 70.1567 71.09C70.2559 69.4513 70.1964 69.3577 70.1321 68.6226Z" fill="#FFC99A"/>
<path id="Ellipse 64_5" d="M69.3033 70.9095C69.3517 71.3267 69.5657 71.6359 69.7814 71.6002C69.997 71.5645 70.1326 71.1974 70.0842 70.7803C70.0358 70.3631 69.8218 70.0538 69.6061 70.0895C69.3905 70.1252 69.2549 70.4923 69.3033 70.9095Z" fill="#DDB18B"/>
</g>
<g id="middle_2">
<ellipse id="joint-03_6" rx="0.65335" ry="0.282973" transform="matrix(-0.979073 0.223673 0.174689 0.97854 70.7242 63.4296)" fill="#DDB18B"/>
<path id="inner_7" d="M71.2883 63.3524C71.1552 63.4924 70.3125 63.4352 70.1189 63.6804C69.9253 63.9256 70.6268 66.4796 70.681 66.4391C70.7352 66.3986 71.7754 66.2336 71.8504 66.111C71.9254 65.9885 71.4214 63.2123 71.2883 63.3524Z" fill="#FFC99A"/>
<ellipse id="joint-02_7" rx="0.65335" ry="0.282973" transform="matrix(-0.979073 0.223673 0.174689 0.97854 71.2135 66.2009)" fill="#FFC99A"/>
<path id="mid_6" d="M71.8588 66.0533C71.7128 65.9323 70.7216 66.1174 70.6204 66.3385C70.5192 66.5597 71.15 69.0936 71.1842 69.0639C71.2183 69.0342 72.3169 68.8524 72.3531 68.8223C72.3893 68.7922 72.0048 66.1743 71.8588 66.0533Z" fill="#FFC99A"/>
<ellipse id="joint-01_7" rx="0.65335" ry="0.282973" transform="matrix(-0.979073 0.223673 0.174689 0.97854 71.7076 68.9687)" fill="#FFC99A"/>
<path id="outer_7" d="M72.3483 68.9106C72.3354 68.8262 71.1584 68.6665 71.1279 69.2792C71.0975 69.8919 71.7135 72.0791 71.8545 71.9166C71.9956 71.7541 72.5755 71.8175 72.5721 71.6351C72.5386 69.8208 72.4717 69.7199 72.3483 68.9106Z" fill="#FFC99A"/>
<path id="Ellipse 64_6" d="M71.7103 71.4743C71.7922 71.9331 72.0304 72.2658 72.2424 72.2173C72.4543 72.1689 72.5598 71.7577 72.4779 71.299C72.396 70.8402 72.1578 70.5075 71.9458 70.5559C71.7338 70.6044 71.6284 71.0155 71.7103 71.4743Z" fill="#DDB18B"/>
</g>
<g id="pinky_2">
<ellipse id="joint-03_7" rx="0.652716" ry="0.210063" transform="matrix(-0.903015 0.437887 0.392244 0.914026 73.138 62.105)" fill="#DDB18B"/>
<path id="inner_8" d="M73.6631 61.8935C73.5544 62.0343 72.7456 62.2249 72.5929 62.4606C72.4402 62.6962 73.4348 64.3987 73.4811 64.3537C73.5275 64.3086 74.4956 63.8984 74.5513 63.7866C74.607 63.6748 73.7717 61.7526 73.6631 61.8935Z" fill="#FFC99A"/>
<ellipse id="joint-02_8" rx="0.652716" ry="0.210063" transform="matrix(-0.903015 0.437887 0.392244 0.914026 73.9588 64.0281)" fill="#FFC99A"/>
<path id="mid_7" d="M74.5516 63.7395C74.3974 63.6901 73.4788 64.1023 73.4108 64.2946C73.3429 64.4869 74.2666 66.1945 74.2952 66.163C74.3239 66.1315 75.345 65.692 75.3756 65.6596C75.4062 65.6272 74.7059 63.789 74.5516 63.7395Z" fill="#FFC99A"/>
<ellipse id="joint-01_8" rx="0.652716" ry="0.210063" transform="matrix(-0.903015 0.437887 0.392244 0.914026 74.783 65.9478)" fill="#FFC99A"/>
<path id="outer_8" d="M75.3837 65.7275C75.3607 65.6684 74.2214 65.8759 74.2707 66.3395C74.3201 66.8031 75.1854 68.2572 75.2987 68.0974C75.412 67.9376 75.9714 67.824 75.9448 67.6894C75.681 66.3509 75.6045 66.2945 75.3837 65.7275Z" fill="#FFC99A"/>
<path id="Ellipse 64_7" d="M75.1034 67.8086C75.2399 68.1268 75.5089 68.3079 75.7042 68.2132C75.8995 68.1184 75.9472 67.7838 75.8107 67.4657C75.6741 67.1475 75.4051 66.9664 75.2098 67.0611C75.0145 67.1558 74.9669 67.4905 75.1034 67.8086Z" fill="#DDB18B"/>
</g>
<g id="ring_2">
<ellipse id="joint-03_8" rx="0.653657" ry="0.25502" transform="matrix(-0.95728 0.302988 0.254924 0.960948 72.0784 63.2234)" fill="#DDB18B"/>
<path id="inner_9" d="M72.635 63.0929C72.5111 63.2333 71.6725 63.2689 71.4947 63.5106C71.3169 63.7522 72.1593 65.9873 72.2108 65.9451C72.2622 65.9029 73.2837 65.646 73.351 65.5275C73.4183 65.409 72.7588 62.9526 72.635 63.0929Z" fill="#FFC99A"/>
<ellipse id="joint-02_9" rx="0.653657" ry="0.25502" transform="matrix(-0.95728 0.302988 0.254925 0.960948 72.7274 65.6748)" fill="#FFC99A"/>
<path id="mid_8" d="M73.356 65.4755C73.2043 65.3813 72.2323 65.6508 72.1448 65.861C72.0572 66.0713 72.8291 68.2954 72.8612 68.2651C72.8933 68.2347 73.972 67.957 74.0061 67.9261C74.0403 67.8952 73.5078 65.5698 73.356 65.4755Z" fill="#FFC99A"/>
<ellipse id="joint-01_9" rx="0.653657" ry="0.25502" transform="matrix(-0.95728 0.302988 0.254925 0.960948 73.3763 68.1248)" fill="#FFC99A"/>
<path id="outer_9" d="M74.0032 68.0064C73.9856 67.9315 72.8095 67.9087 72.8147 68.4654C72.8199 69.0221 73.557 70.9345 73.6874 70.7731C73.8179 70.6118 74.3965 70.6092 74.3826 70.4447C74.2445 68.8091 74.1724 68.7248 74.0032 68.0064Z" fill="#FFC99A"/>
<path id="Ellipse 64_8" d="M73.5228 70.3891C73.6305 70.7951 73.8859 71.0711 74.0932 71.0055C74.3006 70.9398 74.3814 70.5575 74.2736 70.1514C74.1659 69.7454 73.9105 69.4695 73.7032 69.5351C73.4958 69.6007 73.4151 69.9831 73.5228 70.3891Z" fill="#DDB18B"/>
</g>
<g id="finger_2">
<path id="inner_10" d="M68.3147 60.5898L67.2279 59.6545C67.2279 59.6545 65.3989 60.8114 65.0762 62.004C64.7535 63.1966 66.7825 62.4216 66.7825 62.4216L68.3147 60.5898Z" fill="#F5C296"/>
<ellipse id="joint-02_10" rx="1.08029" ry="0.699176" transform="matrix(-0.935997 -0.375852 -0.547809 0.823207 68.118 60.0372)" fill="#EAC2A0"/>
<ellipse id="joint-01_10" rx="0.829987" ry="0.318661" transform="matrix(-1.08329 0.0484198 -0.0956739 0.904875 65.8604 62.1711)" fill="#FFC99A"/>
<path id="outer_10" d="M66.6835 62.2296C66.3914 62.1884 64.9603 62.2114 64.9603 62.2114L64.8854 65.5133C64.8854 65.5133 65.7154 65.8074 66.0997 65.5079C66.4839 65.2084 66.9757 62.2709 66.6835 62.2296Z" fill="#F5C296"/>
<path id="nail_2" d="M64.9096 65.2528C64.8591 65.7306 65.0973 66.1054 65.4416 66.09C65.786 66.0746 66.1061 65.6748 66.1566 65.1971C66.2071 64.7193 65.9689 64.3445 65.6246 64.3599C65.2802 64.3753 64.9601 64.7751 64.9096 65.2528Z" fill="#DDB18B"/>
</g>
<path id="palm_2" d="M66.9532 62.9702C69.0457 65.2016 69.5167 65.785 71.6741 64.1894C74.6395 63.3628 74.7925 63.3707 73.8536 60.7651C73.5802 57.9829 71.2619 55.3215 69.1848 57.3532C66.7052 57.2038 65.9372 60.2229 66.9532 62.9702Z" fill="#FFC99A"/>
</g>
<path id="r-forarm" d="M62.309 45.7422C62.4946 45.2655 66.9883 42.6608 67.8245 42.6772C68.6607 42.6936 72.2776 57.2674 72.2776 57.2674C72.2776 57.2674 68.5898 59.8688 66.7112 57.6463C64.8326 55.4237 62.1233 46.219 62.309 45.7422Z" fill="url(#paint13_radial)"/>
<path id="r-elbow" d="M61.1002 45.2485C62.0874 48.1386 63.9346 50.9225 66.3358 47.6605C68.2387 46.5145 68.9743 43.1525 68.0041 41.6381C67.034 40.1237 63.1405 40.1537 61.2376 41.2998C59.3347 42.4458 60.13 43.7341 61.1002 45.2485Z" fill="url(#paint14_linear)"/>
</g>
<path id="r-shoulder" d="M49.6625 30.9228C50.1087 32.2356 52.0851 37.7729 55.3896 35.8997C58.3081 34.9921 61.1132 30.6647 59.99 27.9451C59.5438 26.6324 55.8241 24.7062 52.9056 25.6137C49.9871 26.5213 49.8072 28.9191 49.6625 30.9228Z" fill="#EFC49E"/>
<path id="r-tricepts" d="M60.276 29.2578C58.6881 29.4342 52.7918 31.9825 51.3728 32.4273C49.9539 32.8722 61.6594 45.0193 62.205 44.9183C62.7507 44.8173 66.3995 43.1239 67.6726 42.8883C68.9457 42.6526 61.8639 29.0813 60.276 29.2578Z" fill="#FDC799"/>
<path id="r-shoulder-wrapper_2" d="M59.5002 44.4243L56.5003 40.4438L54.0002 39.449C52.0005 37.9563 39.4907 38.4663 44.5006 32.4835C47.0003 29.4982 46.5006 29.9958 46.5006 29.9958C46.5006 29.9958 48.8156 24.0251 55.0003 24.0254C59.0003 24.0256 65.5005 31.9859 67.5005 38.4539L59.5002 44.4243Z" fill="#001236"/>
</g>
<path id="pants" d="M54.9998 61.3403H29.9998L29 61.8379C29 61.8379 23.0002 86.217 26.9998 111.591C27.7563 116.39 39.5297 116.426 39.9999 111.591C41.4999 96.1677 42.0003 73.7787 42.5003 74.7737C43.0003 75.7688 44.7096 101.143 45.2095 111.591C45.4603 116.831 58.3113 116.822 58.7095 111.591C61.2096 78.754 55.9998 64.3255 55.9998 64.3255L54.9998 61.3403Z" fill="#107960"/>
<path id="shirt" d="M27 39.9466L21.5 30.991L26.5 26.0156L34 27.0107C34 27.0107 39.3324 28.5902 43 28.5033C46.492 28.4206 50.5 27.0107 50.5 27.0107L58.5 26.0156L63.5 30.991L57 38.9515L54 47.9071L55 59.8479L54 62.3356H30L28.5 59.8479L29.5 47.9071L27 39.9466Z" fill="#001236"/>
</g>
<defs>
<linearGradient id="paint0_linear" x1="42.1883" y1="-11.782" x2="41.999" y2="67.9142" gradientUnits="userSpaceOnUse">
<stop stop-color="#FFDDBF"/>
<stop offset="1" stop-color="#E7B68C"/>
</linearGradient>
<linearGradient id="paint1_linear" x1="43.1415" y1="0" x2="43.1415" y2="47.4096" gradientUnits="userSpaceOnUse">
<stop stop-color="#DB0F0F"/>
<stop offset="0.802083" stop-color="#863C3C"/>
<stop offset="1" stop-color="#752222"/>
</linearGradient>
<radialGradient id="paint2_radial" cx="0" cy="0" r="1" gradientUnits="userSpaceOnUse" gradientTransform="translate(43.2338 14.2775) rotate(90) scale(12.3952 10.1614)">
<stop offset="0.00229517" stop-color="#EFBC90"/>
<stop offset="1" stop-color="#ECBE97"/>
</radialGradient>
<linearGradient id="paint3_linear" x1="1.92269" y1="0" x2="1.92269" y2="2.02498" gradientUnits="userSpaceOnUse">
<stop stop-color="#FFDAC2" stop-opacity="0.54"/>
<stop offset="1" stop-color="#FD9C60"/>
</linearGradient>
<linearGradient id="paint4_linear" x1="37.5484" y1="11.5579" x2="37.5484" y2="13.6828" gradientUnits="userSpaceOnUse">
<stop stop-opacity="0"/>
<stop offset="0.765625"/>
<stop offset="1"/>
</linearGradient>
<linearGradient id="paint5_linear" x1="37.6809" y1="12.4678" x2="37.6809" y2="13.5303" gradientUnits="userSpaceOnUse">
<stop stop-color="#159DD7" stop-opacity="0.46"/>
<stop offset="0.0001" stop-opacity="0.818347"/>
<stop offset="0.0002" stop-opacity="0.816101"/>
<stop offset="0.0003" stop-color="#00936F" stop-opacity="0.57724"/>
<stop offset="1" stop-color="#003A2C" stop-opacity="0"/>
</linearGradient>
<linearGradient id="paint6_linear" x1="47.4516" y1="11.5579" x2="47.4516" y2="13.6828" gradientUnits="userSpaceOnUse">
<stop stop-opacity="0"/>
<stop offset="0.765625"/>
<stop offset="1"/>
</linearGradient>
<linearGradient id="paint7_linear" x1="47.3191" y1="12.4678" x2="47.3191" y2="13.5303" gradientUnits="userSpaceOnUse">
<stop stop-color="#159DD7" stop-opacity="0.46"/>
<stop offset="0.0001" stop-opacity="0.818347"/>
<stop offset="0.0002" stop-opacity="0.816101"/>
<stop offset="0.0003" stop-color="#00936F" stop-opacity="0.57724"/>
<stop offset="1" stop-color="#003A2C" stop-opacity="0"/>
</linearGradient>
<linearGradient id="paint8_linear" x1="42.6338" y1="20.605" x2="42.6494" y2="21.3962" gradientUnits="userSpaceOnUse">
<stop stop-color="#9D0101"/>
<stop offset="1" stop-color="#6A0808"/>
</linearGradient>
<linearGradient id="paint9_linear" x1="42.7836" y1="20.6483" x2="42.7353" y2="21.4196" gradientUnits="userSpaceOnUse">
<stop stop-color="#A50505"/>
<stop offset="1" stop-color="#750202"/>
</linearGradient>
<radialGradient id="paint10_radial" cx="0" cy="0" r="1" gradientUnits="userSpaceOnUse" gradientTransform="translate(19.9705 54.1008) rotate(89.7923) scale(8.35536 4.67028)">
<stop stop-color="#F1BF94"/>
<stop offset="1" stop-color="#FFC99A"/>
</radialGradient>
<radialGradient id="paint11_radial" cx="0" cy="0" r="1" gradientUnits="userSpaceOnUse" gradientTransform="translate(18.9445 46.2952) rotate(-125.639) scale(2.60157 4.47562)">
<stop stop-color="#F1BF94"/>
<stop offset="1" stop-color="#FFC99A"/>
</radialGradient>
<radialGradient id="paint12_radial" cx="0" cy="0" r="1" gradientUnits="userSpaceOnUse" gradientTransform="translate(24.5691 37.7599) rotate(122.942) scale(8.46589 4.52867)">
<stop stop-color="#F1BF94"/>
<stop offset="1" stop-color="#FFC99A"/>
</radialGradient>
<radialGradient id="paint13_radial" cx="0" cy="0" r="1" gradientUnits="userSpaceOnUse" gradientTransform="translate(67.1849 52.1731) rotate(69.5873) scale(8.36036 4.66748)">
<stop stop-color="#F1BF94"/>
<stop offset="1" stop-color="#FFC99A"/>
</radialGradient>
<linearGradient id="paint14_linear" x1="60.6316" y1="40.7835" x2="63.9904" y2="46.3606" gradientUnits="userSpaceOnUse">
<stop stop-color="#DBAC85"/>
<stop offset="1" stop-color="#FFC99A"/>
<stop offset="1" stop-color="#DBAC85"/>
</linearGradient>
</defs>
</svg>
