<svg width="94" height="81" viewBox="0 0 94 81" fill="none" xmlns="http://www.w3.org/2000/svg">
<g id="logo3">
<g id="controller">
<path id="Vector 20" d="M29.1819 23.9034C28.7878 23.6029 28.0805 23.1554 27.5899 22.453C26.5308 20.9367 26.9341 17.4399 26.9341 17.4399C26.9341 17.4399 27.2132 15.1514 27.6755 13.6384C28.1118 12.2106 28.1414 12.4641 28.3552 11.8657C28.8243 10.5523 29.1013 10.0911 30.0572 9.1575C31.2659 7.97706 32.1991 7.78902 33.6346 7.13592C34.7296 6.63776 35.3539 6.36643 36.4818 6.06974C38.4611 5.54912 39.613 5.55568 41.5701 5.7082C43.2569 5.83965 44.1667 6.13396 45.7779 6.59922L45.8635 6.62394C48.296 7.32631 49.7278 7.73971 51.9014 9.13842C53.7508 10.3286 56.2089 12.9018 56.2089 12.9018L77.7534 39.6753L80.7588 43.7975C80.7588 43.7975 81.615 44.97 81.9657 45.8707C82.6299 47.5768 82.446 50.7882 82.446 50.7882L81.766 54.4606L79.8485 59.4622L78.3137 61.5669L76.0639 63.7308L72.4231 65.5399C71.3507 65.9639 69.1678 66.7831 68.959 66.9481C68.7501 67.1132 66.0556 67.4041 64.9099 67.7977L61.2268 67.6928L57.4534 67.0763L53.8511 65.2665L50.8286 63.0649L47.9819 60.7783L46.1297 56.8491C46.1297 56.8491 44.9949 54.6618 45.1116 52.9504C45.2285 51.2362 46.6799 48.8596 46.6799 48.8596L45.316 47.1877L35.3838 27.8974C35.3838 27.8974 34.3451 27.8408 29.1819 23.9034Z" fill="#0C2D48" stroke="white"/>
<g id="Vector 21">
<path d="M27.0809 17.7512C27.0809 17.7512 27.1051 16.5997 27.2169 15.8547C27.3465 14.9918 27.7463 13.6588 27.7463 13.6588L27.9203 12.9601C27.9203 12.9601 27.575 13.3747 27.3912 13.6658C26.4997 15.0769 25.8272 17.7452 25.8272 17.7452L24.735 22.3286C24.735 22.3286 24.5104 23.6588 24.497 24.4911C24.4718 26.0435 24.7126 26.8629 25.1429 28.2022C25.6711 29.8461 26.1982 30.6125 27.1404 31.857C28.3877 33.5044 29.2716 34.2657 30.9781 35.1442C31.5674 35.4476 32.54 35.7919 32.54 35.7919L33.5366 36.5649L43.135 54.215C43.135 54.215 43.1691 55.9526 43.0607 57.0107C42.933 58.2557 43.1387 58.9056 43.3348 60.0536C43.5677 61.4173 43.7366 62.1866 44.2464 63.3609C44.8801 64.8207 46.4309 66.5279 46.4309 66.5279L49.2146 69.4809C50.3017 70.6342 52.4126 71.8349 52.4126 71.8349C52.4126 71.8349 54.5595 73.2214 56.1016 73.7757C57.2664 74.1944 57.9325 74.4658 59.17 74.637C60.7373 74.8538 61.6068 75.2239 63.2479 74.889C64.759 74.5805 66.7541 74.0303 66.7541 74.0303L70.3878 72.4536C70.3878 72.4536 75.1705 69.7129 77.2642 67.2366C78.0068 66.3583 78.3869 65.7985 78.9875 64.765C80.1896 62.6967 80.5941 61.2995 81.2145 58.9563C81.6246 57.4075 82.0241 54.821 82.0241 54.821L82.1134 52.8537L81.3038 54.6764C80.815 55.7585 79.8108 57.9733 79.7037 58.1756C79.5966 58.3778 79.0577 59.9012 78.4265 60.8322C77.6406 61.9916 75.9977 63.2169 75.9977 63.2169L73.4477 64.4721C73.4477 64.4721 71.2979 66.0775 69.593 66.6252C68.0991 67.1052 66.9278 67.0726 65.4153 67.3082C63.1709 67.6579 61.966 67.2402 59.8288 66.9445C57.8318 66.6682 54.8117 65.4808 54.8117 65.4808C54.8117 65.4808 52.7958 64.7648 51.4352 63.207C50.0745 61.6492 48.4898 60.6671 47.2129 58.3213C46.3241 56.6886 45.4599 55.8468 45.4449 53.6825C45.4313 51.7201 46.7914 49.4958 46.8367 48.6066L35.5574 27.5358C35.5574 27.5358 34.5314 27.1562 33.8999 26.8485C32.9223 26.3721 31.503 25.392 31.503 25.392L29.871 24.2528C29.871 24.2528 28.719 23.4622 28.1838 22.6795C27.6709 21.9294 27.4199 21.4231 27.202 20.4223C26.9911 19.4529 27.0809 17.7512 27.0809 17.7512Z" fill="#FF0800"/>
<path d="M27.78 13.5187L27.7463 13.6588M27.7463 13.6588C27.7463 13.6588 27.3465 14.9918 27.2169 15.8547C27.1051 16.5997 27.0809 17.7512 27.0809 17.7512C27.0809 17.7512 26.9911 19.4529 27.202 20.4223C27.4199 21.4231 27.6709 21.9294 28.1838 22.6795C28.719 23.4622 29.871 24.2528 29.871 24.2528L31.503 25.392C31.503 25.392 32.9223 26.3721 33.8999 26.8485C34.5314 27.1562 35.5574 27.5358 35.5574 27.5358L46.8367 48.6066C46.7914 49.4958 45.4313 51.7201 45.4449 53.6825C45.4599 55.8468 46.3241 56.6886 47.2129 58.3213C48.4898 60.6671 50.0745 61.6492 51.4352 63.207C52.7958 64.7648 54.8117 65.4808 54.8117 65.4808C54.8117 65.4808 57.8318 66.6682 59.8288 66.9445C61.966 67.2402 63.1709 67.6579 65.4153 67.3082C66.9278 67.0726 68.0991 67.1052 69.593 66.6252C71.2979 66.0775 73.4477 64.4721 73.4477 64.4721L75.9977 63.2169C75.9977 63.2169 77.6406 61.9916 78.4265 60.8322C79.0577 59.9012 79.5966 58.3779 79.7037 58.1756C79.8108 57.9733 80.815 55.7585 81.3038 54.6764L82.1134 52.8537L82.0241 54.821C82.0241 54.821 81.6246 57.4075 81.2145 58.9563C80.5941 61.2995 80.1896 62.6967 78.9875 64.765C78.3869 65.7985 78.0068 66.3583 77.2642 67.2366C75.1705 69.7129 70.3878 72.4536 70.3878 72.4536L66.7541 74.0303C66.7541 74.0303 64.759 74.5805 63.2479 74.889C61.6068 75.2239 60.7373 74.8538 59.17 74.637C57.9325 74.4658 57.2664 74.1944 56.1016 73.7757C54.5595 73.2214 52.4126 71.8349 52.4126 71.8349C52.4126 71.8349 50.3017 70.6342 49.2146 69.4809C48.1275 68.3277 47.518 67.6812 46.4309 66.5279C46.4309 66.5279 44.8801 64.8208 44.2464 63.3609C43.7366 62.1866 43.5677 61.4173 43.3348 60.0536C43.1387 58.9056 42.933 58.2557 43.0607 57.0107C43.1691 55.9526 43.135 54.215 43.135 54.215L33.5366 36.5649L32.54 35.7919C32.54 35.7919 31.5674 35.4476 30.9781 35.1442C29.2716 34.2657 28.3877 33.5044 27.1404 31.857C26.1982 30.6125 25.6711 29.8461 25.1429 28.2022C24.7126 26.8629 24.4718 26.0435 24.497 24.4911C24.5104 23.6588 24.735 22.3286 24.735 22.3286L25.8272 17.7452C25.8272 17.7452 26.4997 15.0769 27.3912 13.6658C27.575 13.3747 27.9203 12.9601 27.9203 12.9601L27.7463 13.6588Z" stroke="white"/>
</g>
<path id="Vector 22" d="M38.0006 22.8686C38.5291 23.2322 38.7425 23.4354 39.2717 23.6735C39.5921 23.8176 39.7741 23.8977 40.1197 23.9696C40.6015 24.0697 40.9108 23.974 41.4111 24.005C42.14 24.0501 42.5096 24.2414 43.2543 24.2137C44.0589 24.1837 44.5391 23.9876 45.366 23.8114C45.9383 23.6894 46.3828 23.5478 46.8341 23.4756C47.2753 23.405 47.8497 23.0489 48.4902 22.6519L48.5339 22.6247C49.0582 22.2998 49.535 21.9842 49.8599 21.6744C50.1847 21.3646 50.9262 20.5053 50.9262 20.5053C50.9262 20.5053 51.3327 19.8033 51.49 19.5722C51.6473 19.3411 51.7616 18.4925 51.8186 17.8194C51.881 17.0818 51.8708 16.6643 51.7549 16.0149C51.6216 15.2683 51.444 14.9183 51.118 14.3618C50.8499 13.9042 50.6516 13.7061 50.3092 13.3642L50.3015 13.3565C49.6962 12.752 48.5521 12.1866 48.5521 12.1866C48.5521 12.1866 47.5031 11.4347 46.7476 11.1605C46.1914 10.9586 45.263 10.8227 45.263 10.8227C45.263 10.8227 43.6648 10.7442 42.6139 10.8354C42.0958 10.8804 41.2786 11.004 41.2786 11.004C41.2786 11.004 40.3271 11.2762 39.929 11.389C39.5309 11.5017 39.0293 11.6773 38.4579 12.0013C38.0553 12.2297 37.8273 12.3716 37.4385 12.6898C36.9017 13.1292 36.132 14.0372 36.132 14.0372C36.132 14.0372 35.3977 15.034 35.1485 15.7963C34.9299 16.4651 34.9512 16.8596 34.8976 17.5258C34.8518 18.0953 34.804 18.4347 34.8642 18.9566C34.966 19.8393 35.246 20.1804 35.6421 20.7793C35.9979 21.3173 36.2806 21.4974 36.7253 21.8952C37.1899 22.3108 37.4765 22.508 37.9686 22.8466L38.0006 22.8686Z" fill="#342B2B" stroke="white"/>
<path id="Vector 23" d="M42.3361 19.2977L38.4006 19.927L36.6305 16.9318L37.2723 15.4506L40.5957 15.6467C40.1608 14.9182 38.9786 13.0233 38.9786 13.0233L39.5205 11.7063C40.6177 11.5103 43.9128 14.6068 43.9128 14.6068L48.1691 14.0078L50.649 15.3445L49.918 16.4803L45.6872 17.3982L48.83 19.3181L47.9779 20.8663L43.9362 21.9654L42.3361 19.2977Z" fill="black"/>
<path id="Vector 36" d="M52.5409 38.3701C52.3918 38.3762 47.339 36.213 47.186 36.1496C47.033 36.0861 47.112 35.3294 47.3411 34.8777C47.5793 34.4082 48.2302 34.0835 48.274 34.0826C48.3178 34.0817 53.3784 35.8747 53.597 36.2899C53.7991 36.6736 53.7034 37.013 53.5248 37.4419C53.2954 37.9926 52.6601 38.3652 52.5409 38.3701Z" fill="white"/>
<path id="Vector 47" d="M48.5508 32.7196C48.4017 32.7257 43.3489 30.5625 43.1959 30.4991C43.0429 30.4356 43.1219 29.6789 43.351 29.2272C43.5892 28.7577 44.2401 28.433 44.2839 28.4321C44.3276 28.4312 49.3883 30.2242 49.6069 30.6394C49.809 31.023 49.7133 31.3625 49.5347 31.7914C49.3053 32.3421 48.67 32.7147 48.5508 32.7196Z" fill="white"/>
<path id="Vector 24" d="M42.9969 17.6702L38.8936 18.641L37.2723 15.4505L41.3416 14.5684C40.9067 13.8399 39.5451 11.7576 39.4567 11.6798C39.3683 11.602 41.5406 11.1906 42.6378 10.9946L44.6119 13.4577L48.0161 12.8651L50.6171 15.3312L46.3863 16.2491L48.7662 19.2917L44.58 20.3823L42.9969 17.6702Z" fill="#0E0F14" stroke="white"/>
<path id="Vector 27" d="M52.4212 49.4685C52.1067 50.837 52.2199 52.9323 52.3118 54.2107C52.4771 56.5114 53.2928 57.0858 54.1889 58.1498C55.0483 59.1704 55.5469 59.82 56.5419 60.613C58.2248 61.9541 59.3652 62.3286 61.4302 62.64C63.4653 62.9469 64.6323 62.7866 66.7973 62.402C67.9728 62.1932 69.8575 61.3004 69.8575 61.3004C69.8575 61.3004 71.6349 60.2187 72.8051 58.8507C74.5193 56.8465 75.389 55.2059 75.9782 52.4506C76.4851 50.08 75.8031 47.5904 75.8031 47.5904C75.8031 47.5904 75.1105 45.301 74.4028 44.1279C73.4129 42.4869 71.1487 40.9657 71.1487 40.9657C71.1487 40.9657 68.8595 39.6528 67.2173 39.3355C65.5951 39.022 64.6098 39.0602 62.8673 39.3445C61.029 39.6444 59.925 39.7081 58.1036 40.9017C56.5025 41.9511 55.4783 42.6851 54.2817 44.6158C53.242 46.2932 52.8716 47.509 52.4212 49.4685Z" fill="#342B2B" stroke="white"/>
<path id="Vector 28" d="M55.3304 52.9528C55.3304 52.9528 55.5409 52.3777 55.7193 52.0348C55.9314 51.6271 56.3504 51.0631 56.3504 51.0631C56.6947 50.7779 56.9645 50.5573 57.3598 50.4538C57.913 50.3091 58.2229 50.3372 58.7601 50.3664C59.26 50.3937 59.5887 50.4937 60.0394 50.6913C60.4535 50.873 60.6616 50.9462 60.9595 51.2784C61.3295 51.6912 61.5225 52.0183 61.6055 52.6769C61.6638 53.1401 61.6574 53.6721 61.461 54.2101C61.308 54.6291 61.2768 54.8855 60.9744 55.1903C60.6056 55.562 59.8694 55.7599 59.8694 55.7599C59.8694 55.7599 59.407 55.8331 59.0151 55.8682C58.4557 55.9183 58.0234 55.8167 57.5255 55.6103L56.378 55.1345C56.378 55.1345 55.4516 54.5961 55.4006 54.2152C55.3496 53.8343 55.3304 52.9528 55.3304 52.9528Z" fill="#FF0000"/>
<path id="Vector 32" d="M54.6674 54.682L55.3304 52.9527C55.3304 52.9527 55.3304 53.7507 55.4983 54.1529C55.7123 54.6656 56.0126 54.7701 56.412 55.0457C56.8855 55.3724 57.2199 55.4059 57.7508 55.6009C58.2065 55.7682 58.5623 55.8597 59.064 55.8371C59.508 55.817 60.0819 55.5911 60.0819 55.5911C60.0819 55.5911 60.7145 55.3596 61.0424 55.0129C61.191 54.8557 61.3086 54.617 61.3866 54.4262C61.4278 54.3145 61.4645 54.2116 61.495 54.1214C61.495 54.1214 61.4568 54.2544 61.3866 54.4262C61.0575 55.3184 60.4431 56.7687 60.4431 56.7687C60.4431 56.7687 60.1293 56.9703 59.9225 57.0667C59.4683 57.2783 59.0959 57.392 59.0959 57.392C59.0959 57.392 58.6139 57.5398 58.3054 57.5267C57.7958 57.5051 56.9135 57.2065 56.9135 57.2065C56.9135 57.2065 55.6761 56.8203 55.3092 56.2843C54.9852 55.811 54.7687 55.2208 54.6674 54.682Z" fill="#770C0C"/>
<path id="Vector 41" d="M67.4003 46.1378C67.4003 46.1378 67.6107 45.5627 67.7891 45.2198C68.0013 44.8121 68.4203 44.2482 68.4203 44.2482C68.7646 43.963 69.0344 43.7423 69.4296 43.6389C69.9829 43.4941 70.2928 43.5223 70.83 43.5515C71.3299 43.5787 71.6585 43.6787 72.1092 43.8764C72.5234 44.0581 72.7314 44.1313 73.0293 44.4635C73.3994 44.8763 73.5923 45.2034 73.6753 45.862C73.7337 46.3252 73.7272 46.8572 73.5308 47.3952C73.3779 47.8141 73.3466 48.0705 73.0442 48.3754C72.6755 48.747 71.9392 48.945 71.9392 48.945C71.9392 48.945 71.4769 49.0182 71.085 49.0533C70.5255 49.1034 70.0933 49.0018 69.5954 48.7953L68.4479 48.3195C68.4479 48.3195 67.5214 47.7812 67.4704 47.4003C67.4194 47.0194 67.4003 46.1378 67.4003 46.1378Z" fill="#FF0000"/>
<path id="Vector 42" d="M66.7373 47.8671L67.4003 46.1378C67.4003 46.1378 67.4003 46.9358 67.5682 47.338C67.7821 47.8507 68.0824 47.9552 68.4819 48.2308C68.9553 48.5574 69.2897 48.5909 69.8206 48.7859C70.2764 48.9533 70.6321 49.0448 71.1339 49.0221C71.5778 49.0021 72.1517 48.7761 72.1517 48.7761C72.1517 48.7761 72.7843 48.5447 73.1122 48.198C73.2609 48.0407 73.3784 47.8021 73.4564 47.6112C73.4976 47.4996 73.5343 47.3967 73.5648 47.3065C73.5648 47.3065 73.5266 47.4395 73.4564 47.6112C73.1273 48.5035 72.513 49.9537 72.513 49.9537C72.513 49.9537 72.1992 50.1554 71.9923 50.2518C71.5381 50.4634 71.1657 50.5771 71.1657 50.5771C71.1657 50.5771 70.6837 50.7249 70.3752 50.7118C69.8656 50.6902 68.9834 50.3916 68.9834 50.3916C68.9834 50.3916 67.7459 50.0054 67.379 49.4694C67.055 48.996 66.8386 48.4059 66.7373 47.8671Z" fill="#770C0C"/>
<path id="Vector 43" d="M64.9778 55.9254C64.9778 55.9254 65.1883 55.3503 65.3667 55.0074C65.5788 54.5997 65.9978 54.0358 65.9978 54.0358C66.3421 53.7506 66.6119 53.5299 67.0071 53.4265C67.5604 53.2817 67.8703 53.3099 68.4075 53.3391C68.9074 53.3663 69.236 53.4663 69.6867 53.664C70.1009 53.8457 70.309 53.9189 70.6068 54.2511C70.9769 54.6639 71.1698 54.991 71.2528 55.6496C71.3112 56.1128 71.3047 56.6448 71.1084 57.1828C70.9554 57.6017 70.9242 57.8581 70.6217 58.163C70.253 58.5346 69.5167 58.7326 69.5167 58.7326C69.5167 58.7326 69.0544 58.8058 68.6625 58.8409C68.103 58.891 67.6708 58.7894 67.1729 58.5829L66.0254 58.1071C66.0254 58.1071 65.0989 57.5688 65.0479 57.1879C64.9969 56.807 64.9778 55.9254 64.9778 55.9254Z" fill="#FF0000"/>
<path id="Vector 44" d="M64.3148 57.6547L64.9778 55.9254C64.9778 55.9254 64.9778 56.7234 65.1457 57.1256C65.3597 57.6383 65.6599 57.7428 66.0594 58.0184C66.5328 58.345 66.8672 58.3785 67.3981 58.5735C67.8539 58.7409 68.2097 58.8324 68.7114 58.8097C69.1553 58.7897 69.7292 58.5637 69.7292 58.5637C69.7292 58.5637 70.3619 58.3323 70.6897 57.9856C70.8384 57.8283 70.956 57.5897 71.034 57.3988C71.0751 57.2872 71.1119 57.1843 71.1423 57.094C71.1423 57.094 71.1042 57.2271 71.034 57.3988C70.7048 58.2911 70.0905 59.7413 70.0905 59.7413C70.0905 59.7413 69.7767 59.943 69.5699 60.0394C69.1156 60.251 68.7433 60.3647 68.7433 60.3647C68.7433 60.3647 68.2613 60.5125 67.9528 60.4994C67.4432 60.4778 66.5609 60.1792 66.5609 60.1792C66.5609 60.1792 65.3234 59.793 64.9566 59.257C64.6326 58.7836 64.4161 58.1935 64.3148 57.6547Z" fill="#770C0C"/>
<path id="Vector 45" d="M58.4159 43.7484C58.4159 43.7484 58.6264 43.1733 58.8048 42.8304C59.0169 42.4227 59.4359 41.8588 59.4359 41.8588C59.7802 41.5736 60.05 41.3529 60.4452 41.2495C60.9985 41.1047 61.3084 41.1328 61.8456 41.1621C62.3455 41.1893 62.6741 41.2893 63.1248 41.487C63.539 41.6686 63.7471 41.7419 64.0449 42.0741C64.415 42.4869 64.6079 42.814 64.6909 43.4726C64.7493 43.9358 64.7428 44.4678 64.5464 45.0058C64.3935 45.4247 64.3623 45.6811 64.0598 45.986C63.6911 46.3576 62.9548 46.5556 62.9548 46.5556C62.9548 46.5556 62.4925 46.6288 62.1006 46.6639C61.5411 46.714 61.1089 46.6124 60.611 46.4059L59.4635 45.9301C59.4635 45.9301 58.537 45.3917 58.486 45.0109C58.435 44.63 58.4159 43.7484 58.4159 43.7484Z" fill="#FF0000"/>
<path id="Vector 46" d="M57.7189 45.5663L58.3819 43.837C58.3819 43.837 58.3819 44.635 58.5498 45.0372C58.7637 45.5499 59.064 45.6544 59.4635 45.93C59.9369 46.2566 60.2713 46.2902 60.8022 46.4851C61.258 46.6525 61.6137 46.744 62.1155 46.7213C62.5594 46.7013 63.1333 46.4753 63.1333 46.4753C63.1333 46.4753 63.7659 46.2439 64.0938 45.8972C64.2425 45.74 64.36 45.5013 64.438 45.3105C64.4792 45.1988 64.5159 45.0959 64.5464 45.0057C64.5464 45.0057 64.5083 45.1387 64.438 45.3105C64.1089 46.2027 63.4946 47.653 63.4946 47.653C63.4946 47.653 63.1808 47.8546 62.9739 47.951C62.5197 48.1626 62.1473 48.2763 62.1473 48.2763C62.1473 48.2763 61.6653 48.4241 61.3568 48.411C60.8472 48.3894 59.965 48.0908 59.965 48.0908C59.965 48.0908 58.7275 47.7046 58.3606 47.1686C58.0366 46.6952 57.8202 46.1051 57.7189 45.5663Z" fill="#770C0C"/>
</g>
<g id="Vector 7">
<path d="M23.5966 56.3394C14.5347 55.8315 4.77614 55.9459 3.8236 56.3394C2.87105 56.733 1.3718 65.3979 1.3718 65.3979L1.3718 70L33.6932 68.797L36.2489 62.5783C36.5623 60.5567 35.61 56.6793 33.6932 56.6793C31.7764 56.6793 26.3996 56.4965 23.5966 56.3394Z" fill="white"/>
<path d="M12.868 59.2314L10.1751 57.9129L8.42266 59.2314C8.92133 59.4883 9.96997 60.0144 10.1751 60.0631C10.3803 60.1117 12.0559 60.6378 12.868 60.8947L10.5171 61.4221L8.0807 60.5093M14.3213 61.4221L14.3213 59.2314M16.0738 57.6695L16.0738 61.3207M17.1851 60.1848C17.4928 60.1685 19.536 60.2456 20.5191 60.2862L18.1682 59.0894L16.9714 60.5093L17.869 61.6452L20.5191 61.6452M21.9296 61.6452C21.9296 61.6128 21.6732 60.0225 21.5449 59.2314L21.7159 59.8399L23.5966 59.0894L25.0927 59.7791L24.4515 61.4221M25.9048 59.7182C25.9732 59.7182 27.8995 59.7047 28.8541 59.6979M26.8879 58.4606L26.7169 61.2598L27.9992 61.2598M11.7139 63.4303C11.7139 63.3654 10.6026 62.8353 10.0469 62.5783L8.25168 63.8765L8.25168 65.7224L10.0469 67.2437L12.0559 65.8238M20.5191 62.8623L20.5191 65.2559M20.5191 65.2559L20.5191 66.6758L17.6125 66.6758L17.869 64.9922L20.5191 65.2559ZM21.7244 63.8333L21.7244 66.7005M22.5256 66.6667L22.5256 63.5L22.6859 64.1667L24.1282 63.5L25.4103 63.8333L25.0897 66.5M25.9048 67.6667L29.0961 66.7366L30.0577 64.2822L27.6538 63.1667L26.532 65.1667L29.0961 66.1667M3.8236 56.3394C4.77614 55.9459 14.5347 55.8315 23.5966 56.3394C26.3996 56.4965 31.7764 56.6793 33.6932 56.6793C35.61 56.6793 36.5623 60.5567 36.2489 62.5783L33.6932 68.797L1.3718 70L1.3718 65.3979C1.3718 65.3979 2.87105 56.733 3.8236 56.3394ZM13.4237 64.9922C13.492 64.9273 14.2215 64.7285 14.706 64.2822L16.0738 65.2559L16.0738 66.7366L13.6801 66.6758L13.4237 64.9922Z" stroke="#393939"/>
</g>
</g>
</svg>
