<svg width="89" height="141" viewBox="0 0 89 141" fill="none" xmlns="http://www.w3.org/2000/svg">
  <g id="rocky">
    <ellipse id="floor" cx="44.5" cy="118.5" rx="44.5" ry="22.5" fill="#4D4848" />
    <g id="l-leg">
      <g id="l-thigh">
        <path id="l-quad-joint" d="M42.9991 80.3064C42.9991 83.0049 39.4612 81.7722 36.0685 81.7722C30.2406 82.7495 32.4458 74.4431 32.4458 74.4431C32.4458 74.4431 32.6758 72 36.0685 72C39.4612 72 42.9991 77.6079 42.9991 80.3064Z" fill="#DDB18B" />
        <path id="l-quads" d="M33.5118 76.1318C35.001 75.3125 39.0485 76.5681 41.217 81.344C44.4786 88.5274 40.6145 100.373 40.6145 100.373L31.4081 100.545C31.4081 100.545 26.9948 79.7172 33.5118 76.1318Z" fill="#E8B890" />
      </g>
      <g id="leg">
        <path id="l-caft" d="M30.8641 102.748C32.7727 97.6497 40.5589 97.5743 40.9452 103.113C41.5713 112.09 40.4877 115.32 39.0981 125.014C38.3049 130.547 30.6773 131.484 29.6384 126.006C27.3041 113.697 27.3031 112.261 30.8641 102.748Z" fill="#E8B890" />
        <ellipse id="l-knee" cx="36.1801" cy="101.262" rx="5.11464" ry="2.33378" fill="#DDB18B" />
        <path id="l-shoe" d="M41.5 128.032C41.5 133.5 42.3245 134.5 35.3245 134.5C28.3245 134.5 28.8247 134.532 28.3245 128.032C26.8247 124.532 31.7346 123.032 35.3245 123.032C38.9143 123.032 41.6755 123 41.5 128.032Z" fill="black" />
      </g>
    </g>
    <g id="r-leg">
      <g id="quads">
        <path id="Ellipse 55" d="M44 80.3064C44 83.0049 47.5379 81.7722 50.9306 81.7722C56.7584 82.7495 54.5532 74.4431 54.5532 74.4431C54.5532 74.4431 54.3232 72 50.9306 72C47.5379 72 44 77.6079 44 80.3064Z" fill="#DDB18B" />
        <path id="Rectangle 81" d="M53.4872 76.1323C51.998 75.3129 47.9506 76.5686 45.7821 81.3444C42.5205 88.5278 46.3845 100.373 46.3845 100.373L55.5909 100.546C55.5909 100.546 60.0042 79.7177 53.4872 76.1323Z" fill="#E8B890" />
      </g>
      <g id="leg_2">
        <path id="Rectangle 83" d="M56.1354 102.749C54.2268 97.6504 46.4406 97.575 46.0543 103.114C45.4283 112.09 46.5119 115.321 47.9015 125.014C48.6946 130.547 56.3222 131.485 57.3612 126.007C59.6955 113.698 59.6964 112.262 56.1354 102.749Z" fill="#E8B890" />
        <ellipse id="Ellipse 57" rx="5.11462" ry="2.33378" transform="matrix(-1 0 0 1 50.82 101.263)" fill="#DDB18B" />
        <path id="r-shoe" d="M59.4531 129C59.4531 134.468 60.2776 135.468 53.2776 135.468C46.2776 135.468 46.7778 135.5 46.2776 129C44.7778 125.5 49.6878 124 53.2776 124C56.8675 124 59.6286 123.968 59.4531 129Z" fill="black" />
      </g>
    </g>
    <g id="face">
      <path id="neck" d="M37.9906 30.4706C37.9906 26.2603 49.3609 25.444 49.3609 30.4706C49.3609 35.4972 50.2516 42.3189 50.2516 42.3189L43.8482 41.4213L35.9995 42.3189C35.9995 42.3189 37.9906 34.6809 37.9906 30.4706Z" fill="#ECBE97" />
      <g id="hears">
        <path id="Vector 13" d="M53.0292 20.3458C51.3938 21.1353 53.3346 22.7541 52.5438 24.1707C52.6626 24.749 53.4247 28.3684 53.6555 27.2175C54.0756 25.1229 53.7162 27.036 54.0313 25.0311C54.3354 23.0958 53.5302 23.9899 54.4071 21.1787C54.69 20.2716 54.5097 19.631 53.0292 20.3458Z" fill="#F0BF96" />
        <path id="Vector 14" d="M33.882 20.0971C35.6286 20.5523 33.9563 22.4927 34.9631 23.7172C34.9358 24.301 34.7467 27.9589 34.3373 26.8858C33.5923 24.9327 34.2487 26.7212 33.6218 24.8352C33.0168 23.0147 33.9559 23.7293 32.6453 21.1676C32.2223 20.3411 32.3009 19.685 33.882 20.0971Z" fill="#F0BF96" />
      </g>
      <path id="surface" d="M53.074 21.9406C51.2671 31.5826 49.3398 34.3129 43.6782 36.904C36.9325 34.1279 35.2461 30.5606 34.0415 21.6798C34.0415 6.70928 34.0415 3.56442 43.977 3.56445C54.8699 3.56449 51.6285 7.60443 53.074 21.9406Z" fill="url(#paint0_radial)" />
      <ellipse id="nose" rx="1.92269" ry="1.0175" transform="matrix(0.999917 0.0128636 -0.0271374 0.999632 43.7006 27.2113)" fill="url(#paint1_linear)" />
      <path id="l-eyebrow" fill-rule="evenodd" clip-rule="evenodd" d="M35.923 19.8032C36.2868 18.9937 36.9992 18.4044 38.0492 18.5326C38.7222 18.5326 39.4589 18.8344 39.9844 19.3354C39.634 18.472 38.8887 17.8761 38.0259 17.8761C37.0146 17.8761 36.1648 18.6948 35.923 19.8032Z" fill="black" />
      <g id="r-eye">
        <path id="r-eye-ball" d="M46.4695 23.8494C46.349 25.1691 47.5481 24.9287 48.8787 24.9287C50.2092 24.9287 50.6855 23.5638 50.6855 22.3976C50.3242 21.6058 50.2037 20.7056 48.8787 20.7056C46.7104 20.7056 46.4695 22.6832 46.4695 23.8494Z" fill="white" />
        <path id="Eye-outer-rim" d="M47.4346 22.7921C47.4346 23.8854 47.9739 24.7717 48.6392 24.7717C49.3044 24.7717 49.8438 23.8854 49.8438 22.7921C49.8438 21.6988 49.3044 20.8125 48.6392 20.8125C47.9739 20.8125 47.4346 21.6988 47.4346 22.7921Z" fill="#107960" />
        <g id="Eye-inner-rim">
          <path d="M47.5544 22.8169C47.5544 23.8373 48.0398 24.6645 48.6385 24.6645C49.2373 24.6645 49.7227 23.8373 49.7227 22.8169C49.7227 21.7965 49.2373 20.9692 48.6385 20.9692C48.0398 20.9692 47.5544 21.7965 47.5544 22.8169Z" fill="#42B39E" />
          <path d="M47.5544 22.8169C47.5544 23.8373 48.0398 24.6645 48.6385 24.6645C49.2373 24.6645 49.7227 23.8373 49.7227 22.8169C49.7227 21.7965 49.2373 20.9692 48.6385 20.9692C48.0398 20.9692 47.5544 21.7965 47.5544 22.8169Z" fill="url(#paint2_linear)" fill-opacity="0.22" />
        </g>
        <path id="Pupil" d="M47.7965 22.8171C47.7965 22.4084 47.8806 22.0155 48.0313 21.7205C48.182 21.4256 48.3875 21.2516 48.605 21.2347C48.8224 21.2179 49.0349 21.3596 49.198 21.6302C49.3611 21.9009 49.4621 22.2794 49.4801 22.6868C49.498 23.0941 49.4313 23.4987 49.2941 23.8159C49.1568 24.1331 48.9596 24.3383 48.7436 24.3887C48.5277 24.4391 48.3097 24.3307 48.1353 24.0862C47.9609 23.8417 47.8436 23.48 47.8079 23.0768L48.6397 22.8171H47.7965Z" fill="#3A3A3A" />
        <g id="spec" style="mix-blend-mode:overlay">
          <path d="M48.5188 24.6639L48.6393 24.5319L48.7598 24.268V24.004L48.5188 23.8721L48.3984 24.004L48.3226 24.0907L48.2779 24.268V24.4L48.3984 24.5319L48.5188 24.6639Z" fill="white" />
        </g>
        <g id="spec_2" style="mix-blend-mode:overlay">
          <path d="M48.3987 22.1571L48.5192 22.0251L48.6396 21.7612V21.4972L48.3987 21.3652L48.2783 21.4972L48.2024 21.5839L48.1578 21.7612V21.8931L48.2783 22.0251L48.3987 22.1571Z" fill="white" />
        </g>
        <g id="spec_3" style="mix-blend-mode:overlay">
          <path d="M49.242 22.5531L49.3625 22.4211L49.4829 22.1572V21.8932L49.242 21.7612L49.1215 21.8932L49.0457 21.9799L49.0011 22.1572V22.2891L49.1215 22.4211L49.242 22.5531Z" fill="white" />
        </g>
        <g id="spec_4" style="mix-blend-mode:overlay">
          <path d="M48.3987 22.4208L48.5192 22.2888L48.6396 22.0248V21.7609L48.3987 21.6289L48.2783 21.7609L48.2024 21.8476L48.1578 22.0248V22.1568L48.2783 22.2888L48.3987 22.4208Z" fill="white" />
        </g>
        <path id="Eye-gloss" d="M49.7215 22.9489C49.7215 23.3448 49.103 21.6291 48.6374 21.6291C48.1717 21.6291 47.5532 23.4591 47.5532 22.9489C47.5532 22.4386 47.6737 21.1012 48.6374 20.9692C49.601 21.1012 49.7215 22.4386 49.7215 22.9489Z" fill="url(#paint3_linear)" />
      </g>
      <g id="l-eye">
        <path id="Eyeball" d="M40.3743 23.8567C40.4947 25.1693 39.2956 24.9302 37.9651 24.9302C36.6345 24.9302 36.1582 23.5727 36.1582 22.4128C36.5196 21.6253 36.64 20.73 37.9651 20.73C40.1333 20.73 40.3743 22.6968 40.3743 23.8567Z" fill="white" />
        <path id="Eye-outer-rim_2" d="M39.4102 22.8053C39.4102 23.8927 38.8708 24.7742 38.2056 24.7742C37.5403 24.7742 37.001 23.8927 37.001 22.8053C37.001 21.7179 37.5403 20.8364 38.2056 20.8364C38.8708 20.8364 39.4102 21.7179 39.4102 22.8053Z" fill="#107960" />
        <g id="Eye-inner-rim_2">
          <path d="M39.2908 22.8303C39.2908 23.8452 38.8054 24.6679 38.2067 24.6679C37.6079 24.6679 37.1226 23.8452 37.1226 22.8303C37.1226 21.8154 37.6079 20.9927 38.2067 20.9927C38.8054 20.9927 39.2908 21.8154 39.2908 22.8303Z" fill="#42B39E" />
          <path d="M39.2908 22.8303C39.2908 23.8452 38.8054 24.6679 38.2067 24.6679C37.6079 24.6679 37.1226 23.8452 37.1226 22.8303C37.1226 21.8154 37.6079 20.9927 38.2067 20.9927C38.8054 20.9927 39.2908 21.8154 39.2908 22.8303Z" fill="url(#paint4_linear)" fill-opacity="0.22" />
        </g>
        <path id="Pupil_2" d="M39.0497 22.83C39.0497 22.4235 38.9656 22.0327 38.8149 21.7394C38.6642 21.4461 38.4587 21.273 38.2412 21.2562C38.0238 21.2395 37.8113 21.3804 37.6482 21.6496C37.4851 21.9187 37.384 22.2952 37.3661 22.7004C37.3482 23.1055 37.4149 23.5079 37.5521 23.8234C37.6894 24.1388 37.8866 24.343 38.1026 24.3931C38.3185 24.4432 38.5365 24.3354 38.7109 24.0922C38.8853 23.849 39.0026 23.4893 39.0383 23.0883L38.2065 22.83H39.0497Z" fill="#3A3A3A" />
        <g id="spec_5" style="mix-blend-mode:overlay">
          <path d="M38.3249 24.6669L38.2044 24.5357L38.084 24.2732V24.0107L38.3249 23.8794L38.4454 24.0107L38.5212 24.0969L38.5658 24.2732V24.4044L38.4454 24.5357L38.3249 24.6669Z" fill="white" />
        </g>
        <g id="spec_6" style="mix-blend-mode:overlay">
          <path d="M38.447 22.1738L38.3265 22.0425L38.2061 21.78V21.5175L38.447 21.3862L38.5674 21.5175L38.6433 21.6037L38.6879 21.78V21.9113L38.5674 22.0425L38.447 22.1738Z" fill="white" />
        </g>
        <g id="spec_7" style="mix-blend-mode:overlay">
          <path d="M37.6042 22.5673L37.4837 22.4361L37.3633 22.1736V21.911L37.6042 21.7798L37.7247 21.911L37.8005 21.9973L37.8451 22.1736V22.3048L37.7247 22.4361L37.6042 22.5673Z" fill="white" />
        </g>
        <g id="spec_8" style="mix-blend-mode:overlay">
          <path d="M38.447 22.436L38.3265 22.3047L38.2061 22.0422V21.7797L38.447 21.6484L38.5674 21.7797L38.6433 21.8659L38.6879 22.0422V22.1735L38.5674 22.3047L38.447 22.436Z" fill="white" />
        </g>
        <path id="Eye-gloss_2" d="M37.1213 22.9611C37.1213 23.3548 37.7397 21.6485 38.2054 21.6485C38.6711 21.6485 39.2896 23.4685 39.2896 22.9611C39.2896 22.4536 39.1691 21.1234 38.2054 20.9922C37.2418 21.1234 37.1213 22.4536 37.1213 22.9611Z" fill="url(#paint5_linear)" />
      </g>
      <path id="r-eyebrow" fill-rule="evenodd" clip-rule="evenodd" d="M50.8571 19.6016C50.464 18.7338 49.6437 18.137 48.6955 18.137C47.8164 18.137 47.0472 18.6501 46.6265 19.4166C46.8754 18.3207 47.7201 17.5141 48.7239 17.5141C49.7833 17.5141 50.6656 18.4127 50.8571 19.6016Z" fill="black" />
      <g id="mouth">
        <path id="outer-lip" d="M46.9833 31.3409C46.9549 31.3788 46.9011 31.4356 46.8229 31.5061C46.6664 31.647 46.4187 31.8361 46.1021 32.0257C45.4686 32.405 44.5644 32.7828 43.568 32.7828C42.5714 32.7828 41.6441 32.405 40.964 32.0249C40.6244 31.8351 40.3473 31.6453 40.1553 31.503C40.0593 31.4319 39.9846 31.3727 39.934 31.3314C39.9212 31.321 39.91 31.3117 39.9004 31.3036C39.9082 31.2969 39.917 31.2893 39.9269 31.281C39.9724 31.2423 40.0399 31.1869 40.1273 31.1203C40.3021 30.9871 40.5561 30.8094 40.8728 30.6316C41.5066 30.2758 42.3883 29.9216 43.3854 29.9216C44.3822 29.9216 45.241 30.2757 45.8751 30.6316C46.192 30.8095 46.4521 30.9875 46.6452 31.1216C46.6596 31.1316 46.6736 31.1413 46.6872 31.1508C46.765 31.2049 46.8313 31.2511 46.8842 31.2849C46.9153 31.3049 46.943 31.3214 46.9666 31.3331C46.972 31.3358 46.9775 31.3384 46.9833 31.3409Z" fill="#DDB18B" stroke="#C59D7A" stroke-width="0.1" />
        <path id="Vector 15" d="M42.0004 31.5C42.0004 31.5 43.5005 32.0002 45.0004 31.5001" stroke="#D66D6D" stroke-width="0.2" />
        <g id="mask-lips">
          <mask id="mask0" mask-type="alpha" maskUnits="userSpaceOnUse" x="40" y="30" width="7" height="3">
            <path id="flap" d="M40.8379 31.3235C40.8772 31.3034 40.9309 31.2765 40.9972 31.2449C41.1475 31.1731 41.3622 31.0767 41.6197 30.9786C42.1343 30.7823 42.8171 30.5799 43.4967 30.5501C44.1737 30.6357 44.8659 30.8404 45.4012 31.0357C45.6693 31.1334 45.8975 31.2286 46.0642 31.3049C46.1476 31.343 46.2152 31.3763 46.2645 31.4027C46.2892 31.4159 46.309 31.4271 46.3236 31.4363C46.3255 31.4374 46.3273 31.4386 46.329 31.4396C46.3265 31.4428 46.3235 31.4464 46.3198 31.4505C46.2946 31.4784 46.2504 31.5165 46.1874 31.562C46.0622 31.6524 45.8709 31.7665 45.633 31.88C45.157 32.1071 44.5 32.3295 43.8201 32.3586C43.1439 32.3876 42.3823 32.1196 41.7855 31.8408C41.4881 31.7017 41.2333 31.5608 41.0529 31.4547C40.9628 31.4017 40.8913 31.3573 40.8424 31.3263C40.8409 31.3254 40.8394 31.3244 40.8379 31.3235Z" fill="url(#paint6_linear)" stroke="#C59D7A" stroke-width="0.1" />
          </mask>
          <g mask="url(#mask0)">
            <path id="inner-lip" d="M46.3136 31.5616C46.2801 31.589 46.2294 31.6253 46.1631 31.6678C46.0086 31.7669 45.7753 31.8962 45.4938 32.0191C44.9294 32.2656 44.1795 32.4832 43.4873 32.3889C42.7894 32.2938 42.1081 32.0184 41.6001 31.7657C41.3463 31.6394 41.1364 31.5192 40.9901 31.4305C40.9223 31.3895 40.8682 31.3552 40.8297 31.3303C40.8707 31.3079 40.929 31.2771 41.002 31.2411C41.157 31.1646 41.3783 31.0646 41.6433 30.9706C42.1742 30.7822 42.8763 30.6193 43.5707 30.7138C44.2711 30.8093 44.9393 31.0211 45.4492 31.2118C45.704 31.3071 45.919 31.397 46.0786 31.4643C46.0905 31.4693 46.1021 31.4742 46.1134 31.479C46.1777 31.5061 46.2321 31.5291 46.275 31.5464C46.289 31.552 46.3019 31.5571 46.3136 31.5616Z" fill="url(#paint7_linear)" stroke="#C59D7A" stroke-width="0.1" />
            <path id="Ellipse 50" d="M45.3647 32.098C45.3647 32.1102 45.3581 32.1282 45.3297 32.1517C45.3014 32.1752 45.257 32.1991 45.1963 32.2223C45.0753 32.2686 44.9021 32.3075 44.6975 32.3386C44.2891 32.4006 43.7667 32.4301 43.3145 32.4301C42.864 32.4301 42.458 32.377 42.1662 32.2922C42.02 32.2497 41.9054 32.2001 41.8284 32.1472C41.7498 32.0932 41.7209 32.0435 41.7209 32.0025C41.7209 31.9829 41.7269 31.9729 41.7361 31.9654C41.7478 31.9557 41.7696 31.9463 41.8074 31.9407C41.8832 31.9294 41.9972 31.9367 42.1468 31.9533C42.2081 31.9601 42.2747 31.9683 42.3459 31.9772C42.6163 32.0107 42.9523 32.0525 43.3145 32.0525C43.5428 32.0525 43.7886 32.0419 44.028 32.0303C44.0688 32.0283 44.1094 32.0263 44.1497 32.0243C44.3464 32.0145 44.536 32.0051 44.7061 32.0013C44.9117 31.9968 45.0849 32.0007 45.2058 32.0211C45.2667 32.0314 45.3095 32.0452 45.3359 32.0611C45.3608 32.076 45.3647 32.0882 45.3647 32.098Z" fill="white" stroke="#C59D7A" stroke-width="0.1" />
            <path id="Ellipse 49" d="M45.3943 31.1587C45.3985 31.1611 45.4026 31.1634 45.4065 31.1657C45.3584 31.1698 45.3009 31.1758 45.234 31.1828C44.8888 31.2186 44.2949 31.2803 43.4683 31.255C42.4557 31.224 41.9786 31.1513 41.7413 31.0884C41.6237 31.0572 41.5658 31.0286 41.5308 31.009C41.5295 31.0084 41.5283 31.0076 41.527 31.0069C41.5343 31.0036 41.542 31.0002 41.5503 30.9966C41.6438 30.9559 41.7919 30.9009 41.9781 30.8466C42.3507 30.738 42.8722 30.6333 43.4112 30.6498C43.9501 30.6663 44.523 30.8147 44.9325 30.9608C45.1374 31.0338 45.2992 31.1056 45.3943 31.1587Z" fill="white" stroke="#C59D7A" stroke-width="0.1" />
          </g>
        </g>
      </g>
      <path id="hair" d="M32.034 15.1703L33.4191 22.9016L33.7969 15.1703L34.4027 20.4434L35.2589 14.1148L36.2198 14.4106L38.6629 16.964V12.6591L40.4545 16.0671L41.3077 9.8204C41.3077 9.8204 42.2586 24.8763 43 13.5C43.4029 7.31664 45.3721 22.9157 46.3982 10.6854L47.4858 14.4106L48.6958 11.9416L50.6666 13.7353L53.7123 22.9016C53.7123 22.9016 57.1625 12.3123 53.4072 7.29506C51.0319 4.12159 48.3456 0.999963 42.7468 1C38.6281 1.00003 35.378 2.59836 33.7969 6.54171C31.6019 12.0164 32.034 15.1703 32.034 15.1703Z" fill="black" stroke="black" />
    </g>
    <path id="chest" d="M32.2124 36.541C39.875 38.5041 48.9057 38.4238 54.0737 36.541C63.4683 33.1181 52.7802 46.0796 54.8521 71.4134C55.3515 77.5196 44.3412 83.4413 42.7378 83.4413C41.1345 83.4413 30.0939 77.7289 30.6236 71.4134C32.673 46.9772 22.6367 34.0877 32.2124 36.541Z" fill="url(#paint8_linear)" />
    <path id="pants" d="M55.9998 72H30.9998L30 72.5C30 72.5 24.0001 97 27.9998 122.5C28.7562 127.323 40.5296 127.359 40.9999 122.5C42.4999 107 43.0003 84.5 43.5003 85.5C44.0003 86.5 45.7096 112 46.2095 122.5C46.4603 127.766 59.3112 127.757 59.7095 122.5C62.2096 89.5 56.9998 75 56.9998 75L55.9998 72Z" fill="#D6D6D6" />
    <g id="l-arm-hand">
      <g id="l-hand">
        <g id="hand">
          <g id="index">
            <ellipse id="joint-03" rx="0.658332" ry="0.255668" transform="matrix(0.999167 -0.0766529 0.125629 0.988308 21.707 75.5089)" fill="#DDB18B" />
            <path id="inner" d="M21.1432 75.5941C21.3119 75.6791 22.1062 75.4013 22.3637 75.5607C22.6212 75.7201 22.6878 78.1172 22.6239 78.0969C22.5599 78.0766 21.5111 78.2159 21.4033 78.1303C21.2955 78.0448 20.9744 75.5091 21.1432 75.5941Z" fill="#FFC99A" />
            <ellipse id="joint-02" rx="0.658331" ry="0.255668" transform="matrix(0.999167 -0.0766529 0.125629 0.988308 22.0449 78.0342)" fill="#FFC99A" />
            <path id="mid" d="M21.3794 78.0858C21.4851 77.941 22.4924 77.8272 22.6535 77.9901C22.8146 78.1531 22.9367 80.5146 22.8953 80.4984C22.8539 80.4822 21.7441 80.6286 21.7006 80.6126C21.6571 80.5966 21.2737 78.2306 21.3794 78.0858Z" fill="#FFC99A" />
            <ellipse id="joint-01" rx="0.658331" ry="0.255668" transform="matrix(0.999167 -0.0766529 0.125629 0.988308 22.3632 80.5631)" fill="#FFC99A" />
            <path id="outer" d="M21.7311 80.6895C21.7191 80.613 22.8061 80.1503 23.0118 80.6707C23.2175 81.1912 23.2541 83.2494 23.0715 83.148C22.889 83.0467 22.3491 83.2615 22.2998 83.1031C21.8099 81.5277 21.8452 81.4222 21.7311 80.6895Z" fill="#FFC99A" />
            <path id="Ellipse 64" d="M23.0854 82.7234C23.1386 83.142 23.0051 83.495 22.7871 83.5117C22.5691 83.5284 22.3493 83.2026 22.2961 82.7839C22.2428 82.3653 22.3764 82.0123 22.5944 81.9956C22.8123 81.9789 23.0322 82.3047 23.0854 82.7234Z" fill="#DDB18B" />
          </g>
          <g id="middle">
            <ellipse id="joint-03_2" rx="0.654942" ry="0.283691" transform="matrix(1.00198 -0.0157219 0.0652683 0.99412 19.9091 75.7642)" fill="#DDB18B" />
            <path id="inner_2" d="M19.3425 75.8232C19.5054 75.9281 20.3099 75.6708 20.5568 75.8638C20.8037 76.0568 20.7361 78.7167 20.6737 78.6902C20.6113 78.6636 19.5617 78.7512 19.4594 78.6495C19.3571 78.5479 19.1796 75.7183 19.3425 75.8232Z" fill="#FFC99A" />
            <ellipse id="joint-02_2" rx="0.654942" ry="0.283691" transform="matrix(1.00198 -0.0157219 0.0652683 0.99412 20.0996 78.585)" fill="#FFC99A" />
            <path id="mid_2" d="M19.438 78.5951C19.5507 78.4421 20.5576 78.3858 20.709 78.5774C20.8604 78.769 20.8565 81.3925 20.8163 81.3717C20.776 81.3508 19.6655 81.436 19.6231 81.4153C19.5807 81.3946 19.3253 78.748 19.438 78.5951Z" fill="#FFC99A" />
            <ellipse id="joint-01_2" rx="0.654942" ry="0.283691" transform="matrix(1.00198 -0.0157219 0.0652683 0.99412 20.2846 81.4043)" fill="#FFC99A" />
            <path id="outer_2" d="M19.649 81.5009C19.6412 81.4154 20.7457 80.9783 20.9225 81.5688C21.0993 82.1594 21.0265 84.441 20.8505 84.3162C20.6745 84.1913 20.1266 84.3917 20.0861 84.213C19.6829 82.4345 19.7235 82.3201 19.649 81.5009Z" fill="#FFC99A" />
            <path id="Ellipse 64_2" d="M20.8841 83.8501C20.9147 84.3173 20.7633 84.6989 20.5459 84.7023C20.3284 84.7057 20.1272 84.3297 20.0966 83.8624C20.0659 83.3952 20.2173 83.0136 20.4348 83.0102C20.6522 83.0068 20.8534 83.3828 20.8841 83.8501Z" fill="#DDB18B" />
          </g>
          <g id="pinky">
            <ellipse id="joint-03_3" rx="0.654299" ry="0.210599" transform="matrix(0.97965 0.210944 -0.160902 0.983181 17.2467 75.0482)" fill="#DDB18B" />
            <path id="inner_3" d="M16.6869 74.9674C16.8262 75.0788 17.6573 75.0715 17.8622 75.265C18.0671 75.4584 17.5103 77.3575 17.4545 77.3246C17.3986 77.2917 16.36 77.1228 16.2791 77.027C16.1982 76.9313 16.5475 74.8559 16.6869 74.9674Z" fill="#FFC99A" />
            <ellipse id="joint-02_3" rx="0.654299" ry="0.210599" transform="matrix(0.97965 0.210944 -0.160902 0.983181 16.9118 77.1207)" fill="#FFC99A" />
            <path id="mid_3" d="M16.2671 76.9811C16.405 76.896 17.396 77.0786 17.5081 77.25C17.6203 77.4215 17.1336 79.3085 17.0982 79.2846C17.0628 79.2607 15.9657 79.0759 15.9282 79.0516C15.8907 79.0273 16.1292 77.0662 16.2671 76.9811Z" fill="#FFC99A" />
            <ellipse id="joint-01_3" rx="0.654299" ry="0.210599" transform="matrix(0.97965 0.210944 -0.160902 0.983181 16.5729 79.1913)" fill="#FFC99A" />
            <path id="outer_3" d="M15.9365 79.1196C15.9447 79.0564 17.1008 78.9866 17.1642 79.4508C17.2276 79.9149 16.7367 81.5407 16.5884 81.4119C16.44 81.283 15.8695 81.3058 15.8629 81.1682C15.7976 79.799 15.8583 79.7257 15.9365 79.1196Z" fill="#FFC99A" />
            <path id="Ellipse 64_3" d="M16.709 81.0837C16.6529 81.4267 16.4352 81.6678 16.2228 81.622C16.0104 81.5763 15.8837 81.2611 15.9398 80.918C15.996 80.575 16.2137 80.334 16.4261 80.3797C16.6385 80.4254 16.7652 80.7406 16.709 81.0837Z" fill="#DDB18B" />
          </g>
          <g id="ring">
            <ellipse id="joint-03_4" rx="0.655246" ry="0.255668" transform="matrix(0.999882 0.0666844 -0.0166596 0.996121 18.5445 75.8863)" fill="#DDB18B" />
            <path id="inner_4" d="M17.9731 75.8923C18.1271 75.9997 18.9499 75.834 19.1806 76.0273C19.4112 76.2206 19.1302 78.6031 19.0701 78.5742C19.01 78.5453 17.9564 78.5387 17.8626 78.4392C17.7687 78.3396 17.819 75.785 17.9731 75.8923Z" fill="#FFC99A" />
            <ellipse id="joint-02_4" rx="0.655246" ry="0.255668" transform="matrix(0.999882 0.0666844 -0.0166596 0.996121 18.5034 78.4336)" fill="#FFC99A" />
            <path id="mid_4" d="M17.845 78.3895C17.9697 78.2612 18.9782 78.2919 19.1137 78.4761C19.2493 78.6604 19.034 81.0152 18.9956 80.9933C18.9571 80.9714 17.843 80.9582 17.8024 80.9362C17.7618 80.9142 17.7203 78.5177 17.845 78.3895Z" fill="#FFC99A" />
            <ellipse id="joint-01_4" rx="0.655246" ry="0.255668" transform="matrix(0.999882 0.0666844 -0.0166596 0.996121 18.4619 80.9795)" fill="#FFC99A" />
            <path id="outer_4" d="M17.8247 81.0141C17.8239 80.9367 18.9604 80.6334 19.0891 81.1778C19.2178 81.7223 18.9614 83.7647 18.796 83.6384C18.6306 83.5121 18.0681 83.6479 18.0421 83.4841C17.7833 81.855 17.8331 81.7555 17.8247 81.0141Z" fill="#FFC99A" />
            <path id="Ellipse 64_4" d="M18.8633 83.2239C18.8562 83.6459 18.6745 83.9762 18.4574 83.9617C18.2403 83.9473 18.07 83.5935 18.0771 83.1715C18.0841 82.7495 18.2658 82.4192 18.4829 82.4337C18.7 82.4482 18.8703 82.802 18.8633 83.2239Z" fill="#DDB18B" />
          </g>
          <g id="finger">
            <path id="inner_5" d="M21.5655 72.4174L22.3961 71.2449C22.3961 71.2449 24.45 71.9366 25.0498 73.0233C25.6496 74.1099 23.4933 73.8386 23.4933 73.8386L21.5655 72.4174Z" fill="#F5C296" />
            <ellipse id="joint-02_5" rx="1.083" ry="0.700887" transform="matrix(0.816532 -0.589018 0.727893 0.670724 21.624 71.831)" fill="#DDB18B" />
            <ellipse id="joint-01_5" rx="0.832058" ry="0.319444" transform="matrix(1.06087 -0.21116 0.309503 0.858023 24.3283 73.3738)" fill="#FFC99A" />
            <path id="outer_5" d="M23.543 73.6277C23.8168 73.5176 25.2119 73.198 25.2119 73.198L26.0778 76.4021C26.0778 76.4021 25.3425 76.8876 24.8974 76.6871C24.4523 76.4867 23.2692 73.7378 23.543 73.6277Z" fill="#F5C296" />
            <path id="nail" d="M25.992 76.1538C26.1558 76.6079 26.0146 77.0306 25.6765 77.0979C25.3385 77.1652 24.9316 76.8516 24.7678 76.3975C24.604 75.9433 24.7452 75.5206 25.0833 75.4534C25.4213 75.3861 25.8282 75.6997 25.992 76.1538Z" fill="#DDB18B" />
          </g>
          <path id="palm" d="M23.4606 74.4143C21.9647 77.0919 21.6475 77.7737 19.1694 76.7324C16.0914 76.6346 15.9447 76.6789 16.2305 73.9118C15.8277 71.1316 17.4395 67.9803 19.9443 69.4664C22.3162 68.728 23.7872 71.4906 23.4606 74.4143Z" fill="#FFC99A" />
        </g>
        <path id="forarm" d="M23.8315 56.4928C23.5366 56.0719 18.5476 54.6043 17.7395 54.8201C16.9315 55.036 16.9203 70.1221 16.9203 70.1221C16.9203 70.1221 21.1261 71.7791 22.4163 69.1613C23.7066 66.5434 24.1263 56.9136 23.8315 56.4928Z" fill="url(#paint9_radial)" />
        <path id="l-elbow" d="M24.1188 56.5817C23.7348 57.7169 24.1702 57.0825 21.3982 57.5226C18.8592 56.7292 17.218 55.156 17.602 54.0209C17.9859 52.8857 19.7193 52.8947 22.2582 53.6881C24.7972 54.4816 24.5028 55.4465 24.1188 56.5817Z" fill="url(#paint10_radial)" />
      </g>
      <path id="l-shoulder" d="M36.2946 41.4321C35.8484 42.7513 33.8719 48.316 30.5674 46.4336C27.6489 45.5215 24.8438 41.1727 25.967 38.4396C26.4133 37.1204 30.133 35.1846 33.0514 36.0966C35.9699 37.0087 36.1498 39.4184 36.2946 41.4321Z" fill="#EFC49E" />
      <path id="l-tricepts" d="M25.681 39.759C27.269 39.9363 33.1653 42.4972 34.5842 42.9443C36.0032 43.3913 24.2976 55.5987 23.752 55.4972C23.2064 55.3957 19.5576 53.6939 18.2845 53.4571C17.0114 53.2203 24.0931 39.5817 25.681 39.759Z" fill="url(#paint11_radial)" />
      <path id="l-shoulder-wrapper" d="M25.0002 54.7942C27.2308 55.5377 28.5007 52.7944 28.5007 52.7944L33.0001 49.7942C35.9155 49.7942 45 46.7944 41.5001 39.7945C39.5767 35.9476 35.5004 35.7944 35.5004 35.7944C35.5004 35.7944 29.1516 34.4126 25.5006 35.2944C18.5319 36.9776 17.0006 45.2695 17.0006 50.2945C17.0006 50.2945 20.4999 53.2942 25.0002 54.7942Z" fill="#DB0F0F" />
    </g>
    <g id="r-arm-hand">
      <g id="r-hand">
        <g id="hand_2">
          <g id="index_2">
            <ellipse id="joint-03_5" rx="0.658332" ry="0.255668" transform="matrix(-0.999167 -0.0766529 -0.125629 0.988308 65.2505 75.5089)" fill="#DDB18B" />
            <path id="inner_6" d="M65.8144 75.5941C65.6456 75.6791 64.8513 75.4013 64.5938 75.5607C64.3363 75.7201 64.2697 78.1172 64.3336 78.0969C64.3976 78.0766 65.4464 78.2159 65.5542 78.1303C65.662 78.0448 65.9831 75.5091 65.8144 75.5941Z" fill="#FFC99A" />
            <ellipse id="joint-02_6" rx="0.658331" ry="0.255668" transform="matrix(-0.999167 -0.0766529 -0.125629 0.988308 64.9126 78.0342)" fill="#FFC99A" />
            <path id="mid_5" d="M65.5781 78.0858C65.4724 77.941 64.4651 77.8272 64.304 77.9901C64.1429 78.1531 64.0208 80.5146 64.0622 80.4984C64.1036 80.4822 65.2134 80.6286 65.2569 80.6126C65.3005 80.5966 65.6838 78.2306 65.5781 78.0858Z" fill="#FFC99A" />
            <ellipse id="joint-01_6" rx="0.658331" ry="0.255668" transform="matrix(-0.999167 -0.0766529 -0.125629 0.988308 64.5943 80.5631)" fill="#FFC99A" />
            <path id="outer_6" d="M65.2265 80.6895C65.2384 80.613 64.1514 80.1503 63.9457 80.6707C63.74 81.1912 63.7035 83.2494 63.886 83.148C64.0685 83.0467 64.6085 83.2615 64.6577 83.1031C65.1476 81.5277 65.1123 81.4222 65.2265 80.6895Z" fill="#FFC99A" />
            <path id="Ellipse 64_5" d="M63.8721 82.7234C63.8189 83.142 63.9525 83.495 64.1704 83.5117C64.3884 83.5284 64.6082 83.2026 64.6615 82.7839C64.7147 82.3653 64.5811 82.0123 64.3631 81.9956C64.1452 81.9789 63.9253 82.3047 63.8721 82.7234Z" fill="#DDB18B" />
          </g>
          <g id="middle_2">
            <ellipse id="joint-03_6" rx="0.654942" ry="0.283691" transform="matrix(-1.00198 -0.0157219 -0.0652683 0.99412 67.0484 75.7642)" fill="#DDB18B" />
            <path id="inner_7" d="M67.615 75.8232C67.4521 75.9281 66.6476 75.6708 66.4007 75.8638C66.1538 76.0568 66.2214 78.7167 66.2838 78.6902C66.3462 78.6636 67.3958 78.7512 67.4981 78.6495C67.6004 78.5479 67.7779 75.7183 67.615 75.8232Z" fill="#FFC99A" />
            <ellipse id="joint-02_7" rx="0.654942" ry="0.283691" transform="matrix(-1.00198 -0.0157219 -0.0652683 0.99412 66.858 78.585)" fill="#FFC99A" />
            <path id="mid_6" d="M67.5195 78.5951C67.4068 78.4421 66.3999 78.3858 66.2485 78.5774C66.0971 78.769 66.101 81.3925 66.1413 81.3717C66.1815 81.3508 67.292 81.436 67.3344 81.4153C67.3768 81.3946 67.6322 78.748 67.5195 78.5951Z" fill="#FFC99A" />
            <ellipse id="joint-01_7" rx="0.654942" ry="0.283691" transform="matrix(-1.00198 -0.0157219 -0.0652683 0.99412 66.6729 81.4043)" fill="#FFC99A" />
            <path id="outer_7" d="M67.3085 81.5009C67.3163 81.4154 66.2118 80.9783 66.035 81.5688C65.8583 82.1594 65.931 84.441 66.107 84.3162C66.283 84.1913 66.8309 84.3917 66.8714 84.213C67.2747 82.4345 67.234 82.3201 67.3085 81.5009Z" fill="#FFC99A" />
            <path id="Ellipse 64_6" d="M66.0735 83.8501C66.0428 84.3173 66.1942 84.6989 66.4117 84.7023C66.6291 84.7057 66.8303 84.3297 66.861 83.8624C66.8916 83.3952 66.7402 83.0136 66.5228 83.0102C66.3053 83.0068 66.1041 83.3828 66.0735 83.8501Z" fill="#DDB18B" />
          </g>
          <g id="pinky_2">
            <ellipse id="joint-03_7" rx="0.654299" ry="0.210599" transform="matrix(-0.97965 0.210944 0.160902 0.983181 69.7108 75.0482)" fill="#DDB18B" />
            <path id="inner_8" d="M70.2706 74.9674C70.1313 75.0788 69.3002 75.0715 69.0953 75.265C68.8904 75.4584 69.4472 77.3575 69.503 77.3246C69.5589 77.2917 70.5975 77.1228 70.6784 77.027C70.7593 76.9313 70.41 74.8559 70.2706 74.9674Z" fill="#FFC99A" />
            <ellipse id="joint-02_8" rx="0.654299" ry="0.210599" transform="matrix(-0.97965 0.210944 0.160902 0.983181 70.0457 77.1207)" fill="#FFC99A" />
            <path id="mid_7" d="M70.6904 76.9811C70.5525 76.896 69.5616 77.0786 69.4494 77.25C69.3372 77.4215 69.824 79.3085 69.8593 79.2846C69.8947 79.2607 70.9918 79.0759 71.0293 79.0516C71.0668 79.0273 70.8284 77.0662 70.6904 76.9811Z" fill="#FFC99A" />
            <ellipse id="joint-01_8" rx="0.654299" ry="0.210599" transform="matrix(-0.97965 0.210944 0.160902 0.983181 70.3846 79.1913)" fill="#FFC99A" />
            <path id="outer_8" d="M71.021 79.1196C71.0129 79.0564 69.8567 78.9866 69.7933 79.4508C69.7299 79.9149 70.2208 81.5407 70.3692 81.4119C70.5175 81.283 71.088 81.3058 71.0946 81.1682C71.1599 79.799 71.0992 79.7257 71.021 79.1196Z" fill="#FFC99A" />
            <path id="Ellipse 64_7" d="M70.2485 81.0837C70.3046 81.4267 70.5223 81.6678 70.7347 81.622C70.9471 81.5763 71.0738 81.2611 71.0177 80.918C70.9615 80.575 70.7438 80.334 70.5314 80.3797C70.319 80.4254 70.1923 80.7406 70.2485 81.0837Z" fill="#DDB18B" />
          </g>
          <g id="ring_2">
            <ellipse id="joint-03_8" rx="0.655246" ry="0.255668" transform="matrix(-0.999882 0.0666844 0.0166596 0.996121 68.4131 75.8863)" fill="#DDB18B" />
            <path id="inner_9" d="M68.9845 75.8923C68.8305 75.9997 68.0076 75.834 67.7769 76.0273C67.5463 76.2206 67.8274 78.6031 67.8874 78.5742C67.9475 78.5453 69.0011 78.5387 69.095 78.4392C69.1888 78.3396 69.1385 75.785 68.9845 75.8923Z" fill="#FFC99A" />
            <ellipse id="joint-02_9" rx="0.655246" ry="0.255668" transform="matrix(-0.999882 0.0666844 0.0166596 0.996121 68.4541 78.4336)" fill="#FFC99A" />
            <path id="mid_8" d="M69.1125 78.3895C68.9878 78.2612 67.9793 78.2919 67.8438 78.4761C67.7083 78.6604 67.9235 81.0152 67.962 80.9933C68.0004 80.9714 69.1145 80.9582 69.1551 80.9362C69.1957 80.9142 69.2372 78.5177 69.1125 78.3895Z" fill="#FFC99A" />
            <ellipse id="joint-01_9" rx="0.655246" ry="0.255668" transform="matrix(-0.999882 0.0666844 0.0166596 0.996121 68.4956 80.9795)" fill="#FFC99A" />
            <path id="outer_9" d="M69.1328 81.0141C69.1336 80.9367 67.9971 80.6334 67.8684 81.1778C67.7397 81.7223 67.9961 83.7647 68.1615 83.6384C68.3269 83.5121 68.8894 83.6479 68.9154 83.4841C69.1742 81.855 69.1244 81.7555 69.1328 81.0141Z" fill="#FFC99A" />
            <path id="Ellipse 64_8" d="M68.0943 83.2239C68.1013 83.6459 68.283 83.9762 68.5001 83.9617C68.7172 83.9473 68.8875 83.5935 68.8805 83.1715C68.8734 82.7495 68.6917 82.4192 68.4746 82.4337C68.2575 82.4482 68.0872 82.802 68.0943 83.2239Z" fill="#DDB18B" />
          </g>
          <g id="finger_2">
            <path id="inner_10" d="M65.392 72.4174L64.5614 71.2449C64.5614 71.2449 62.5075 71.9366 61.9077 73.0233C61.3079 74.1099 63.4642 73.8386 63.4642 73.8386L65.392 72.4174Z" fill="#F5C296" />
            <ellipse id="joint-02_10" rx="1.083" ry="0.700887" transform="matrix(-0.816532 -0.589018 -0.727893 0.670724 65.3336 71.831)" fill="#EAC2A0" />
            <ellipse id="joint-01_10" rx="0.832058" ry="0.319444" transform="matrix(-1.06087 -0.21116 -0.309503 0.858023 62.6293 73.3738)" fill="#FFC99A" />
            <path id="outer_10" d="M63.4145 73.6277C63.1408 73.5176 61.7457 73.198 61.7457 73.198L60.8797 76.4021C60.8797 76.4021 61.6151 76.8876 62.0601 76.6871C62.5052 76.4867 63.6883 73.7378 63.4145 73.6277Z" fill="#F5C296" />
            <path id="nail_2" d="M60.9655 76.1538C60.8017 76.6079 60.943 77.0306 61.281 77.0979C61.6191 77.1652 62.0259 76.8516 62.1897 76.3975C62.3535 75.9433 62.2123 75.5206 61.8742 75.4534C61.5362 75.3861 61.1293 75.6997 60.9655 76.1538Z" fill="#DDB18B" />
          </g>
          <path id="palm_2" d="M63.4969 74.4143C64.9928 77.0919 65.31 77.7737 67.7881 76.7324C70.8662 76.6346 71.0128 76.6789 70.727 73.9118C71.1298 71.1316 69.5181 67.9803 67.0132 69.4664C64.6413 68.728 63.1704 71.4906 63.4969 74.4143Z" fill="#FFC99A" />
        </g>
        <path id="r-forarm" d="M63.1261 56.4928C63.4209 56.0719 68.41 54.6043 69.218 54.8201C70.026 55.036 70.0372 70.1221 70.0372 70.1221C70.0372 70.1221 65.8314 71.7791 64.5412 69.1613C63.251 66.5434 62.8312 56.9136 63.1261 56.4928Z" fill="url(#paint12_radial)" />
        <path id="r-elbow" d="M62.8382 56.5817C63.2222 57.7169 62.7868 57.0825 65.5589 57.5226C68.0978 56.7292 69.739 55.156 69.3551 54.0209C68.9711 52.8857 67.2377 52.8947 64.6988 53.6881C62.1598 54.4816 62.4543 55.4465 62.8382 56.5817Z" fill="url(#paint13_radial)" />
      </g>
      <path id="r-shoulder" d="M50.6625 41.4321C51.1087 42.7513 53.0851 48.316 56.3896 46.4336C59.3081 45.5215 62.1132 41.1727 60.99 38.4396C60.5438 37.1204 56.8241 35.1846 53.9056 36.0966C50.9871 37.0087 50.8072 39.4184 50.6625 41.4321Z" fill="#EFC49E" />
      <path id="r-tricepts" d="M61.276 39.7593C59.6881 39.9366 53.7918 42.4975 52.3728 42.9445C50.9539 43.3916 62.6594 55.5989 63.205 55.4974C63.7507 55.3959 67.3995 53.6941 68.6726 53.4573C69.9457 53.2205 62.8639 39.582 61.276 39.7593Z" fill="url(#paint14_radial)" />
      <path id="r-shoulder-wrapper" d="M61.5003 55.5C59.2697 56.2435 57.9998 53.5002 57.9998 53.5002L53.5004 50.5C50.585 50.5 41.5005 47.5002 45.0004 40.5003C46.9238 36.6535 51.0001 36.5003 51.0001 36.5003C51.0001 36.5003 57.3489 35.1184 60.9998 36.0002C67.9686 37.6835 69.4998 45.9753 69.4998 51.0003C69.4998 51.0003 66.0006 54 61.5003 55.5Z" fill="#DB0F0F" />
    </g>
    <path id="shirt" d="M28 50.5L22.5 41.5L27.5 36.5L35 37.5C35 37.5 40.3324 39.0873 44 39C47.492 38.9169 51.5 37.5 51.5 37.5L59.5 36.5L64.5 41.5L58 49.5L55 58.5L56 70.5L55 73H31L29.5 70.5L30.5 58.5L28 50.5Z" fill="#DB0F0F" />
  </g>
  <defs>
    <radialGradient id="paint0_radial" cx="0" cy="0" r="1" gradientUnits="userSpaceOnUse" gradientTransform="translate(44.2929 20.5202) rotate(90) scale(17.3041 10.1788)">
      <stop offset="0.00229517" stop-color="#F8E0CC" />
      <stop offset="1" stop-color="#E6A773" stop-opacity="0.99" />
    </radialGradient>
    <linearGradient id="paint1_linear" x1="1.92269" y1="0" x2="1.92269" y2="2.03501" gradientUnits="userSpaceOnUse">
      <stop stop-color="#FFCFB0" stop-opacity="0.54" />
      <stop offset="1" stop-color="#FFB180" />
    </linearGradient>
    <linearGradient id="paint2_linear" x1="48.6385" y1="20.9692" x2="48.6385" y2="24.6645" gradientUnits="userSpaceOnUse">
      <stop stop-opacity="0" />
      <stop offset="0.765625" />
      <stop offset="1" />
    </linearGradient>
    <linearGradient id="paint3_linear" x1="48.5169" y1="22.5529" x2="48.5169" y2="24.4006" gradientUnits="userSpaceOnUse">
      <stop stop-color="#00936F" stop-opacity="0.46" />
      <stop offset="0.0001" stop-opacity="0.818347" />
      <stop offset="0.0002" stop-opacity="0.816101" />
      <stop offset="0.0003" stop-color="#00936F" stop-opacity="0.57724" />
      <stop offset="1" stop-color="#003A2C" stop-opacity="0" />
    </linearGradient>
    <linearGradient id="paint4_linear" x1="38.2067" y1="20.9927" x2="38.2067" y2="24.6679" gradientUnits="userSpaceOnUse">
      <stop stop-opacity="0" />
      <stop offset="0.765625" />
      <stop offset="1" />
    </linearGradient>
    <linearGradient id="paint5_linear" x1="38.3259" y1="22.5673" x2="38.3259" y2="24.4049" gradientUnits="userSpaceOnUse">
      <stop stop-color="#00936F" stop-opacity="0.46" />
      <stop offset="0.0001" stop-opacity="0.818347" />
      <stop offset="0.0002" stop-opacity="0.816101" />
      <stop offset="0.0003" stop-color="#00936F" stop-opacity="0.57724" />
      <stop offset="1" stop-color="#003A2C" stop-opacity="0" />
    </linearGradient>
    <linearGradient id="paint6_linear" x1="43.3604" y1="30.5136" x2="43.4339" y2="32.2308" gradientUnits="userSpaceOnUse">
      <stop stop-color="#9D0101" />
      <stop offset="1" stop-color="#6A0808" />
    </linearGradient>
    <linearGradient id="paint7_linear" x1="43.5102" y1="30.6077" x2="43.2851" y2="32.26" gradientUnits="userSpaceOnUse">
      <stop stop-color="#A50505" />
      <stop offset="1" stop-color="#750202" />
    </linearGradient>
    <linearGradient id="paint8_linear" x1="43.1883" y1="-1.48473" x2="42.9971" y2="78.6065" gradientUnits="userSpaceOnUse">
      <stop stop-color="#FFDDBF" />
      <stop offset="1" stop-color="#E7B68C" />
    </linearGradient>
    <radialGradient id="paint9_radial" cx="0" cy="0" r="1" gradientUnits="userSpaceOnUse" gradientTransform="translate(20.6417 63.9337) rotate(96.4911) scale(8.39678 4.67028)">
      <stop stop-color="#F1BF94" />
      <stop offset="1" stop-color="#FFC99A" />
    </radialGradient>
    <radialGradient id="paint10_radial" cx="0" cy="0" r="1" gradientUnits="userSpaceOnUse" gradientTransform="translate(22.0934 55.4672) rotate(108.687) scale(2.16982 4.81513)">
      <stop stop-color="#F1BF94" />
      <stop offset="1" stop-color="#FFC99A" />
    </radialGradient>
    <radialGradient id="paint11_radial" cx="0" cy="0" r="1" gradientUnits="userSpaceOnUse" gradientTransform="translate(25.5691 48.3026) rotate(122.812) scale(8.49547 4.53527)">
      <stop stop-color="#F1BF94" />
      <stop offset="1" stop-color="#FFC99A" />
    </radialGradient>
    <radialGradient id="paint12_radial" cx="0" cy="0" r="1" gradientUnits="userSpaceOnUse" gradientTransform="translate(66.3158 63.9337) rotate(83.5089) scale(8.39678 4.67028)">
      <stop stop-color="#F1BF94" />
      <stop offset="1" stop-color="#FFC99A" />
    </radialGradient>
    <radialGradient id="paint13_radial" cx="0" cy="0" r="1" gradientUnits="userSpaceOnUse" gradientTransform="translate(64.8636 55.4672) rotate(71.3126) scale(2.16982 4.81513)">
      <stop stop-color="#F1BF94" />
      <stop offset="1" stop-color="#FFC99A" />
    </radialGradient>
    <radialGradient id="paint14_radial" cx="0" cy="0" r="1" gradientUnits="userSpaceOnUse" gradientTransform="translate(61.388 48.3028) rotate(57.1876) scale(8.49547 4.53527)">
      <stop stop-color="#F1BF94" />
      <stop offset="1" stop-color="#FFC99A" />
    </radialGradient>
  </defs>
</svg>