<svg width="75" height="132" viewBox="0 0 75 132" fill="none" xmlns="http://www.w3.org/2000/svg">
<g id="avatar-full-body">
<g id="l-leg">
<g id="quads">
<path id="Ellipse 55" d="M37.9991 80.3064C37.9991 83.0049 34.4612 81.7722 31.0685 81.7722C25.2406 82.7495 27.4458 74.4431 27.4458 74.4431C27.4458 74.4431 27.6758 72 31.0685 72C34.4612 72 37.9991 77.6079 37.9991 80.3064Z" fill="#DDB18B"/>
<path id="Rectangle 81" d="M28.5118 76.1318C30.001 75.3125 34.0485 76.5681 36.217 81.344C39.4786 88.5274 35.6145 100.373 35.6145 100.373L26.4081 100.545C26.4081 100.545 21.9948 79.7172 28.5118 76.1318Z" fill="#E8B890"/>
</g>
<g id="Leg">
<path id="Rectangle 83" d="M25.8641 102.748C27.7727 97.6497 35.5589 97.5743 35.9452 103.113C36.5713 112.09 35.4877 115.32 34.0981 125.014C33.3049 130.547 25.6773 131.484 24.6384 126.006C22.3041 113.697 22.3031 112.261 25.8641 102.748Z" fill="#E8B890"/>
<ellipse id="Ellipse 57" cx="31.1801" cy="101.262" rx="5.11464" ry="2.33378" fill="#DDB18B"/>
<ellipse id="shoe" cx="29.3587" cy="127.949" rx="6.35871" ry="3.94948" fill="black"/>
</g>
</g>
<g id="r-leg">
<g id="quads_2">
<path id="Ellipse 55_2" d="M39 80.3064C39 83.0049 42.5379 81.7722 45.9306 81.7722C51.7584 82.7495 49.5532 74.4431 49.5532 74.4431C49.5532 74.4431 49.3232 72 45.9306 72C42.5379 72 39 77.6079 39 80.3064Z" fill="#DDB18B"/>
<path id="Rectangle 81_2" d="M48.4872 76.1323C46.998 75.3129 42.9506 76.5686 40.7821 81.3444C37.5205 88.5278 41.3845 100.373 41.3845 100.373L50.5909 100.546C50.5909 100.546 55.0042 79.7177 48.4872 76.1323Z" fill="#E8B890"/>
</g>
<g id="Leg_2">
<path id="Rectangle 83_2" d="M51.1349 102.749C49.2263 97.6504 41.4401 97.575 41.0538 103.114C40.4278 112.09 41.5114 115.321 42.901 125.014C43.6942 130.547 51.3218 131.485 52.3607 126.007C54.695 113.698 54.6959 112.262 51.1349 102.749Z" fill="#E8B890"/>
<ellipse id="Ellipse 57_2" rx="5.11462" ry="2.33378" transform="matrix(-1 0 0 1 45.82 101.263)" fill="#DDB18B"/>
<ellipse id="shoe_2" rx="6.35868" ry="3.94948" transform="matrix(-1 0 0 1 46.9719 128.011)" fill="black"/>
</g>
</g>
<g id="l-arm+hand">
<g id="l-hand">
<g id="index">
<ellipse id="joint-03" rx="0.658332" ry="0.255668" transform="matrix(1.00206 0.00956345 0.0401655 0.99545 15.7412 73.2618)" fill="#DDB18B"/>
<path id="inner" d="M15.1722 73.2982C15.3331 73.3974 16.1483 73.1889 16.3911 73.3699C16.634 73.5508 16.4942 75.9448 16.4322 75.9191C16.3703 75.8933 15.3134 75.9419 15.2133 75.8474C15.1133 75.7529 15.0114 73.199 15.1722 73.2982Z" fill="#FFC99A"/>
<ellipse id="joint-02" rx="0.658331" ry="0.255668" transform="matrix(1.00206 0.00956345 0.0401655 0.99545 15.8609 75.8069)" fill="#DDB18B"/>
<path id="mid" d="M15.1938 75.801C15.3116 75.6658 16.325 75.639 16.4715 75.8152C16.6179 75.9914 16.5365 78.3547 16.4966 78.335C16.4568 78.3153 15.3385 78.3657 15.2965 78.346C15.2545 78.3264 15.0761 75.9361 15.1938 75.801Z" fill="#FFC99A"/>
<ellipse id="joint-01" rx="0.658331" ry="0.255668" transform="matrix(1.00206 0.00956345 0.0401655 0.99545 15.9605 78.3536)" fill="#DDB18B"/>
<path id="outer" d="M15.3202 78.4253C15.3149 78.3481 16.4376 77.9805 16.5978 78.5168C16.7579 79.053 16.6174 81.1067 16.4442 80.99C16.2711 80.8734 15.7147 81.041 15.6792 80.8789C15.3266 79.2672 15.3709 79.1651 15.3202 78.4253Z" fill="#FFC99A"/>
<path id="Ellipse 64" d="M16.4943 80.5682C16.5113 80.9899 16.3479 81.33 16.1293 81.3279C15.9107 81.3258 15.7197 80.9823 15.7027 80.5606C15.6857 80.139 15.8491 79.7988 16.0677 79.8009C16.2863 79.803 16.4773 80.1465 16.4943 80.5682Z" fill="#DDB18B"/>
</g>
<g id="middle">
<ellipse id="joint-03_2" rx="0.654942" ry="0.283691" transform="matrix(0.999619 0.0705105 -0.0204717 0.99605 13.9282 73.3615)" fill="#DDB18B"/>
<path id="inner_2" d="M13.3588 73.3716C13.5121 73.4901 14.3358 73.303 14.5651 73.5165C14.7945 73.7301 14.4984 76.3743 14.4385 76.3424C14.3786 76.3106 13.3254 76.3076 13.2322 76.1975C13.139 76.0874 13.2055 73.2531 13.3588 73.3716Z" fill="#FFC99A"/>
<ellipse id="joint-02_2" rx="0.654942" ry="0.283691" transform="matrix(0.999619 0.0705105 -0.0204718 0.99605 13.8754 76.1884)" fill="#DDB18B"/>
<path id="mid_2" d="M13.2153 76.1417C13.3408 75.999 14.3488 76.0295 14.4831 76.2334C14.6175 76.4373 14.388 79.0507 14.3497 79.0265C14.3114 79.0023 13.1977 78.9917 13.1572 78.9674C13.1168 78.9431 13.0899 76.2844 13.2153 76.1417Z" fill="#FFC99A"/>
<ellipse id="joint-01_2" rx="0.654942" ry="0.283691" transform="matrix(0.999619 0.0705105 -0.0204718 0.99605 13.8178 79.0131)" fill="#DDB18B"/>
<path id="outer_2" d="M13.1756 79.0545C13.1752 78.9687 14.3132 78.6282 14.4385 79.2318C14.5638 79.8354 14.2951 82.1023 14.1305 81.9627C13.9659 81.8232 13.4028 81.9758 13.3778 81.7942C13.129 79.9876 13.1794 79.8771 13.1756 79.0545Z" fill="#FFC99A"/>
<path id="Ellipse 64_2" d="M14.2042 81.5013C14.1946 81.9694 14.011 82.3366 13.794 82.3213C13.5771 82.306 13.409 81.914 13.4186 81.4459C13.4282 80.9777 13.6119 80.6105 13.8289 80.6259C14.0458 80.6412 14.2139 81.0331 14.2042 81.5013Z" fill="#DDB18B"/>
</g>
<g id="pinky">
<ellipse id="joint-03_3" rx="0.654299" ry="0.210599" transform="matrix(0.957878 0.294416 -0.244863 0.9657 11.3374 72.419)" fill="#DDB18B"/>
<path id="inner_3" d="M10.7859 72.2904C10.9152 72.4134 11.7439 72.4776 11.9314 72.6879C12.1188 72.8983 11.4008 74.7425 11.348 74.7049C11.2951 74.6673 10.2749 74.4097 10.2026 74.3073C10.1302 74.205 10.6567 72.1673 10.7859 72.2904Z" fill="#FFC99A"/>
<ellipse id="joint-02_3" rx="0.654299" ry="0.210599" transform="matrix(0.957878 0.294416 -0.244863 0.9657 10.8252 74.4551)" fill="#DDB18B"/>
<path id="mid_3" d="M10.1951 74.2604C10.3398 74.1875 11.3114 74.4547 11.4084 74.6351C11.5054 74.8156 10.8582 76.6538 10.825 76.6269C10.7918 76.6001 9.71469 76.3216 9.67944 76.2942C9.64418 76.2667 10.0504 74.3333 10.1951 74.2604Z" fill="#FFC99A"/>
<ellipse id="joint-01_3" rx="0.654299" ry="0.210599" transform="matrix(0.957878 0.294416 -0.244863 0.9657 10.3091 76.4888)" fill="#DDB18B"/>
<path id="outer_3" d="M9.68126 76.3628C9.69482 76.3005 10.8527 76.3304 10.876 76.7983C10.8992 77.2662 10.2703 78.8438 10.1336 78.7026C9.99681 78.5615 9.42647 78.5352 9.43177 78.3975C9.48446 77.0277 9.55123 76.9599 9.68126 76.3628Z" fill="#FFC99A"/>
<path id="Ellipse 64_3" d="M10.282 78.386C10.1965 78.7229 9.95889 78.9443 9.75121 78.8805C9.54352 78.8167 9.44443 78.4918 9.52987 78.1548C9.61531 77.8178 9.85293 77.5964 10.0606 77.6603C10.2683 77.7241 10.3674 78.049 10.282 78.386Z" fill="#DDB18B"/>
</g>
<g id="ring">
<ellipse id="joint-03_4" rx="0.655246" ry="0.255668" transform="matrix(0.990442 0.152431 -0.102268 0.990998 12.5584 73.3659)" fill="#DDB18B"/>
<path id="inner_4" d="M11.9883 73.3228C12.1325 73.443 12.9665 73.3487 13.1797 73.5612C13.3929 73.7736 12.908 76.123 12.8506 76.0891C12.7932 76.0551 11.7441 75.958 11.6592 75.8507C11.5742 75.7435 11.8441 73.2026 11.9883 73.3228Z" fill="#FFC99A"/>
<ellipse id="joint-02_4" rx="0.655246" ry="0.255668" transform="matrix(0.990442 0.152431 -0.102268 0.990998 12.2986 75.9001)" fill="#DDB18B"/>
<path id="mid_4" d="M11.6459 75.7997C11.7812 75.6826 12.7833 75.8 12.9025 75.9952C13.0217 76.1904 12.6047 78.518 12.5683 78.4928C12.5318 78.4677 11.423 78.3588 11.3844 78.3333C11.3459 78.3079 11.5106 75.9167 11.6459 75.7997Z" fill="#FFC99A"/>
<ellipse id="joint-01_4" rx="0.655246" ry="0.255668" transform="matrix(0.990442 0.152431 -0.102268 0.990998 12.0379 78.4333)" fill="#DDB18B"/>
<path id="outer_4" d="M11.3997 78.4127C11.4055 78.3355 12.5639 78.1311 12.6453 78.6846C12.7266 79.2381 12.2955 81.2509 12.1416 81.1108C11.9877 80.9708 11.4156 81.0577 11.4038 80.8923C11.2861 79.2469 11.3442 79.1521 11.3997 78.4127Z" fill="#FFC99A"/>
<path id="Ellipse 64_4" d="M12.2448 80.7037C12.2015 81.1235 11.992 81.437 11.7769 81.4039C11.5619 81.3708 11.4227 81.0036 11.466 80.5838C11.5093 80.164 11.7188 79.8506 11.9338 79.8837C12.1489 79.9168 12.2881 80.2839 12.2448 80.7037Z" fill="#DDB18B"/>
</g>
<g id="finger">
<path id="Rectangle 86" d="M15.8661 70.1694L16.7944 69.0728C16.7944 69.0728 18.7813 69.9385 19.2854 71.0727C19.7895 72.2069 17.6645 71.7512 17.6645 71.7512L15.8661 70.1694Z" fill="#F0BF96"/>
<ellipse id="Ellipse 62" rx="1.083" ry="0.700887" transform="matrix(0.864164 -0.516611 0.667511 0.730841 15.9745 69.5902)" fill="#DDB18B"/>
<ellipse id="Ellipse 63" rx="0.832058" ry="0.319444" transform="matrix(1.0751 -0.119139 0.234563 0.881462 18.5364 71.3599)" fill="#DDB18B"/>
<path id="Rectangle 87" d="M17.7323 71.5453C18.0146 71.4591 19.432 71.2607 19.432 71.2607L20.0191 74.5274C20.0191 74.5274 19.2448 74.9478 18.8186 74.7098C18.3924 74.4719 17.4501 71.6314 17.7323 71.5453Z" fill="#F0BF96"/>
<path id="Ellipse 64_5" d="M19.9547 74.2727C20.0788 74.7392 19.9017 75.1482 19.5591 75.1862C19.2166 75.2241 18.8382 74.8767 18.714 74.4102C18.5899 73.9436 18.767 73.5347 19.1096 73.4967C19.4522 73.4587 19.8305 73.8061 19.9547 74.2727Z" fill="#DDB18B"/>
</g>
<path id="l-palm" d="M17.5829 72.3221C15.8624 74.8611 15.4877 75.5131 13.1083 74.2625C10.0501 73.9004 9.90018 73.9319 10.4228 71.1997C10.2606 68.3951 12.1375 65.3941 14.5052 67.0901C16.9318 66.5584 18.1597 69.4372 17.5829 72.3221Z" fill="#FFC99A"/>
</g>
<g id="shoulder">
<path id="Rectangle 79" d="M22.7755 37.9861C24.3422 38.2993 29.9964 41.3578 31.3717 41.9252C32.7469 42.4927 20.0349 53.648 19.5 53.5C18.9651 53.352 15.4762 51.3426 14.2282 50.9972C12.9802 50.6518 21.2087 37.6728 22.7755 37.9861Z" fill="url(#paint0_radial)"/>
<path id="shoulder_2" d="M33.2061 40.5657C32.6481 41.8416 30.2004 47.2158 27.07 45.0561C24.2408 43.8964 21.8201 39.3224 23.1742 36.6961C23.7322 35.4201 27.6047 33.8114 30.4339 34.9711C33.2631 36.1307 33.2351 38.547 33.2061 40.5657Z" fill="#EFC49E"/>
<path id="joint" d="M19.7725 54.6119C19.2923 55.7099 19.7807 55.1152 16.981 55.3153C14.5197 54.3065 13.0199 52.598 13.5001 51.5001C13.9803 50.4021 15.7064 50.5601 18.1677 51.569C20.629 52.5779 20.2527 53.5139 19.7725 54.6119Z" fill="url(#paint1_radial)"/>
<path id="forarm" d="M19.4937 54.4986C19.2362 54.054 14.3918 52.1627 13.5682 52.3083C12.7446 52.4539 11.436 67.4831 11.436 67.4831C11.436 67.4831 15.4837 69.4957 16.9943 66.9985C18.5049 64.5013 19.7513 54.9433 19.4937 54.4986Z" fill="url(#paint2_radial)"/>
</g>
</g>
<g id="r-arm+hand">
<g id="hand">
<g id="index_2">
<ellipse id="joint-03_5" rx="0.658332" ry="0.255668" transform="matrix(-0.999167 -0.0766529 -0.125629 0.988308 60.25 75.5091)" fill="#DDB18B"/>
<path id="inner_5" d="M60.8139 75.5944C60.6451 75.6793 59.8508 75.4015 59.5933 75.5609C59.3358 75.7204 59.2692 78.1175 59.3331 78.0972C59.3971 78.0769 60.4459 78.2162 60.5537 78.1306C60.6615 78.045 60.9826 75.5094 60.8139 75.5944Z" fill="#FFC99A"/>
<ellipse id="joint-02_5" rx="0.658331" ry="0.255668" transform="matrix(-0.999167 -0.0766529 -0.125629 0.988308 59.9121 78.0345)" fill="#DDB18B"/>
<path id="mid_5" d="M60.5776 78.086C60.4719 77.9413 59.4646 77.8274 59.3035 77.9904C59.1424 78.1533 59.0203 80.5149 59.0617 80.4987C59.1031 80.4824 60.2129 80.6288 60.2564 80.6128C60.3 80.5968 60.6833 78.2308 60.5776 78.086Z" fill="#FFC99A"/>
<ellipse id="joint-01_5" rx="0.658331" ry="0.255668" transform="matrix(-0.999167 -0.0766529 -0.125629 0.988308 59.5938 80.5633)" fill="#DDB18B"/>
<path id="outer_5" d="M60.226 80.6897C60.2379 80.6133 59.1509 80.1505 58.9452 80.671C58.7396 81.1914 58.703 83.2496 58.8855 83.1483C59.068 83.0469 59.608 83.2618 59.6572 83.1034C60.1471 81.5279 60.1118 81.4224 60.226 80.6897Z" fill="#FFC99A"/>
<path id="Ellipse 64_6" d="M58.8716 82.7236C58.8184 83.1423 58.952 83.4952 59.1699 83.5119C59.3879 83.5286 59.6077 83.2028 59.661 82.7842C59.7142 82.3655 59.5806 82.0126 59.3627 81.9958C59.1447 81.9791 58.9248 82.305 58.8716 82.7236Z" fill="#DDB18B"/>
</g>
<g id="middle_2">
<ellipse id="joint-03_6" rx="0.654942" ry="0.283691" transform="matrix(-1.00198 -0.0157219 -0.0652683 0.99412 62.0479 75.7644)" fill="#DDB18B"/>
<path id="inner_6" d="M62.6145 75.8235C62.4516 75.9283 61.6471 75.6711 61.4002 75.8641C61.1533 76.0571 61.221 78.7169 61.2833 78.6904C61.3457 78.6639 62.3953 78.7514 62.4976 78.6498C62.6 78.5481 62.7774 75.7186 62.6145 75.8235Z" fill="#FFC99A"/>
<ellipse id="joint-02_6" rx="0.654942" ry="0.283691" transform="matrix(-1.00198 -0.0157219 -0.0652683 0.99412 61.8575 78.5852)" fill="#DDB18B"/>
<path id="mid_6" d="M62.519 78.5953C62.4063 78.4423 61.3994 78.3861 61.248 78.5777C61.0966 78.7693 61.1005 81.3927 61.1408 81.3719C61.181 81.3511 62.2915 81.4363 62.3339 81.4155C62.3763 81.3948 62.6318 78.7483 62.519 78.5953Z" fill="#FFC99A"/>
<ellipse id="joint-01_6" rx="0.654942" ry="0.283691" transform="matrix(-1.00198 -0.0157219 -0.0652683 0.99412 61.6724 81.4045)" fill="#DDB18B"/>
<path id="outer_6" d="M62.3081 81.5011C62.3158 81.4156 61.2113 80.9785 61.0345 81.5691C60.8578 82.1597 60.9305 84.4413 61.1065 84.3164C61.2825 84.1915 61.8304 84.392 61.8709 84.2132C62.2742 82.4347 62.2335 82.3203 62.3081 81.5011Z" fill="#FFC99A"/>
<path id="Ellipse 64_7" d="M61.073 83.8503C61.0423 84.3176 61.1937 84.6991 61.4112 84.7026C61.6286 84.706 61.8298 84.3299 61.8605 83.8627C61.8911 83.3954 61.7397 83.0138 61.5223 83.0104C61.3048 83.007 61.1037 83.383 61.073 83.8503Z" fill="#DDB18B"/>
</g>
<g id="pinky_2">
<ellipse id="joint-03_7" rx="0.654299" ry="0.210599" transform="matrix(-0.97965 0.210944 0.160902 0.983181 64.7108 75.0482)" fill="#DDB18B"/>
<path id="inner_7" d="M65.2706 74.9674C65.1313 75.0788 64.3002 75.0715 64.0953 75.265C63.8904 75.4584 64.4472 77.3575 64.503 77.3246C64.5589 77.2917 65.5975 77.1228 65.6784 77.027C65.7593 76.9313 65.41 74.8559 65.2706 74.9674Z" fill="#FFC99A"/>
<ellipse id="joint-02_7" rx="0.654299" ry="0.210599" transform="matrix(-0.97965 0.210944 0.160902 0.983181 65.0457 77.1207)" fill="#DDB18B"/>
<path id="mid_7" d="M65.6904 76.9811C65.5525 76.896 64.5616 77.0786 64.4494 77.25C64.3372 77.4215 64.824 79.3085 64.8593 79.2846C64.8947 79.2607 65.9918 79.0759 66.0293 79.0516C66.0668 79.0273 65.8284 77.0662 65.6904 76.9811Z" fill="#FFC99A"/>
<ellipse id="joint-01_7" rx="0.654299" ry="0.210599" transform="matrix(-0.97965 0.210944 0.160902 0.983181 65.3846 79.1913)" fill="#DDB18B"/>
<path id="outer_7" d="M66.021 79.1196C66.0129 79.0564 64.8567 78.9866 64.7933 79.4508C64.7299 79.9149 65.2208 81.5407 65.3692 81.4119C65.5175 81.283 66.088 81.3058 66.0946 81.1682C66.1599 79.799 66.0992 79.7257 66.021 79.1196Z" fill="#FFC99A"/>
<path id="Ellipse 64_8" d="M65.2485 81.0837C65.3046 81.4267 65.5223 81.6678 65.7347 81.622C65.9471 81.5763 66.0738 81.2611 66.0177 80.918C65.9615 80.575 65.7438 80.334 65.5314 80.3797C65.319 80.4254 65.1923 80.7406 65.2485 81.0837Z" fill="#DDB18B"/>
</g>
<g id="ring_2">
<ellipse id="joint-03_8" rx="0.655246" ry="0.255668" transform="matrix(-0.999882 0.0666844 0.0166596 0.996121 63.4131 75.8865)" fill="#DDB18B"/>
<path id="inner_8" d="M63.9845 75.8926C63.8305 75.9999 63.0076 75.8343 62.7769 76.0276C62.5463 76.2209 62.8274 78.6033 62.8874 78.5744C62.9475 78.5455 64.0011 78.539 64.095 78.4394C64.1888 78.3399 64.1385 75.7852 63.9845 75.8926Z" fill="#FFC99A"/>
<ellipse id="joint-02_8" rx="0.655246" ry="0.255668" transform="matrix(-0.999882 0.0666844 0.0166596 0.996121 63.4541 78.4339)" fill="#DDB18B"/>
<path id="mid_8" d="M64.1125 78.3897C63.9878 78.2615 62.9793 78.2922 62.8438 78.4764C62.7083 78.6606 62.9235 81.0155 62.962 80.9935C63.0004 80.9716 64.1145 80.9585 64.1551 80.9365C64.1957 80.9145 64.2372 78.5179 64.1125 78.3897Z" fill="#FFC99A"/>
<ellipse id="joint-01_8" rx="0.655246" ry="0.255668" transform="matrix(-0.999882 0.0666844 0.0166596 0.996121 63.4956 80.9798)" fill="#DDB18B"/>
<path id="outer_8" d="M64.1328 81.0143C64.1336 80.937 62.9971 80.6336 62.8684 81.1781C62.7397 81.7225 62.9961 83.7649 63.1615 83.6387C63.3269 83.5124 63.8894 83.6481 63.9154 83.4843C64.1742 81.8552 64.1244 81.7558 64.1328 81.0143Z" fill="#FFC99A"/>
<path id="Ellipse 64_9" d="M63.0943 83.2242C63.1013 83.6461 63.283 83.9765 63.5001 83.962C63.7172 83.9475 63.8875 83.5937 63.8805 83.1717C63.8734 82.7498 63.6917 82.4195 63.4746 82.4339C63.2575 82.4484 63.0872 82.8022 63.0943 83.2242Z" fill="#DDB18B"/>
</g>
<g id="finger_2">
<path id="inner_9" d="M60.392 72.4174L59.5614 71.2449C59.5614 71.2449 57.5075 71.9366 56.9077 73.0233C56.3079 74.1099 58.4642 73.8386 58.4642 73.8386L60.392 72.4174Z" fill="#F0BF96"/>
<ellipse id="joint-02_9" rx="1.083" ry="0.700887" transform="matrix(-0.816532 -0.589018 -0.727893 0.670724 60.3336 71.831)" fill="#DDB18B"/>
<ellipse id="joint-01_9" rx="0.832058" ry="0.319444" transform="matrix(-1.06087 -0.21116 -0.309503 0.858023 57.6293 73.3738)" fill="#DDB18B"/>
<path id="outer_9" d="M58.4145 73.6277C58.1408 73.5176 56.7457 73.198 56.7457 73.198L55.8797 76.4021C55.8797 76.4021 56.6151 76.8876 57.0601 76.6871C57.5052 76.4867 58.6883 73.7378 58.4145 73.6277Z" fill="#F0BF96"/>
<path id="nail" d="M55.9655 76.1538C55.8017 76.6079 55.943 77.0306 56.281 77.0979C56.6191 77.1652 57.0259 76.8516 57.1897 76.3975C57.3535 75.9433 57.2123 75.5206 56.8742 75.4534C56.5362 75.3861 56.1293 75.6997 55.9655 76.1538Z" fill="#DDB18B"/>
</g>
<path id="palm" d="M58.4965 74.4143C59.9923 77.0919 60.3095 77.7737 62.7876 76.7324C65.8657 76.6346 66.0123 76.6789 65.7265 73.9118C66.1294 71.1316 64.5176 67.9803 62.0127 69.4664C59.6408 68.728 58.1699 71.4906 58.4965 74.4143Z" fill="#FFC99A"/>
</g>
<g id="shoulder_3">
<path id="Rectangle 79_2" d="M56.2765 39.759C54.6885 39.9363 48.7923 42.4972 47.3733 42.9443C45.9543 43.3913 57.6599 55.5987 58.2055 55.4972C58.7511 55.3957 62.3999 53.6939 63.6731 53.4571C64.9462 53.2203 57.8644 39.5817 56.2765 39.759Z" fill="url(#paint3_radial)"/>
<path id="shoulder_4" d="M45.6625 41.4321C46.1087 42.7513 48.0851 48.316 51.3896 46.4336C54.3081 45.5215 57.1132 41.1727 55.99 38.4396C55.5438 37.1204 51.8241 35.1846 48.9056 36.0966C45.9871 37.0087 45.8072 39.4184 45.6625 41.4321Z" fill="#EFC49E"/>
<path id="joint_2" d="M57.8382 56.5817C58.2222 57.7169 57.7868 57.0825 60.5589 57.5226C63.0978 56.7292 64.739 55.156 64.3551 54.0209C63.9711 52.8857 62.2377 52.8947 59.6988 53.6881C57.1598 54.4816 57.4543 55.4465 57.8382 56.5817Z" fill="url(#paint4_radial)"/>
<path id="forarm_2" d="M58.1256 56.4928C58.4204 56.0719 63.4095 54.6043 64.2175 54.8201C65.0255 55.036 65.0367 70.1221 65.0367 70.1221C65.0367 70.1221 60.8309 71.7791 59.5407 69.1613C58.2505 66.5434 57.8307 56.9136 58.1256 56.4928Z" fill="url(#paint5_radial)"/>
</g>
</g>
<path id="neck" d="M32.9906 30.4706C32.9906 26.2603 44.3609 25.444 44.3609 30.4706C44.3609 35.4972 45.2516 42.3189 45.2516 42.3189L38.8482 41.4213L30.9995 42.3189C30.9995 42.3189 32.9906 34.6809 32.9906 30.4706Z" fill="#ECBE97"/>
<path id="chest" d="M28.2119 36.541C35.8745 38.5041 44.9053 38.4238 50.0732 36.541C59.4678 33.1181 48.7797 46.0796 50.8517 71.4134C51.351 77.5196 40.3407 83.4413 38.7373 83.4413C37.134 83.4413 26.0934 77.7289 26.6231 71.4134C28.6725 46.9772 18.6362 34.0877 28.2119 36.541Z" fill="url(#paint6_linear)"/>
<path id="shirt" d="M22.5923 52C18.6832 50.0429 14.8068 48.4545 16.3451 44.3477C17.8795 40.2512 20.7126 33.039 26.5763 34.1065C32.2034 35.1309 39.3653 39.2271 39.3653 39.2271C39.3653 39.2271 47.9348 35 53.5 35C58 35 60 39.227 63 47.5C64.7045 52.2005 62 51.5863 55.5 53.5C53.7857 54.0047 52 49.9807 52 49.9807L52.6658 72L25.0416 71.4883L26.5763 49.9807C26.5763 49.9807 23.615 52.512 22.5923 52Z" fill="#DB0F0F" stroke="black"/>
<path id="pants" d="M50.9998 72H25.9998L25 72.5C25 72.5 19.0001 97 22.9998 122.5C23.7562 127.323 35.5296 127.359 35.9999 122.5C37.4999 107 38.0003 84.5 38.5003 85.5C39.0003 86.5 40.7096 112 41.2095 122.5C41.4603 127.766 54.3112 127.757 54.7095 122.5C57.2096 89.5 51.9998 75 51.9998 75L50.9998 72Z" fill="#828282" stroke="black"/>
<g id="upper-body">
<g id="face">
<g id="hears">
<path id="Vector 13" d="M48.0292 20.3458C46.3938 21.1353 48.3346 22.7541 47.5438 24.1707C47.6626 24.749 48.4247 28.3684 48.6555 27.2175C49.0756 25.1229 48.7162 27.036 49.0313 25.0311C49.3354 23.0958 48.5302 23.9899 49.4071 21.1787C49.69 20.2716 49.5097 19.631 48.0292 20.3458Z" fill="#F0BF96"/>
<path id="Vector 14" d="M28.882 20.0971C30.6286 20.5523 28.9563 22.4927 29.9631 23.7172C29.9358 24.301 29.7467 27.9589 29.3373 26.8858C28.5923 24.9327 29.2487 26.7212 28.6218 24.8352C28.0168 23.0147 28.9559 23.7293 27.6453 21.1676C27.2223 20.3411 27.3009 19.685 28.882 20.0971Z" fill="#F0BF96"/>
</g>
<path id="face_2" d="M48.074 21.9406C46.2671 31.5826 44.3398 34.3129 38.6782 36.904C31.9325 34.1279 30.2461 30.5606 29.0415 21.6798C29.0415 6.70928 29.0415 3.56442 38.977 3.56445C49.8699 3.56449 46.6285 7.60443 48.074 21.9406Z" fill="url(#paint7_radial)"/>
<ellipse id="nose" rx="1.92269" ry="1.0175" transform="matrix(0.999917 0.0128636 -0.0271374 0.999632 38.7006 27.2113)" fill="url(#paint8_linear)"/>
<path id="l-eyebrow" fill-rule="evenodd" clip-rule="evenodd" d="M30.923 19.8032C31.2868 18.9937 31.9992 18.4044 33.0492 18.5326C33.7222 18.5326 34.4589 18.8344 34.9844 19.3354C34.634 18.472 33.8887 17.8761 33.0259 17.8761C32.0146 17.8761 31.1648 18.6948 30.923 19.8032Z" fill="black"/>
<g id="r-eye">
<path id="Vector 9" d="M45.4461 24.5345C44.9724 25.8471 39.7992 24.9336 40.6276 24.5345C41.4561 24.1354 41.23 21.3843 42.796 20.3343C44.3619 19.2842 45.5664 21.253 45.6869 21.5156C46.3426 22.9448 45.4461 24.5345 45.4461 24.5345Z" fill="#DDB18B"/>
<path id="Eyeball" d="M41.4695 23.8567C41.349 25.1693 42.5481 24.9302 43.8787 24.9302C45.2092 24.9302 45.6855 23.5727 45.6855 22.4128C45.3242 21.6253 45.2037 20.73 43.8787 20.73C41.7104 20.73 41.4695 22.6968 41.4695 23.8567Z" fill="white"/>
<path id="Eye-outer-rim" d="M42.4346 22.8053C42.4346 23.8927 42.9739 24.7742 43.6392 24.7742C44.3044 24.7742 44.8438 23.8927 44.8438 22.8053C44.8438 21.7179 44.3044 20.8364 43.6392 20.8364C42.9739 20.8364 42.4346 21.7179 42.4346 22.8053Z" fill="#107960"/>
<g id="Eye-inner-rim">
<path d="M42.5544 22.8298C42.5544 23.8447 43.0398 24.6674 43.6385 24.6674C44.2373 24.6674 44.7227 23.8447 44.7227 22.8298C44.7227 21.8149 44.2373 20.9922 43.6385 20.9922C43.0398 20.9922 42.5544 21.8149 42.5544 22.8298Z" fill="#42B39E"/>
<path d="M42.5544 22.8298C42.5544 23.8447 43.0398 24.6674 43.6385 24.6674C44.2373 24.6674 44.7227 23.8447 44.7227 22.8298C44.7227 21.8149 44.2373 20.9922 43.6385 20.9922C43.0398 20.9922 42.5544 21.8149 42.5544 22.8298Z" fill="url(#paint9_linear)" fill-opacity="0.22"/>
</g>
<path id="Pupil" d="M42.7965 22.83C42.7965 22.4235 42.8806 22.0327 43.0313 21.7394C43.182 21.4461 43.3875 21.273 43.605 21.2562C43.8224 21.2395 44.0349 21.3804 44.198 21.6496C44.3611 21.9187 44.4621 22.2952 44.4801 22.7004C44.498 23.1055 44.4313 23.5079 44.2941 23.8234C44.1568 24.1388 43.9596 24.343 43.7436 24.3931C43.5277 24.4432 43.3097 24.3354 43.1353 24.0922C42.9609 23.849 42.8436 23.4893 42.8079 23.0883L43.6397 22.83H42.7965Z" fill="#3A3A3A"/>
<g id="spec" style="mix-blend-mode:overlay">
<path d="M43.5188 24.6669L43.6393 24.5357L43.7598 24.2732V24.0107L43.5188 23.8794L43.3984 24.0107L43.3226 24.0969L43.2779 24.2732V24.4044L43.3984 24.5357L43.5188 24.6669Z" fill="white"/>
</g>
<g id="spec_2" style="mix-blend-mode:overlay">
<path d="M43.3987 22.1738L43.5192 22.0425L43.6396 21.78V21.5175L43.3987 21.3862L43.2783 21.5175L43.2024 21.6037L43.1578 21.78V21.9113L43.2783 22.0425L43.3987 22.1738Z" fill="white"/>
</g>
<g id="spec_3" style="mix-blend-mode:overlay">
<path d="M44.242 22.5673L44.3625 22.4361L44.4829 22.1736V21.911L44.242 21.7798L44.1215 21.911L44.0457 21.9973L44.0011 22.1736V22.3048L44.1215 22.4361L44.242 22.5673Z" fill="white"/>
</g>
<g id="spec_4" style="mix-blend-mode:overlay">
<path d="M43.3987 22.436L43.5192 22.3047L43.6396 22.0422V21.7797L43.3987 21.6484L43.2783 21.7797L43.2024 21.8659L43.1578 22.0422V22.1735L43.2783 22.3047L43.3987 22.436Z" fill="white"/>
</g>
<path id="Eye-gloss" d="M44.7215 22.9611C44.7215 23.3548 44.103 21.6485 43.6374 21.6485C43.1717 21.6485 42.5532 23.4685 42.5532 22.9611C42.5532 22.4536 42.6737 21.1234 43.6374 20.9922C44.601 21.1234 44.7215 22.4536 44.7215 22.9611Z" fill="url(#paint10_linear)"/>
</g>
<g id="l-eye">
<path id="Vector 9_2" d="M31.3987 24.5345C31.8723 25.8471 37.0456 24.9336 36.2171 24.5345C35.3886 24.1354 35.6147 21.3843 34.0488 20.3343C32.4828 19.2842 31.2783 21.253 31.1578 21.5156C30.5021 22.9448 31.3987 24.5345 31.3987 24.5345Z" fill="#DDB18B"/>
<path id="Eyeball_2" d="M35.3743 23.8567C35.4947 25.1693 34.2956 24.9302 32.9651 24.9302C31.6345 24.9302 31.1582 23.5727 31.1582 22.4128C31.5196 21.6253 31.64 20.73 32.9651 20.73C35.1333 20.73 35.3743 22.6968 35.3743 23.8567Z" fill="white"/>
<path id="Eye-outer-rim_2" d="M34.4102 22.8053C34.4102 23.8927 33.8708 24.7742 33.2056 24.7742C32.5403 24.7742 32.001 23.8927 32.001 22.8053C32.001 21.7179 32.5403 20.8364 33.2056 20.8364C33.8708 20.8364 34.4102 21.7179 34.4102 22.8053Z" fill="#107960"/>
<g id="Eye-inner-rim_2">
<path d="M34.2908 22.8303C34.2908 23.8452 33.8054 24.6679 33.2067 24.6679C32.6079 24.6679 32.1226 23.8452 32.1226 22.8303C32.1226 21.8154 32.6079 20.9927 33.2067 20.9927C33.8054 20.9927 34.2908 21.8154 34.2908 22.8303Z" fill="#42B39E"/>
<path d="M34.2908 22.8303C34.2908 23.8452 33.8054 24.6679 33.2067 24.6679C32.6079 24.6679 32.1226 23.8452 32.1226 22.8303C32.1226 21.8154 32.6079 20.9927 33.2067 20.9927C33.8054 20.9927 34.2908 21.8154 34.2908 22.8303Z" fill="url(#paint11_linear)" fill-opacity="0.22"/>
</g>
<path id="Pupil_2" d="M34.0497 22.83C34.0497 22.4235 33.9656 22.0327 33.8149 21.7394C33.6642 21.4461 33.4587 21.273 33.2412 21.2562C33.0238 21.2395 32.8113 21.3804 32.6482 21.6496C32.4851 21.9187 32.384 22.2952 32.3661 22.7004C32.3482 23.1055 32.4149 23.5079 32.5521 23.8234C32.6894 24.1388 32.8866 24.343 33.1026 24.3931C33.3185 24.4432 33.5365 24.3354 33.7109 24.0922C33.8853 23.849 34.0026 23.4893 34.0383 23.0883L33.2065 22.83H34.0497Z" fill="#3A3A3A"/>
<g id="spec_5" style="mix-blend-mode:overlay">
<path d="M33.3249 24.6669L33.2044 24.5357L33.084 24.2732V24.0107L33.3249 23.8794L33.4454 24.0107L33.5212 24.0969L33.5658 24.2732V24.4044L33.4454 24.5357L33.3249 24.6669Z" fill="white"/>
</g>
<g id="spec_6" style="mix-blend-mode:overlay">
<path d="M33.447 22.1738L33.3265 22.0425L33.2061 21.78V21.5175L33.447 21.3862L33.5674 21.5175L33.6433 21.6037L33.6879 21.78V21.9113L33.5674 22.0425L33.447 22.1738Z" fill="white"/>
</g>
<g id="spec_7" style="mix-blend-mode:overlay">
<path d="M32.6042 22.5673L32.4837 22.4361L32.3633 22.1736V21.911L32.6042 21.7798L32.7247 21.911L32.8005 21.9973L32.8451 22.1736V22.3048L32.7247 22.4361L32.6042 22.5673Z" fill="white"/>
</g>
<g id="spec_8" style="mix-blend-mode:overlay">
<path d="M33.447 22.436L33.3265 22.3047L33.2061 22.0422V21.7797L33.447 21.6484L33.5674 21.7797L33.6433 21.8659L33.6879 22.0422V22.1735L33.5674 22.3047L33.447 22.436Z" fill="white"/>
</g>
<path id="Eye-gloss_2" d="M32.1213 22.9611C32.1213 23.3548 32.7397 21.6485 33.2054 21.6485C33.6711 21.6485 34.2896 23.4685 34.2896 22.9611C34.2896 22.4536 34.1691 21.1234 33.2054 20.9922C32.2418 21.1234 32.1213 22.4536 32.1213 22.9611Z" fill="url(#paint12_linear)"/>
</g>
<path id="r-eyebrow" fill-rule="evenodd" clip-rule="evenodd" d="M45.8571 19.6016C45.464 18.7338 44.6437 18.137 43.6955 18.137C42.8164 18.137 42.0472 18.6501 41.6265 19.4166C41.8754 18.3207 42.7201 17.5141 43.7239 17.5141C44.7833 17.5141 45.6656 18.4127 45.8571 19.6016Z" fill="black"/>
<g id="mouth">
<path id="outer-lip" d="M41.9833 31.3409C41.9549 31.3788 41.9011 31.4356 41.8229 31.5061C41.6664 31.647 41.4187 31.8361 41.1021 32.0257C40.4686 32.405 39.5644 32.7828 38.568 32.7828C37.5714 32.7828 36.6441 32.405 35.964 32.0249C35.6244 31.8351 35.3473 31.6453 35.1553 31.503C35.0593 31.4319 34.9846 31.3727 34.934 31.3314C34.9212 31.321 34.91 31.3117 34.9004 31.3036C34.9082 31.2969 34.917 31.2893 34.9269 31.281C34.9724 31.2423 35.0399 31.1869 35.1273 31.1203C35.3021 30.9871 35.5561 30.8094 35.8728 30.6316C36.5066 30.2758 37.3883 29.9216 38.3854 29.9216C39.3822 29.9216 40.241 30.2757 40.8751 30.6316C41.192 30.8095 41.4521 30.9875 41.6452 31.1216C41.6596 31.1316 41.6736 31.1413 41.6872 31.1508C41.765 31.2049 41.8313 31.2511 41.8842 31.2849C41.9153 31.3049 41.943 31.3214 41.9666 31.3331C41.972 31.3358 41.9775 31.3384 41.9833 31.3409Z" fill="#FCB1A1" fill-opacity="0.73" stroke="#D66D6D" stroke-width="0.1"/>
<path id="inner-lip" d="M41.3205 31.5232C41.2868 31.5518 41.235 31.5903 41.1668 31.6355C41.0118 31.7382 40.7779 31.8723 40.4958 32C39.9302 32.2561 39.1793 32.4831 38.4875 32.3888C37.7898 32.2938 37.1094 32.013 36.6021 31.7548C36.3487 31.6259 36.1392 31.5029 35.9931 31.4122C35.924 31.3694 35.8691 31.3337 35.8305 31.3081C35.8719 31.2847 35.9313 31.2522 36.0062 31.2139C36.1615 31.1345 36.3833 31.0307 36.6487 30.9327C37.1806 30.7366 37.8835 30.5661 38.5775 30.6606C39.2778 30.756 39.9454 30.9714 40.4548 31.1657C40.7094 31.2628 40.9241 31.3545 41.0835 31.4231C41.0954 31.4282 41.107 31.4332 41.1183 31.4381C41.1825 31.4658 41.237 31.4893 41.2798 31.5069C41.2946 31.5129 41.3082 31.5184 41.3205 31.5232Z" fill="url(#paint13_linear)" stroke="#D66D6D" stroke-width="0.1"/>
<g id="mask-lips">
<mask id="mask0" mask-type="alpha" maskUnits="userSpaceOnUse" x="35" y="30" width="7" height="3">
<path id="flap" d="M35.8329 31.3203C35.8662 31.3007 35.9113 31.2748 35.967 31.2444C36.0973 31.1734 36.2855 31.0778 36.5165 30.9805C36.9779 30.7859 37.6079 30.5849 38.2869 30.5551C38.9647 30.6409 39.7096 30.8445 40.2978 31.0387C40.5923 31.136 40.8469 31.2306 41.0334 31.3066C41.1266 31.3445 41.2025 31.3777 41.2576 31.404C41.2851 31.4171 41.307 31.4283 41.3231 31.4374C41.325 31.4385 41.3268 31.4395 41.3285 31.4405C41.3261 31.4434 41.3232 31.4468 41.3198 31.4506C41.2947 31.4785 41.2504 31.5165 41.1874 31.5621C41.0622 31.6525 40.871 31.7665 40.6331 31.88C40.1571 32.1072 39.5001 32.3295 38.8202 32.3587C38.1439 32.3876 37.3823 32.1197 36.7856 31.8408C36.4881 31.7018 36.2334 31.5609 36.053 31.4548C35.9628 31.4017 35.8913 31.3574 35.8424 31.3264C35.8392 31.3243 35.836 31.3223 35.8329 31.3203Z" fill="url(#paint14_linear)" stroke="#D66D6D" stroke-width="0.1"/>
</mask>
<g mask="url(#mask0)">
<path id="Ellipse 50" d="M40.3647 32.098C40.3647 32.1102 40.3581 32.1282 40.3297 32.1517C40.3014 32.1752 40.257 32.1991 40.1963 32.2223C40.0753 32.2686 39.9021 32.3075 39.6975 32.3386C39.2891 32.4006 38.7667 32.4301 38.3145 32.4301C37.864 32.4301 37.458 32.377 37.1662 32.2922C37.02 32.2497 36.9054 32.2001 36.8284 32.1472C36.7498 32.0932 36.7209 32.0435 36.7209 32.0025C36.7209 31.9829 36.7269 31.9729 36.7361 31.9654C36.7478 31.9557 36.7696 31.9463 36.8074 31.9407C36.8832 31.9294 36.9972 31.9367 37.1468 31.9533C37.2081 31.9601 37.2747 31.9683 37.3459 31.9772C37.6163 32.0107 37.9523 32.0525 38.3145 32.0525C38.5428 32.0525 38.7886 32.0419 39.028 32.0303C39.0688 32.0283 39.1094 32.0263 39.1497 32.0243C39.3464 32.0145 39.536 32.0051 39.7061 32.0013C39.9117 31.9968 40.0849 32.0007 40.2058 32.0211C40.2667 32.0314 40.3095 32.0452 40.3359 32.0611C40.3608 32.076 40.3647 32.0882 40.3647 32.098Z" fill="white" stroke="#D66D6D" stroke-width="0.1"/>
<path id="Ellipse 49" d="M40.3943 31.1587C40.3985 31.1611 40.4026 31.1634 40.4065 31.1657C40.3584 31.1698 40.3009 31.1758 40.234 31.1828C39.8888 31.2186 39.2949 31.2803 38.4683 31.255C37.4557 31.224 36.9786 31.1513 36.7413 31.0884C36.6237 31.0572 36.5658 31.0286 36.5308 31.009C36.5295 31.0084 36.5283 31.0076 36.527 31.0069C36.5343 31.0036 36.542 31.0002 36.5503 30.9966C36.6438 30.9559 36.7919 30.9009 36.9781 30.8466C37.3507 30.738 37.8722 30.6333 38.4112 30.6498C38.9501 30.6663 39.523 30.8147 39.9325 30.9608C40.1374 31.0338 40.2992 31.1056 40.3943 31.1587Z" fill="white" stroke="#D66D6D" stroke-width="0.1"/>
</g>
</g>
</g>
<path id="hair" d="M27.034 15.1703L28.4191 22.9016L28.7969 15.1703L29.4027 20.4434L30.2589 14.1148L31.2198 14.4106L33.6629 16.964V12.6591L35.4545 16.0671L36.3077 9.8204C37.1411 18.3114 37.4005 25.1116 38.1419 13.7353C38.5448 7.55195 40.3721 22.9157 41.3982 10.6854L42.4858 14.4106L43.6958 11.9416L45.6666 13.7353L48.7123 22.9016C48.7123 22.9016 52.1625 12.3123 48.4072 7.29506C46.0319 4.12159 43.3456 0.999963 37.7468 1C33.6281 1.00003 30.378 2.59836 28.7969 6.54171C26.6019 12.0164 27.034 15.1703 27.034 15.1703Z" fill="black" stroke="black"/>
</g>
</g>
</g>
<defs>
<radialGradient id="paint0_radial" cx="0" cy="0" r="1" gradientUnits="userSpaceOnUse" gradientTransform="translate(21.9291 46.4883) rotate(127.746) scale(8.49547 4.53527)">
<stop stop-color="#F1BF94"/>
<stop offset="1" stop-color="#FFC99A"/>
</radialGradient>
<radialGradient id="paint1_radial" cx="0" cy="0" r="1" gradientUnits="userSpaceOnUse" gradientTransform="translate(17.8505 53.3274) rotate(113.621) scale(2.16982 4.81513)">
<stop stop-color="#F1BF94"/>
<stop offset="1" stop-color="#FFC99A"/>
</radialGradient>
<radialGradient id="paint2_radial" cx="0" cy="0" r="1" gradientUnits="userSpaceOnUse" gradientTransform="translate(15.6758 61.6376) rotate(101.425) scale(8.39678 4.67028)">
<stop stop-color="#F1BF94"/>
<stop offset="1" stop-color="#FFC99A"/>
</radialGradient>
<radialGradient id="paint3_radial" cx="0" cy="0" r="1" gradientUnits="userSpaceOnUse" gradientTransform="translate(56.3884 48.3026) rotate(57.1876) scale(8.49547 4.53527)">
<stop stop-color="#F1BF94"/>
<stop offset="1" stop-color="#FFC99A"/>
</radialGradient>
<radialGradient id="paint4_radial" cx="0" cy="0" r="1" gradientUnits="userSpaceOnUse" gradientTransform="translate(59.8636 55.4672) rotate(71.3126) scale(2.16982 4.81513)">
<stop stop-color="#F1BF94"/>
<stop offset="1" stop-color="#FFC99A"/>
</radialGradient>
<radialGradient id="paint5_radial" cx="0" cy="0" r="1" gradientUnits="userSpaceOnUse" gradientTransform="translate(61.3153 63.9337) rotate(83.5089) scale(8.39678 4.67028)">
<stop stop-color="#F1BF94"/>
<stop offset="1" stop-color="#FFC99A"/>
</radialGradient>
<linearGradient id="paint6_linear" x1="39.1878" y1="-1.48473" x2="38.9966" y2="78.6065" gradientUnits="userSpaceOnUse">
<stop stop-color="#FFDDBF"/>
<stop offset="1" stop-color="#E7B68C"/>
</linearGradient>
<radialGradient id="paint7_radial" cx="0" cy="0" r="1" gradientUnits="userSpaceOnUse" gradientTransform="translate(39.2929 20.5202) rotate(90) scale(17.3041 10.1788)">
<stop offset="0.00229517" stop-color="#F8E0CC"/>
<stop offset="1" stop-color="#E6A773" stop-opacity="0.99"/>
</radialGradient>
<linearGradient id="paint8_linear" x1="1.92269" y1="0" x2="1.92269" y2="2.03501" gradientUnits="userSpaceOnUse">
<stop stop-color="#FFCFB0" stop-opacity="0.54"/>
<stop offset="1" stop-color="#FFB180"/>
</linearGradient>
<linearGradient id="paint9_linear" x1="43.6385" y1="20.9922" x2="43.6385" y2="24.6674" gradientUnits="userSpaceOnUse">
<stop stop-opacity="0"/>
<stop offset="0.765625"/>
<stop offset="1"/>
</linearGradient>
<linearGradient id="paint10_linear" x1="43.5169" y1="22.5673" x2="43.5169" y2="24.4049" gradientUnits="userSpaceOnUse">
<stop stop-color="#00936F" stop-opacity="0.46"/>
<stop offset="0.0001" stop-opacity="0.818347"/>
<stop offset="0.0002" stop-opacity="0.816101"/>
<stop offset="0.0003" stop-color="#00936F" stop-opacity="0.57724"/>
<stop offset="1" stop-color="#003A2C" stop-opacity="0"/>
</linearGradient>
<linearGradient id="paint11_linear" x1="33.2067" y1="20.9927" x2="33.2067" y2="24.6679" gradientUnits="userSpaceOnUse">
<stop stop-opacity="0"/>
<stop offset="0.765625"/>
<stop offset="1"/>
</linearGradient>
<linearGradient id="paint12_linear" x1="33.3259" y1="22.5673" x2="33.3259" y2="24.4049" gradientUnits="userSpaceOnUse">
<stop stop-color="#00936F" stop-opacity="0.46"/>
<stop offset="0.0001" stop-opacity="0.818347"/>
<stop offset="0.0002" stop-opacity="0.816101"/>
<stop offset="0.0003" stop-color="#00936F" stop-opacity="0.57724"/>
<stop offset="1" stop-color="#003A2C" stop-opacity="0"/>
</linearGradient>
<linearGradient id="paint13_linear" x1="38.5172" y1="30.553" x2="38.2853" y2="32.2554" gradientUnits="userSpaceOnUse">
<stop stop-color="#A50505"/>
<stop offset="1" stop-color="#750202"/>
</linearGradient>
<linearGradient id="paint14_linear" x1="38.3599" y1="30.5017" x2="38.4334" y2="32.2188" gradientUnits="userSpaceOnUse">
<stop stop-color="#9D0101"/>
<stop offset="1" stop-color="#6A0808"/>
</linearGradient>
</defs>
</svg>
