<svg width="97" height="137" viewBox="0 0 97 137" fill="none" xmlns="http://www.w3.org/2000/svg">
<g id="Tim">
<ellipse id="floor" cx="44.5" cy="114.5" rx="44.5" ry="22.5" fill="#262424"/>
<path id="chest" d="M32.2124 32.541C39.875 34.5041 48.9057 34.4238 54.0737 32.541C63.4683 29.1181 52.7802 42.0796 54.8521 67.4134C55.3515 73.5196 44.3412 79.4413 42.7378 79.4413C41.1345 79.4413 30.0939 73.7289 30.6236 67.4134C32.673 42.9772 22.6367 30.0877 32.2124 32.541Z" fill="url(#paint0_linear)"/>
<g id="l-leg">
<g id="l-thigh">
<path id="l-quad-joint" d="M42.9991 76.3064C42.9991 79.0049 39.4612 77.7722 36.0685 77.7722C30.2406 78.7495 32.4458 70.4431 32.4458 70.4431C32.4458 70.4431 32.6758 68 36.0685 68C39.4612 68 42.9991 73.6079 42.9991 76.3064Z" fill="#DDB18B"/>
<path id="l-quads" d="M33.5118 72.1318C35.001 71.3125 39.0485 72.5681 41.217 77.344C44.4786 84.5274 40.6145 96.3727 40.6145 96.3727L31.4081 96.5451C31.4081 96.5451 26.9948 75.7172 33.5118 72.1318Z" fill="#E8B890"/>
</g>
<g id="leg">
<path id="l-caft" d="M30.8641 98.7484C32.7727 93.6497 40.5589 93.5743 40.9452 99.1131C41.5713 108.09 40.4877 111.32 39.0981 121.014C38.3049 126.547 30.6773 127.484 29.6384 122.006C27.3041 109.697 27.3031 108.261 30.8641 98.7484Z" fill="#E8B890"/>
<ellipse id="l-knee" cx="36.1801" cy="97.262" rx="5.11464" ry="2.33378" fill="#DDB18B"/>
<path id="l-shoe" d="M41.5 124.032C41.5 129.5 42.3245 130.5 35.3245 130.5C28.3245 130.5 28.8247 130.532 28.3245 124.032C26.8247 120.532 31.7346 119.032 35.3245 119.032C38.9143 119.032 41.6755 119 41.5 124.032Z" fill="black"/>
</g>
</g>
<g id="r-leg">
<g id="quads">
<path id="Ellipse 55" d="M44 76.3064C44 79.0049 47.5379 77.7722 50.9306 77.7722C56.7584 78.7495 54.5532 70.4431 54.5532 70.4431C54.5532 70.4431 54.3232 68 50.9306 68C47.5379 68 44 73.6079 44 76.3064Z" fill="#DDB18B"/>
<path id="Rectangle 81" d="M53.4872 72.1323C51.998 71.3129 47.9506 72.5686 45.7821 77.3444C42.5205 84.5278 46.3845 96.3732 46.3845 96.3732L55.5909 96.5455C55.5909 96.5455 60.0042 75.7177 53.4872 72.1323Z" fill="#E8B890"/>
</g>
<g id="leg_2">
<path id="Rectangle 83" d="M56.1354 98.7491C54.2268 93.6504 46.4406 93.575 46.0543 99.1139C45.4283 108.09 46.5119 111.321 47.9015 121.014C48.6946 126.547 56.3222 127.485 57.3612 122.007C59.6955 109.698 59.6964 108.262 56.1354 98.7491Z" fill="#E8B890"/>
<ellipse id="Ellipse 57" rx="5.11462" ry="2.33378" transform="matrix(-1 0 0 1 50.82 97.2627)" fill="#DDB18B"/>
<path id="r-shoe" d="M59.4531 125C59.4531 130.468 60.2776 131.468 53.2776 131.468C46.2776 131.468 46.7778 131.5 46.2776 125C44.7778 121.5 49.6878 120 53.2776 120C56.8675 120 59.6286 119.968 59.4531 125Z" fill="black"/>
</g>
</g>
<g id="face">
<path id="neck" d="M37.9906 26.4706C37.9906 22.2603 49.3609 21.444 49.3609 26.4706C49.3609 31.4972 50.2516 38.3189 50.2516 38.3189L43.8482 37.4213L35.9995 38.3189C35.9995 38.3189 37.9906 30.6809 37.9906 26.4706Z" fill="#ECBE97"/>
<g id="l-hear">
<path id="Vector 14" d="M33.8687 17.447C35.6203 17.9036 33.9333 19.8538 34.9586 21.0778C34.9913 21.6521 35.1377 24.8163 34.3417 24.0203C33.3417 23.0203 33.3417 23.5203 32.8417 22.0203C32.235 20.2004 32.8418 21.0205 32.3418 18.5201C32.1583 17.6028 32.2876 17.0349 33.8687 17.447Z" fill="#F0BF96"/>
<path id="Ellipse 65" d="M34.3418 21.0203C34.3418 21.2964 34.6179 23.0203 34.3418 23.0203C34.0657 23.0203 33.0237 21.4067 33.3416 21.0205C33.3416 20.7444 33.0653 18.0203 33.3414 18.0203C33.6176 18.0203 34.0241 20.4063 34.3418 21.0203Z" fill="#DDAC83"/>
</g>
<g id="r-hear">
<path id="Vector 14_2" d="M52.7441 17.447C50.9925 17.9036 52.6795 19.8538 51.6542 21.0778C51.6215 21.6521 51.4751 24.8163 52.2711 24.0203C53.2711 23.0203 53.2711 23.5203 53.7711 22.0203C54.3778 20.2004 53.771 21.0205 54.271 18.5201C54.4545 17.6028 54.3252 17.0349 52.7441 17.447Z" fill="#F0BF96"/>
<path id="Ellipse 65_2" d="M52.271 21.0203C52.271 21.2964 51.9949 23.0203 52.271 23.0203C52.5471 23.0203 53.5891 21.4067 53.2712 21.0205C53.2712 20.7444 53.5475 18.0203 53.2714 18.0203C52.9952 18.0203 52.5887 20.4063 52.271 21.0203Z" fill="#DDAC83"/>
</g>
<path id="surface" d="M53 21.7795C51.1962 29.0097 49.2722 31.0571 43.6203 33C36.8861 30.9183 35.2025 28.2433 34 21.584C34 10.3582 36.5 9 43.6203 9C51.5 9 51.557 11.0294 53 21.7795Z" fill="url(#paint1_radial)"/>
<ellipse id="nose" rx="1.92269" ry="1.0175" transform="matrix(0.999917 0.0128636 -0.0271374 0.999632 43.7006 23.2113)" fill="url(#paint2_linear)"/>
<path id="l-eyebrow" fill-rule="evenodd" clip-rule="evenodd" d="M36.0002 17.9272C36.3639 17.1177 37.0764 16.5284 38.1264 16.6566C38.7993 16.6566 39.5361 16.9584 40.0615 17.4594C39.7111 16.596 38.9658 16.0001 38.1031 16.0001C37.0918 16.0001 36.2419 16.8188 36.0002 17.9272Z" fill="black"/>
<g id="r-eye">
<path id="r-eye-ball" d="M45.9314 20.2136C45.8109 20.9725 47.01 20.8342 48.3406 20.8342C49.6711 20.8342 50.1475 20.0493 50.1475 19.3787C49.7861 18.9234 49.6656 18.4058 48.3406 18.4058C46.1723 18.4058 45.9314 19.543 45.9314 20.2136Z" fill="white"/>
<path id="Eye-outer-rim" d="M46.8965 19.6056C46.8965 20.2343 47.4358 20.744 48.1011 20.744C48.7664 20.744 49.3057 20.2343 49.3057 19.6056C49.3057 18.9769 48.7664 18.4673 48.1011 18.4673C47.4358 18.4673 46.8965 18.9769 46.8965 19.6056Z" fill="#107960"/>
<g id="Eye-inner-rim">
<path d="M47.0163 19.6198C47.0163 20.2066 47.5017 20.6823 48.1004 20.6823C48.6992 20.6823 49.1846 20.2066 49.1846 19.6198C49.1846 19.0331 48.6992 18.5574 48.1004 18.5574C47.5017 18.5574 47.0163 19.0331 47.0163 19.6198Z" fill="#42B39E"/>
<path d="M47.0163 19.6198C47.0163 20.2066 47.5017 20.6823 48.1004 20.6823C48.6992 20.6823 49.1846 20.2066 49.1846 19.6198C49.1846 19.0331 48.6992 18.5574 48.1004 18.5574C47.5017 18.5574 47.0163 19.0331 47.0163 19.6198Z" fill="url(#paint3_linear)" fill-opacity="0.22"/>
</g>
<path id="Pupil" d="M48.9447 19.6199C48.9447 19.3849 48.8606 19.1589 48.7099 18.9894C48.5592 18.8198 48.3537 18.7197 48.1362 18.71C47.9188 18.7003 47.7063 18.7818 47.5432 18.9374C47.3801 19.093 47.2791 19.3107 47.2612 19.545C47.2433 19.7792 47.3099 20.0119 47.4471 20.1943C47.5844 20.3766 47.7816 20.4947 47.9976 20.5236C48.2135 20.5526 48.4315 20.4903 48.6059 20.3497C48.7803 20.2091 48.8976 20.0011 48.9333 19.7693L48.1015 19.6199H48.9447Z" fill="#3A3A3A"/>
<g id="spec" style="mix-blend-mode:overlay">
<path d="M47.9808 20.6819L48.1012 20.606L48.2217 20.4542V20.3025L47.9808 20.2266L47.8603 20.3025L47.7845 20.3523L47.7398 20.4542V20.5301L47.8603 20.606L47.9808 20.6819Z" fill="white"/>
</g>
<g id="spec_2" style="mix-blend-mode:overlay">
<path d="M47.8606 19.2405L47.9811 19.1646L48.1016 19.0128V18.861L47.8606 18.7852L47.7402 18.861L47.6644 18.9109L47.6197 19.0128V19.0887L47.7402 19.1646L47.8606 19.2405Z" fill="white"/>
</g>
<g id="spec_3" style="mix-blend-mode:overlay">
<path d="M48.7039 19.468L48.8244 19.3921L48.9448 19.2404V19.0886L48.7039 19.0127L48.5834 19.0886L48.5076 19.1384L48.463 19.2404V19.3163L48.5834 19.3921L48.7039 19.468Z" fill="white"/>
</g>
<g id="spec_4" style="mix-blend-mode:overlay">
<path d="M47.8606 19.3921L47.9811 19.3162L48.1016 19.1644V19.0127L47.8606 18.9368L47.7402 19.0127L47.6644 19.0625L47.6197 19.1644V19.2403L47.7402 19.3162L47.8606 19.3921Z" fill="white"/>
</g>
<path id="Eye-gloss" d="M49.1834 19.6957C49.1834 19.9234 48.565 18.9368 48.0993 18.9368C47.6336 18.9368 47.0151 19.9891 47.0151 19.6957C47.0151 19.4023 47.1356 18.6333 48.0993 18.5574C49.0629 18.6333 49.1834 19.4023 49.1834 19.6957Z" fill="url(#paint4_linear)"/>
</g>
<g id="l-eye">
<path id="Eyeball" d="M40.4563 20.2136C40.5767 20.9725 39.3777 20.8342 38.0471 20.8342C36.7166 20.8342 36.2402 20.0493 36.2402 19.3787C36.6016 18.9234 36.7221 18.4058 38.0471 18.4058C40.2154 18.4058 40.4563 19.543 40.4563 20.2136Z" fill="white"/>
<path id="Eye-outer-rim_2" d="M39.4922 19.6056C39.4922 20.2343 38.9529 20.744 38.2876 20.744C37.6223 20.744 37.083 20.2343 37.083 19.6056C37.083 18.9769 37.6223 18.4673 38.2876 18.4673C38.9529 18.4673 39.4922 18.9769 39.4922 19.6056Z" fill="#107960"/>
<g id="Eye-inner-rim_2">
<path d="M39.3728 19.6201C39.3728 20.2069 38.8875 20.6825 38.2887 20.6825C37.69 20.6825 37.2046 20.2069 37.2046 19.6201C37.2046 19.0333 37.69 18.5576 38.2887 18.5576C38.8875 18.5576 39.3728 19.0333 39.3728 19.6201Z" fill="#42B39E"/>
<path d="M39.3728 19.6201C39.3728 20.2069 38.8875 20.6825 38.2887 20.6825C37.69 20.6825 37.2046 20.2069 37.2046 19.6201C37.2046 19.0333 37.69 18.5576 38.2887 18.5576C38.8875 18.5576 39.3728 19.0333 39.3728 19.6201Z" fill="url(#paint5_linear)" fill-opacity="0.22"/>
</g>
<path id="Pupil_2" d="M39.1317 19.6199C39.1317 19.3849 39.0476 19.1589 38.8969 18.9894C38.7462 18.8198 38.5407 18.7197 38.3232 18.71C38.1058 18.7003 37.8933 18.7818 37.7302 18.9374C37.5671 19.093 37.4661 19.3107 37.4482 19.545C37.4303 19.7792 37.4969 20.0119 37.6342 20.1943C37.7714 20.3766 37.9686 20.4947 38.1846 20.5236C38.4006 20.5526 38.6185 20.4903 38.7929 20.3497C38.9673 20.2091 39.0846 20.0011 39.1203 19.7693L38.2885 19.6199H39.1317Z" fill="#3A3A3A"/>
<g id="spec_5" style="mix-blend-mode:overlay">
<path d="M38.4069 20.6819L38.2865 20.606L38.166 20.4542V20.3025L38.4069 20.2266L38.5274 20.3025L38.6032 20.3523L38.6479 20.4542V20.5301L38.5274 20.606L38.4069 20.6819Z" fill="white"/>
</g>
<g id="spec_6" style="mix-blend-mode:overlay">
<path d="M38.529 19.2405L38.4085 19.1646L38.2881 19.0128V18.861L38.529 18.7852L38.6495 18.861L38.7253 18.9109L38.7699 19.0128V19.0887L38.6495 19.1646L38.529 19.2405Z" fill="white"/>
</g>
<g id="spec_7" style="mix-blend-mode:overlay">
<path d="M37.6862 19.468L37.5658 19.3921L37.4453 19.2404V19.0886L37.6862 19.0127L37.8067 19.0886L37.8825 19.1384L37.9271 19.2404V19.3163L37.8067 19.3921L37.6862 19.468Z" fill="white"/>
</g>
<g id="spec_8" style="mix-blend-mode:overlay">
<path d="M38.529 19.3919L38.4085 19.316L38.2881 19.1642V19.0124L38.529 18.9365L38.6495 19.0124L38.7253 19.0623L38.7699 19.1642V19.2401L38.6495 19.316L38.529 19.3919Z" fill="white"/>
</g>
<path id="Eye-gloss_2" d="M37.2033 19.6955C37.2033 19.9231 37.8218 18.9366 38.2875 18.9366C38.7531 18.9366 39.3716 19.9889 39.3716 19.6955C39.3716 19.4021 39.2511 18.633 38.2875 18.5571C37.3238 18.633 37.2033 19.4021 37.2033 19.6955Z" fill="url(#paint6_linear)"/>
</g>
<path id="r-eyebrow" fill-rule="evenodd" clip-rule="evenodd" d="M50.2306 18.0874C49.8375 17.2197 49.0173 16.6228 48.0691 16.6228C47.1899 16.6228 46.4207 17.136 46 17.9024C46.2489 16.8065 47.0936 15.9999 48.0974 15.9999C49.1569 15.9999 50.0391 16.8985 50.2306 18.0874Z" fill="black"/>
<g id="mouth">
<path id="outer-lip" d="M47.0383 27.3044C47.2209 27.3044 45.5856 28.8328 43.5685 28.8328C41.5513 28.8328 39.8247 27.3044 39.8247 27.3044C39.8247 27.3044 41.3687 25.8716 43.3858 25.8716C45.403 25.8716 46.8556 27.3044 47.0383 27.3044Z" fill="#DDB18B"/>
<path id="Vector 15" d="M42.0009 27.5C42.0009 27.5 43.501 28.0002 45.0009 27.5001" stroke="#D66D6D" stroke-width="0.2"/>
<g id="mask-lips">
<mask id="mask0" mask-type="alpha" maskUnits="userSpaceOnUse" x="41" y="27" width="6" height="1">
<path id="flap" d="M46.6569 27.481C46.7498 27.5233 45.4717 27.9122 44.0945 27.9395C42.7172 27.9667 41.0124 27.4359 41.0124 27.4359C41.0124 27.4359 42.3961 27.0842 43.7734 27.0569C45.1401 27.1364 46.564 27.4386 46.6569 27.481Z" fill="url(#paint7_linear)"/>
</mask>
<g mask="url(#mask0)">
<path id="inner-lip" d="M46.6664 27.5353C46.7942 27.5433 45.1657 28.0422 43.7545 27.9533C42.3434 27.8644 41.0073 27.4392 41.0073 27.4392C41.0073 27.4392 42.4392 27.044 43.8503 27.1329C45.2614 27.2218 46.5386 27.5272 46.6664 27.5353Z" fill="url(#paint8_linear)"/>
<path id="Ellipse 50" d="M45.6881 27.7959C45.6881 27.9179 44.4957 27.9726 43.5879 27.9726C42.6802 27.9726 41.9443 27.8737 41.9443 27.7517C41.9443 27.6298 42.6802 27.7517 43.5879 27.7517C44.4957 27.7517 45.6881 27.6739 45.6881 27.7959Z" fill="white"/>
<path id="Ellipse 49" d="M45.7639 27.3852C45.5287 27.3898 44.8322 27.4445 43.7404 27.4291C41.7132 27.4004 41.8135 27.2945 41.6959 27.2968C41.5782 27.2991 42.5942 27.0876 43.686 27.103C44.7779 27.1185 45.9992 27.3805 45.7639 27.3852Z" fill="white"/>
</g>
</g>
</g>
<path id="hair" d="M34.0133 5.73087C33.9843 3.45736 34.7738 2.965 34.7738 2.965L35.5619 4.74521L37.1373 0V5.06608L38.7122 4.07687L39.1061 1.4825L40.646 5.06608L41.0757 5.73087C41.0757 5.73087 43.2486 -5.16995 43.8326 3.26271C44.15 7.84612 45.3762 -2.77173 46.1845 6.29399L48.1648 2.15084L48.6899 6.79454L51.0889 0C51.0889 0 54.029 13.356 49.346 14.825C46.9829 15.5662 47.4546 13.7131 43.0445 13.7131C39.8002 13.7131 38.9567 15.1055 36.7429 14.0837C33.4869 12.581 34.0569 9.14338 34.0133 5.73087Z" fill="black"/>
</g>
<g id="l-arm-hand">
<g id="l-hand">
<g id="hand">
<g id="index">
<ellipse id="joint-03" rx="0.658332" ry="0.255668" transform="matrix(0.983408 -0.192665 0.24004 0.96691 23.3787 72.0964)" fill="#DDB18B"/>
<path id="inner" d="M22.8285 72.2469C23.0061 72.3116 23.7625 71.943 24.0369 72.0713C24.3112 72.1996 24.6569 74.5726 24.5911 74.5599C24.5252 74.5472 23.4998 74.8079 23.3827 74.7355C23.2657 74.663 22.651 72.1822 22.8285 72.2469Z" fill="#FFC99A"/>
<ellipse id="joint-02" rx="0.658331" ry="0.255668" transform="matrix(0.983408 -0.192665 0.24004 0.96691 24.0086 74.5652)" fill="#FFC99A"/>
<path id="mid" d="M23.3541 74.6939C23.4422 74.5378 24.4294 74.3072 24.6084 74.4503C24.7874 74.5934 25.1841 76.9246 25.1411 76.9133C25.0981 76.902 24.0129 77.1768 23.9678 77.166C23.9227 77.1552 23.266 74.85 23.3541 74.6939Z" fill="#FFC99A"/>
<ellipse id="joint-01" rx="0.658331" ry="0.255668" transform="matrix(0.983408 -0.192665 0.24004 0.96691 24.6199 77.0396)" fill="#FFC99A"/>
<path id="outer" d="M24.0067 77.2389C23.986 77.1643 25.0115 76.5779 25.2765 77.0709C25.5415 77.5638 25.8179 79.6037 25.6248 79.5243C25.4317 79.4449 24.9205 79.7213 24.8531 79.5697C24.1828 78.0622 24.2055 77.9532 24.0067 77.2389Z" fill="#FFC99A"/>
<path id="Ellipse 64" d="M25.5889 79.1011C25.6906 79.5107 25.5991 79.8768 25.3846 79.9189C25.1701 79.9609 24.9137 79.6629 24.812 79.2533C24.7104 78.8438 24.8018 78.4776 25.0164 78.4356C25.2309 78.3936 25.4872 78.6916 25.5889 79.1011Z" fill="#DDB18B"/>
</g>
<g id="middle">
<ellipse id="joint-03_2" rx="0.654942" ry="0.283691" transform="matrix(0.993308 -0.132478 0.180769 0.979723 21.6223 72.5596)" fill="#DDB18B"/>
<path id="inner_2" d="M21.067 72.6843C21.241 72.7695 22.01 72.4202 22.2777 72.5831C22.5454 72.7459 22.7885 75.3956 22.7234 75.3765C22.6584 75.3574 21.6262 75.5668 21.5127 75.4777C21.3992 75.3887 20.893 72.5992 21.067 72.6843Z" fill="#FFC99A"/>
<ellipse id="joint-02_2" rx="0.654942" ry="0.283691" transform="matrix(0.993308 -0.132478 0.180769 0.979723 22.1408 75.3391)" fill="#FFC99A"/>
<path id="mid_2" d="M21.4846 75.4265C21.5787 75.2614 22.5722 75.0881 22.7449 75.2607C22.9176 75.4334 23.2197 78.0394 23.1773 78.0234C23.1349 78.0074 22.0419 78.2215 21.9974 78.2059C21.9529 78.1902 21.3905 75.5916 21.4846 75.4265Z" fill="#FFC99A"/>
<ellipse id="joint-01_2" rx="0.654942" ry="0.283691" transform="matrix(0.993308 -0.132478 0.180769 0.979723 22.6535 78.1177)" fill="#FFC99A"/>
<path id="outer_2" d="M22.0329 78.2877C22.0152 78.2037 23.0612 77.6407 23.3056 78.2066C23.5501 78.7726 23.7439 81.0471 23.5546 80.9436C23.3652 80.8401 22.8445 81.1031 22.7833 80.9303C22.1754 79.211 22.2025 79.0926 22.0329 78.2877Z" fill="#FFC99A"/>
<path id="Ellipse 64_2" d="M23.5341 80.4768C23.6191 80.9373 23.5132 81.3339 23.2976 81.3626C23.0821 81.3914 22.8384 81.0414 22.7535 80.5809C22.6685 80.1204 22.7744 79.7238 22.9899 79.695C23.2055 79.6663 23.4492 80.0163 23.5341 80.4768Z" fill="#DDB18B"/>
</g>
<g id="pinky">
<ellipse id="joint-03_3" rx="0.654299" ry="0.210599" transform="matrix(0.997567 0.0952452 -0.0451334 0.995238 18.8952 72.1591)" fill="#DDB18B"/>
<path id="inner_3" d="M18.3293 72.1442C18.4807 72.2386 19.3053 72.1344 19.5313 72.3027C19.7574 72.4709 19.4259 74.422 19.3666 74.3958C19.3073 74.3697 18.2561 74.323 18.1646 74.2374C18.073 74.1517 18.1779 72.0497 18.3293 72.1442Z" fill="#FFC99A"/>
<ellipse id="joint-02_3" rx="0.654299" ry="0.210599" transform="matrix(0.997567 0.0952452 -0.0451334 0.995238 18.8043 74.2565)" fill="#FFC99A"/>
<path id="mid_3" d="M18.1475 74.193C18.2746 74.0924 19.2801 74.1582 19.4115 74.3154C19.5429 74.4726 19.2795 76.4036 19.2416 76.3839C19.2037 76.3643 18.0925 76.3087 18.0525 76.289C18.0124 76.2692 18.0205 74.2936 18.1475 74.193Z" fill="#FFC99A"/>
<ellipse id="joint-01_3" rx="0.654299" ry="0.210599" transform="matrix(0.997567 0.0952452 -0.0451334 0.995238 18.7086 76.3525)" fill="#FFC99A"/>
<path id="outer_3" d="M18.0686 76.3555C18.0694 76.2917 19.2095 76.0876 19.3266 76.5412C19.4437 76.9948 19.1458 78.6668 18.9834 78.5561C18.821 78.4454 18.2571 78.5346 18.2345 78.3987C18.0099 77.0464 18.0617 76.9665 18.0686 76.3555Z" fill="#FFC99A"/>
<path id="Ellipse 64_3" d="M19.0648 78.216C19.049 78.5633 18.8609 78.8281 18.6447 78.8074C18.4284 78.7868 18.2658 78.4885 18.2815 78.1412C18.2973 77.794 18.4854 77.5292 18.7017 77.5498C18.918 77.5705 19.0805 77.8688 19.0648 78.216Z" fill="#DDB18B"/>
</g>
<g id="ring">
<ellipse id="joint-03_4" rx="0.655246" ry="0.255668" transform="matrix(1.00084 -0.0503891 0.0996338 0.991266 20.2819 72.84)" fill="#DDB18B"/>
<path id="inner_4" d="M19.7148 72.9128C19.8803 73.0015 20.6782 72.741 20.9298 72.906C21.1814 73.0711 21.1801 75.4701 21.1171 75.4484C21.0541 75.4267 20.0069 75.5431 19.9021 75.4552C19.7973 75.3672 19.5493 72.8241 19.7148 72.9128Z" fill="#FFC99A"/>
<ellipse id="joint-02_4" rx="0.655246" ry="0.255668" transform="matrix(1.00084 -0.0503891 0.0996338 0.991266 20.5382 75.3747)" fill="#FFC99A"/>
<path id="mid_4" d="M19.8786 75.4077C19.9875 75.2658 20.9927 75.1786 21.1488 75.3458C21.3049 75.513 21.3658 77.8769 21.325 77.8596C21.2843 77.8422 20.1762 77.9592 20.1333 77.942C20.0904 77.9249 19.7697 75.5496 19.8786 75.4077Z" fill="#FFC99A"/>
<ellipse id="joint-01_4" rx="0.655246" ry="0.255668" transform="matrix(1.00084 -0.0503891 0.0996338 0.991266 20.7936 77.9082)" fill="#FFC99A"/>
<path id="outer_4" d="M20.1643 78.0167C20.1544 77.94 21.2478 77.5062 21.4391 78.0319C21.6304 78.5577 21.614 80.616 21.4349 80.5099C21.2559 80.4038 20.7132 80.6042 20.6682 80.4446C20.2212 78.8567 20.259 78.7522 20.1643 78.0167Z" fill="#FFC99A"/>
<path id="Ellipse 64_4" d="M21.4542 80.0903C21.4964 80.5102 21.3544 80.8595 21.1371 80.8704C20.9198 80.8814 20.7094 80.5498 20.6672 80.1299C20.625 79.71 20.767 79.3608 20.9843 79.3498C21.2016 79.3389 21.412 79.6704 21.4542 80.0903Z" fill="#DDB18B"/>
</g>
<g id="finger">
<path id="inner_5" d="M22.8778 69.0425L23.5659 67.7812C23.5659 67.7812 25.6865 68.2286 26.409 69.2379C27.1314 70.2471 24.9582 70.2292 24.9582 70.2292L22.8778 69.0425Z" fill="#F5C296"/>
<ellipse id="joint-02_5" rx="1.083" ry="0.700887" transform="matrix(0.742261 -0.680232 0.801153 0.581251 22.8673 68.4534)" fill="#DDB18B"/>
<ellipse id="joint-01_5" rx="0.832058" ry="0.319444" transform="matrix(1.029 -0.333451 0.407464 0.816069 25.7329 69.6705)" fill="#FFC99A"/>
<path id="outer_5" d="M24.9831 70.014C25.2421 69.8728 26.5904 69.3926 26.5904 69.3926L27.8242 72.4739C27.8242 72.4739 27.1504 73.0418 26.685 72.8946C26.2196 72.7475 24.724 70.1553 24.9831 70.014Z" fill="#F5C296"/>
<path id="nail" d="M27.7093 72.2374C27.9249 72.6693 27.8339 73.1056 27.506 73.2118C27.1781 73.3181 26.7375 73.0541 26.5218 72.6222C26.3062 72.1902 26.3972 71.754 26.7251 71.6477C27.053 71.5414 27.4936 71.8054 27.7093 72.2374Z" fill="#DDB18B"/>
</g>
<path id="palm" d="M24.9922 70.805C23.8189 73.6387 23.5834 74.3529 21.0007 73.6078C17.9323 73.8696 17.7918 73.9307 17.7529 71.1492C17.0286 68.4349 18.2618 65.1171 20.9229 66.301C23.1925 65.2909 24.9756 67.8631 24.9922 70.805Z" fill="#FFC99A"/>
</g>
<path id="forarm" d="M23.2707 52.9624C22.9288 52.5788 17.8026 51.703 17.0253 52.0117C16.2479 52.3203 17.9963 67.3048 17.9963 67.3048C17.9963 67.3048 22.3667 68.4599 23.3428 65.7095C24.3189 62.959 23.6126 53.346 23.2707 52.9624Z" fill="url(#paint9_radial)"/>
</g>
<path id="l-elbow" d="M17.5559 54.5826C16.4995 52.5002 16.4996 50.0002 18.9314 48.786C20.9136 47.3012 25.5942 45.1125 26.4313 46.286C27.2685 47.4595 27.4314 48.786 21.5879 55.0457C19.8911 56.8634 18.2104 55.8726 17.5559 54.5826Z" fill="url(#paint10_radial)"/>
<path id="l-shoulder" d="M36.2946 37.4323C35.8484 38.7515 33.8719 44.3163 30.5674 42.4338C27.6489 41.5218 24.8438 37.1729 25.967 34.4398C26.4133 33.1206 30.133 31.1848 33.0514 32.0969C35.9699 33.0089 36.1498 35.4186 36.2946 37.4323Z" fill="#EFC49E"/>
<path id="l-tricepts" d="M25.6809 35.7591C27.2688 35.9364 33.1651 38.4973 34.584 38.9444C36.003 39.3914 24.2974 51.5988 23.7518 51.4973C23.2062 51.3958 19.2731 50.2368 18 50C16.7269 49.7632 24.0929 35.5818 25.6809 35.7591Z" fill="url(#paint11_radial)"/>
<path id="r-shoulder-wrapper" d="M26.0003 50.4998L29.0002 46.4996L31.5003 45.4998C33.5 43.9998 46.0098 44.5122 40.9999 38.4998C38.5002 35.4997 38.9999 35.9998 38.9999 35.9998C38.9999 35.9998 36.6849 29.9995 30.5002 29.9998C26.5002 29.9999 20 37.9998 18 44.4998L26.0003 50.4998Z" fill="#42B29E"/>
</g>
<g id="r-arm-hand">
<g id="r-hand">
<g id="hand_2">
<g id="index_2">
<ellipse id="joint-03_5" rx="0.658332" ry="0.255668" transform="matrix(-0.988526 0.164399 0.114246 0.989688 69.917 70.2819)" fill="#DDB18B"/>
<path id="inner_6" d="M70.4848 70.23C70.3412 70.3528 69.5035 70.2729 69.2916 70.4893C69.0797 70.7056 69.588 73.0491 69.6452 73.0142C69.7024 72.9792 70.7541 72.8637 70.8384 72.7549C70.9226 72.646 70.6283 70.1071 70.4848 70.23Z" fill="#FFC99A"/>
<ellipse id="joint-02_6" rx="0.658331" ry="0.255668" transform="matrix(-0.988526 0.164399 0.114246 0.989688 70.1924 72.8149)" fill="#FFC99A"/>
<path id="mid_5" d="M70.8509 72.7059C70.7137 72.5906 69.7083 72.7208 69.5909 72.9175C69.4734 73.1143 69.9193 75.4365 69.9556 75.4109C69.9919 75.3853 71.1046 75.2621 71.143 75.2362C71.1814 75.2103 70.9882 72.8212 70.8509 72.7059Z" fill="#FFC99A"/>
<ellipse id="joint-01_6" rx="0.658331" ry="0.255668" transform="matrix(-0.988526 0.164399 0.114246 0.989688 70.4878 75.3466)" fill="#FFC99A"/>
<path id="outer_6" d="M71.1316 75.3184C71.1249 75.2414 69.9588 75.0518 69.8835 75.6064C69.8082 76.1609 70.2646 78.1682 70.4176 78.0261C70.5706 77.8841 71.1463 77.9636 71.1562 77.7981C71.2554 76.1512 71.1959 76.0571 71.1316 75.3184Z" fill="#FFC99A"/>
<path id="Ellipse 64_5" d="M70.3028 77.617C70.3512 78.0362 70.5652 78.347 70.7809 78.3112C70.9965 78.2753 71.1321 77.9064 71.0837 77.4871C71.0353 77.0679 70.8213 76.7571 70.6056 76.793C70.39 76.8288 70.2544 77.1978 70.3028 77.617Z" fill="#DDB18B"/>
</g>
<g id="middle_2">
<ellipse id="joint-03_6" rx="0.654942" ry="0.283691" transform="matrix(-0.976693 0.224236 0.174247 0.980904 71.7237 70.1002)" fill="#DDB18B"/>
<path id="inner_7" d="M72.2878 70.0222C72.1547 70.163 71.312 70.1055 71.1184 70.3519C70.9248 70.5984 71.6263 73.165 71.6805 73.1243C71.7348 73.0836 72.7749 72.9177 72.8499 72.7946C72.925 72.6714 72.4209 69.8815 72.2878 70.0222Z" fill="#FFC99A"/>
<ellipse id="joint-02_7" rx="0.654942" ry="0.283691" transform="matrix(-0.976693 0.224236 0.174247 0.980904 72.213 72.8849)" fill="#FFC99A"/>
<path id="mid_6" d="M72.8583 72.7366C72.7123 72.615 71.7211 72.801 71.6199 73.0232C71.5187 73.2455 72.1496 75.792 72.1837 75.7621C72.2178 75.7323 73.3164 75.5495 73.3526 75.5193C73.3888 75.4891 73.0043 72.8582 72.8583 72.7366Z" fill="#FFC99A"/>
<ellipse id="joint-01_7" rx="0.654942" ry="0.283691" transform="matrix(-0.976693 0.224236 0.174247 0.980904 72.7071 75.6666)" fill="#FFC99A"/>
<path id="outer_7" d="M73.3478 75.6082C73.3349 75.5234 72.1579 75.3629 72.1274 75.9787C72.097 76.5944 72.713 78.7924 72.854 78.6291C72.9951 78.4658 73.575 78.5295 73.5716 78.3462C73.5381 76.5229 73.4712 76.4215 73.3478 75.6082Z" fill="#FFC99A"/>
<path id="Ellipse 64_6" d="M72.7098 78.1846C72.7917 78.6457 73.0299 78.98 73.2419 78.9313C73.4539 78.8827 73.5593 78.4695 73.4774 78.0084C73.3955 77.5473 73.1573 77.213 72.9453 77.2617C72.7333 77.3104 72.6279 77.7236 72.7098 78.1846Z" fill="#DDB18B"/>
</g>
<g id="pinky_2">
<ellipse id="joint-03_7" rx="0.654299" ry="0.210599" transform="matrix(-0.900831 0.438993 0.391246 0.916221 74.1375 68.7688)" fill="#DDB18B"/>
<path id="inner_8" d="M74.6626 68.5563C74.5539 68.6978 73.7451 68.8894 73.5924 69.1262C73.4397 69.363 74.4343 71.074 74.4807 71.0287C74.5271 70.9834 75.4951 70.5711 75.5508 70.4588C75.6065 70.3464 74.7712 68.4147 74.6626 68.5563Z" fill="#FFC99A"/>
<ellipse id="joint-02_8" rx="0.654299" ry="0.210599" transform="matrix(-0.900831 0.438993 0.391246 0.916221 74.9583 70.7011)" fill="#FFC99A"/>
<path id="mid_7" d="M75.5511 70.4115C75.3969 70.3618 74.4783 70.776 74.4104 70.9693C74.3424 71.1626 75.2661 72.8786 75.2948 72.8469C75.3234 72.8153 76.3445 72.3736 76.3751 72.341C76.4057 72.3085 75.7054 70.4612 75.5511 70.4115Z" fill="#FFC99A"/>
<ellipse id="joint-01_8" rx="0.654299" ry="0.210599" transform="matrix(-0.900831 0.438993 0.391246 0.916221 75.7825 72.6306)" fill="#FFC99A"/>
<path id="outer_8" d="M76.3832 72.4089C76.3602 72.3495 75.2209 72.5581 75.2703 73.024C75.3196 73.4898 76.1849 74.9512 76.2982 74.7906C76.4115 74.63 76.9709 74.5158 76.9444 74.3806C76.6805 73.0354 76.604 72.9788 76.3832 72.4089Z" fill="#FFC99A"/>
<path id="Ellipse 64_7" d="M76.1029 74.5007C76.2394 74.8204 76.5084 75.0024 76.7037 74.9072C76.899 74.812 76.9467 74.4757 76.8102 74.156C76.6737 73.8363 76.4047 73.6543 76.2093 73.7495C76.014 73.8447 75.9664 74.181 76.1029 74.5007Z" fill="#DDB18B"/>
</g>
<g id="ring_2">
<ellipse id="joint-03_8" rx="0.655246" ry="0.255668" transform="matrix(-0.954958 0.303752 0.254278 0.963264 73.078 69.8928)" fill="#DDB18B"/>
<path id="inner_9" d="M73.6345 69.7618C73.5106 69.9029 72.672 69.9387 72.4942 70.1815C72.3164 70.4244 73.1588 72.6706 73.2103 72.6281C73.2617 72.5857 74.2832 72.3276 74.3505 72.2084C74.4179 72.0893 73.7583 69.6208 73.6345 69.7618Z" fill="#FFC99A"/>
<ellipse id="joint-02_9" rx="0.655246" ry="0.255668" transform="matrix(-0.954958 0.303752 0.254278 0.963264 73.7269 72.3564)" fill="#FFC99A"/>
<path id="mid_8" d="M74.3555 72.1561C74.2038 72.0614 73.2318 72.3322 73.1443 72.5435C73.0567 72.7548 73.8286 74.99 73.8607 74.9595C73.8928 74.929 74.9715 74.6499 75.0057 74.6189C75.0398 74.5878 74.5073 72.2508 74.3555 72.1561Z" fill="#FFC99A"/>
<ellipse id="joint-01_9" rx="0.655246" ry="0.255668" transform="matrix(-0.954958 0.303752 0.254278 0.963264 74.3758 74.8186)" fill="#FFC99A"/>
<path id="outer_9" d="M75.0027 74.6998C74.9851 74.6245 73.809 74.6016 73.8142 75.161C73.8194 75.7204 74.5565 77.6424 74.687 77.4802C74.8174 77.318 75.396 77.3154 75.3821 77.1502C75.244 75.5064 75.1719 75.4217 75.0027 74.6998Z" fill="#FFC99A"/>
<path id="Ellipse 64_8" d="M74.5223 77.0939C74.63 77.5019 74.8854 77.7792 75.0928 77.7133C75.3001 77.6473 75.3809 77.2631 75.2732 76.855C75.1654 76.447 74.91 76.1697 74.7027 76.2356C74.4953 76.3016 74.4146 76.6858 74.5223 77.0939Z" fill="#DDB18B"/>
</g>
<g id="finger_2">
<path id="inner_10" d="M69.3152 67.2465L68.2284 66.3065C68.2284 66.3065 66.3994 67.4691 66.0767 68.6676C65.754 69.8661 67.783 69.0873 67.783 69.0873L69.3152 67.2465Z" fill="#F5C296"/>
<ellipse id="joint-02_10" rx="1.083" ry="0.700887" transform="matrix(-0.933655 -0.37677 -0.546471 0.825269 69.1185 66.6911)" fill="#EAC2A0"/>
<ellipse id="joint-01_10" rx="0.832058" ry="0.319444" transform="matrix(-1.08059 0.0485387 -0.0954392 0.907131 66.8609 68.8355)" fill="#FFC99A"/>
<path id="outer_10" d="M67.684 68.8944C67.3919 68.853 65.9608 68.8761 65.9608 68.8761L65.8859 72.1944C65.8859 72.1944 66.7159 72.4899 67.1002 72.1889C67.4844 71.8879 67.9761 68.9359 67.684 68.8944Z" fill="#F5C296"/>
<path id="nail_2" d="M65.9101 71.9327C65.8596 72.4128 66.0978 72.7895 66.4421 72.774C66.7865 72.7585 67.1066 72.3568 67.1571 71.8767C67.2076 71.3965 66.9694 71.0199 66.6251 71.0353C66.2807 71.0508 65.9606 71.4525 65.9101 71.9327Z" fill="#DDB18B"/>
</g>
<path id="palm_2" d="M67.9527 69.6384C70.0452 71.8808 70.5162 72.4671 72.6736 70.8636C75.639 70.0329 75.792 70.0408 74.8531 67.4223C74.5797 64.6264 72.2614 61.9517 70.1843 63.9935C67.7047 63.8434 66.9367 66.8775 67.9527 69.6384Z" fill="#FFC99A"/>
</g>
<path id="r-forarm" d="M63.3085 52.325C63.4942 51.8459 67.9878 49.2283 68.824 49.2448C69.6602 49.2613 73.2771 63.9073 73.2771 63.9073C73.2771 63.9073 69.5893 66.5216 67.7107 64.2881C65.8321 62.0545 63.1228 52.8042 63.3085 52.325Z" fill="url(#paint12_radial)"/>
<path id="r-elbow" d="M62.0997 51.8288C63.0869 54.7333 64.9341 57.531 67.3353 54.2528C69.2382 53.1011 69.9738 49.7224 69.0036 48.2005C68.0335 46.6786 64.14 46.7088 62.2371 47.8605C60.3342 49.0122 61.1295 50.3069 62.0997 51.8288Z" fill="url(#paint13_radial)"/>
</g>
<path id="r-shoulder" d="M50.6625 37.4321C51.1087 38.7513 53.0851 44.316 56.3896 42.4336C59.3081 41.5215 62.1132 37.1727 60.99 34.4396C60.5438 33.1204 56.8241 31.1846 53.9056 32.0966C50.9871 33.0087 50.8072 35.4184 50.6625 37.4321Z" fill="#EFC49E"/>
<path id="r-tricepts" d="M61.276 35.759C59.6881 35.9363 53.7918 38.4972 52.3728 38.9443C50.9539 39.3913 62.6594 51.5987 63.205 51.4972C63.7507 51.3957 67.3995 49.6939 68.6726 49.4571C69.9457 49.2203 62.8639 35.5817 61.276 35.759Z" fill="url(#paint14_radial)"/>
<path id="r-shoulder-wrapper_2" d="M60.5002 51.0003L57.5003 47.0001L55.0002 46.0003C53.0005 44.5002 40.4907 45.0127 45.5006 39.0002C48.0003 36.0002 47.5006 36.5002 47.5006 36.5002C47.5006 36.5002 49.8156 30.5 56.0002 30.5002C60.0002 30.5004 66.5005 38.5002 68.5005 45.0002L60.5002 51.0003Z" fill="#42B29E"/>
</g>
<path id="pants" d="M55.9998 68H30.9998L30 68.5C30 68.5 24.0001 93 27.9998 118.5C28.7562 123.323 40.5296 123.359 40.9999 118.5C42.4999 103 43.0003 80.5 43.5003 81.5C44.0003 82.5 45.7096 108 46.2095 118.5C46.4603 123.766 59.3112 123.757 59.7095 118.5C62.2096 85.5 56.9998 71 56.9998 71L55.9998 68Z" fill="#4C4848"/>
<path id="shirt" d="M28 46.5L22.5 37.5L27.5 32.5L35 33.5C35 33.5 40.3324 35.0873 44 35C47.492 34.9169 51.5 33.5 51.5 33.5L59.5 32.5L64.5 37.5L58 45.5L55 54.5L56 66.5L55 69H31L29.5 66.5L30.5 54.5L28 46.5Z" fill="#42B39E"/>
</g>
<defs>
<linearGradient id="paint0_linear" x1="43.1883" y1="-5.48473" x2="42.9971" y2="74.6065" gradientUnits="userSpaceOnUse">
<stop stop-color="#FFDDBF"/>
<stop offset="1" stop-color="#E7B68C"/>
</linearGradient>
<radialGradient id="paint1_radial" cx="0" cy="0" r="1" gradientUnits="userSpaceOnUse" gradientTransform="translate(44.2338 20.7144) rotate(90) scale(12.9757 10.1614)">
<stop offset="0.00229517" stop-color="#F8E0CC"/>
<stop offset="1" stop-color="#E6A773" stop-opacity="0.99"/>
</radialGradient>
<linearGradient id="paint2_linear" x1="1.92269" y1="0" x2="1.92269" y2="2.03501" gradientUnits="userSpaceOnUse">
<stop stop-color="#FFCFB0" stop-opacity="0.54"/>
<stop offset="1" stop-color="#FFB180"/>
</linearGradient>
<linearGradient id="paint3_linear" x1="48.1004" y1="18.5574" x2="48.1004" y2="20.6823" gradientUnits="userSpaceOnUse">
<stop stop-opacity="0"/>
<stop offset="0.765625"/>
<stop offset="1"/>
</linearGradient>
<linearGradient id="paint4_linear" x1="47.9788" y1="19.4681" x2="47.9788" y2="20.5305" gradientUnits="userSpaceOnUse">
<stop stop-color="#00936F" stop-opacity="0.46"/>
<stop offset="0.0001" stop-opacity="0.818347"/>
<stop offset="0.0002" stop-opacity="0.816101"/>
<stop offset="0.0003" stop-color="#00936F" stop-opacity="0.57724"/>
<stop offset="1" stop-color="#003A2C" stop-opacity="0"/>
</linearGradient>
<linearGradient id="paint5_linear" x1="38.2887" y1="18.5576" x2="38.2887" y2="20.6825" gradientUnits="userSpaceOnUse">
<stop stop-opacity="0"/>
<stop offset="0.765625"/>
<stop offset="1"/>
</linearGradient>
<linearGradient id="paint6_linear" x1="38.4079" y1="19.4678" x2="38.4079" y2="20.5303" gradientUnits="userSpaceOnUse">
<stop stop-color="#00936F" stop-opacity="0.46"/>
<stop offset="0.0001" stop-opacity="0.818347"/>
<stop offset="0.0002" stop-opacity="0.816101"/>
<stop offset="0.0003" stop-color="#00936F" stop-opacity="0.57724"/>
<stop offset="1" stop-color="#003A2C" stop-opacity="0"/>
</linearGradient>
<linearGradient id="paint7_linear" x1="43.6338" y1="27.0633" x2="43.6495" y2="27.8584" gradientUnits="userSpaceOnUse">
<stop stop-color="#9D0101"/>
<stop offset="1" stop-color="#6A0808"/>
</linearGradient>
<linearGradient id="paint8_linear" x1="43.7836" y1="27.1068" x2="43.7348" y2="27.8819" gradientUnits="userSpaceOnUse">
<stop stop-color="#A50505"/>
<stop offset="1" stop-color="#750202"/>
</linearGradient>
<radialGradient id="paint9_radial" cx="0" cy="0" r="1" gradientUnits="userSpaceOnUse" gradientTransform="translate(20.9705 60.7245) rotate(89.7933) scale(8.39678 4.67028)">
<stop stop-color="#F1BF94"/>
<stop offset="1" stop-color="#FFC99A"/>
</radialGradient>
<radialGradient id="paint10_radial" cx="0" cy="0" r="1" gradientUnits="userSpaceOnUse" gradientTransform="translate(19.9445 52.8803) rotate(-125.505) scale(2.6101 4.48312)">
<stop stop-color="#F1BF94"/>
<stop offset="1" stop-color="#FFC99A"/>
</radialGradient>
<radialGradient id="paint11_radial" cx="0" cy="0" r="1" gradientUnits="userSpaceOnUse" gradientTransform="translate(25.5691 44.3026) rotate(122.812) scale(8.49547 4.53527)">
<stop stop-color="#F1BF94"/>
<stop offset="1" stop-color="#FFC99A"/>
</radialGradient>
<radialGradient id="paint12_radial" cx="0" cy="0" r="1" gradientUnits="userSpaceOnUse" gradientTransform="translate(68.1844 58.7878) rotate(69.6797) scale(8.39678 4.67028)">
<stop stop-color="#F1BF94"/>
<stop offset="1" stop-color="#FFC99A"/>
</radialGradient>
<radialGradient id="paint13_radial" cx="0" cy="0" r="1" gradientUnits="userSpaceOnUse" gradientTransform="translate(63.3878 50.0973) rotate(57.4834) scale(3.26792 4.02635)">
<stop stop-color="#F1BF94"/>
<stop offset="1" stop-color="#FFC99A"/>
</radialGradient>
<radialGradient id="paint14_radial" cx="0" cy="0" r="1" gradientUnits="userSpaceOnUse" gradientTransform="translate(61.388 44.3026) rotate(57.1876) scale(8.49547 4.53527)">
<stop stop-color="#F1BF94"/>
<stop offset="1" stop-color="#FFC99A"/>
</radialGradient>
</defs>
</svg>
